<!--?xml version="1.0" encoding="utf-8"?-->
<!-- Generator: Adobe Illustrator 19.1.1, SVG Export Plug-In . SVG Version: 6.00 Build 0)  -->
<svg version="1.1" id="_x31_0" xmlns="http://www.w3.org/2000/svg" xmlns:xlink="http://www.w3.org/1999/xlink" x="0px" y="0px" viewBox="0 0 512 512" style="width: 48px; height: 48px; opacity: 1;" xml:space="preserve">
<style type="text/css">
	.st0{fill:#374149;}
</style>
<g>
	<path class="st0" d="M189.677,76.871h-8.824v10.734h8.824c1.79,0,3.145-0.492,4.196-1.481c0.988-0.926,1.48-2.222,1.48-3.886
		c0-1.726-0.492-3.023-1.48-3.95C192.822,77.363,191.467,76.871,189.677,76.871z" style="fill: rgb(0, 0, 0);"></path>
	<path class="st0" d="M335.892,64.84c-0.183-0.863-0.371-1.606-0.68-2.16c-0.246-0.555-0.554-1.047-0.984-1.481
		c-0.618-0.68-1.359-1.234-2.286-1.664c-0.926-0.434-1.972-0.68-3.144-0.68c-1.172,0-2.223,0.246-3.149,0.68
		c-0.926,0.43-1.726,0.984-2.343,1.664c-0.43,0.434-0.742,0.926-0.989,1.481c-0.309,0.554-0.492,1.297-0.675,2.16
		c-0.188,0.926-0.25,2.035-0.309,3.394c-0.062,1.418-0.125,3.082-0.125,5.18c0,2.098,0.062,3.824,0.125,5.183
		c0.058,1.355,0.121,2.469,0.309,3.332c0.183,0.863,0.366,1.606,0.675,2.16c0.246,0.555,0.558,1.047,0.989,1.481
		c0.617,0.676,1.418,1.234,2.343,1.726c0.926,0.434,1.977,0.68,3.149,0.68c1.172,0,2.218-0.246,3.144-0.68
		c0.926-0.492,1.668-1.05,2.286-1.726c0.43-0.434,0.738-0.926,0.984-1.481c0.309-0.554,0.497-1.297,0.68-2.16
		c0.125-0.863,0.246-1.977,0.371-3.332c0.062-1.359,0.121-3.086,0.121-5.183c0-2.098-0.058-3.762-0.121-5.18
		C336.139,66.875,336.017,65.766,335.892,64.84z" style="fill: rgb(0, 0, 0);"></path>
	<path class="st0" d="M193.256,67.926c1.051-0.926,1.543-2.098,1.543-3.641c0-1.542-0.492-2.777-1.543-3.702
		c-0.988-0.864-2.344-1.356-4.074-1.356h-8.328v10.055h8.328C190.912,69.282,192.268,68.789,193.256,67.926z" style="fill: rgb(0, 0, 0);"></path>
	<path class="st0" d="M445.521,0H66.475c-14.93,0-27.082,12.152-27.082,27.082v457.832c0,14.93,12.152,27.086,27.082,27.086h379.046
		c14.934,0,27.086-12.156,27.086-27.086V27.082C472.608,12.152,460.455,0,445.521,0z M126.861,59.886l4.328,8.84l6.258,0.934
		l3.594,0.629l-7.074,6.891l1.05,6.214l0.512,3.602l-8.719-4.574l-5.621,2.93l-3.242,1.586l1.645-9.758l-4.527-4.41l-2.516-2.578
		l9.821-1.465l2.789-5.617L126.861,59.886z M212.564,95.133V51.699h8.453v43.434H212.564z M255.776,78.289l0.003-0.246l0.157,0.246
		v-26.59h8.515v43.434h-7.59L239.65,68.481v26.648v0.004h-8.515V51.699h7.59l9.351,14.446L255.776,78.289z M302.967,58.461
		c0.316,0.492,0.652,0.973,0.906,1.504c0.722,1.504,1.171,3.114,1.484,4.726c0.023,0.184,0.074,0.328,0.09,0.52H296.9
		c-0.922-4.195-3.578-6.356-7.774-6.356c-1.172,0-2.218,0.246-3.145,0.68c-0.863,0.43-1.668,0.984-2.285,1.664
		c-0.43,0.434-0.738,0.926-1.047,1.481c-0.246,0.554-0.492,1.297-0.617,2.16c-0.184,0.926-0.309,2.035-0.371,3.394
		c-0.058,1.418-0.058,3.082-0.058,5.18c0,2.098,0,3.824,0.058,5.183c0.062,1.355,0.187,2.469,0.371,3.394
		c0.125,0.863,0.371,1.602,0.617,2.157c0.309,0.558,0.618,1.113,1.047,1.542c0.617,0.68,1.422,1.234,2.285,1.668
		c0.926,0.371,1.973,0.618,3.145,0.618c1.297,0,2.469-0.246,3.457-0.68c1.047-0.434,1.852-0.988,2.59-1.789
		c0.679-0.801,1.171-1.726,1.48-2.653c0.309-0.988,0.434-2.038,0.434-3.148v-1.602h-7.961V70.95h16.414v6.351
		c0,3.149-0.313,5.738-0.867,7.774c-0.618,2.039-1.727,3.886-3.27,5.492c-1.848,1.914-3.762,3.207-5.797,3.886
		c-2.035,0.738-4.196,1.051-6.481,1.051c-2.527,0-4.687-0.371-6.539-1.176c-1.91-0.801-3.578-1.91-5.058-3.39
		c-1.11-1.114-1.973-2.222-2.527-3.394c-0.618-1.234-1.051-2.469-1.297-3.887c-0.309-1.418-0.434-2.961-0.493-4.625
		c-0.062-1.668-0.125-3.519-0.125-5.617c0-2.098,0.062-3.946,0.125-5.614c0.059-1.664,0.184-3.207,0.493-4.625
		c0.246-1.422,0.679-2.657,1.297-3.891c0.554-1.171,1.418-2.281,2.527-3.39c1.48-1.48,3.148-2.594,5.058-3.394
		c1.852-0.801,4.012-1.172,6.539-1.172c2.531,0,4.75,0.371,6.664,1.172c1.914,0.742,3.516,1.789,4.875,3.086
		c0.414,0.395,0.77,0.852,1.141,1.294C302.228,57.386,302.615,57.91,302.967,58.461z M311.338,474.984H200.72V371.336h110.438h0.18
		v103.492V474.984z M199.276,71.859c-0.434,0.29-0.817,0.622-1.321,0.856c0.023,0.015,0.047,0.031,0.07,0.042
		c-0.054,0.031-0.09,0.074-0.141,0.102c0.859,0.434,1.477,0.863,1.973,1.172c0.43,0.309,0.863,0.68,1.355,1.172
		c0.926,0.988,1.606,2.098,2.039,3.332c0.43,1.234,0.618,2.594,0.618,4.133c0,1.914-0.313,3.641-0.93,5.183
		c-0.614,1.543-1.477,2.84-2.653,3.887c-1.172,1.11-2.527,1.914-4.191,2.531c-1.668,0.617-3.52,0.863-5.554,0.863h-18.199V51.699
		h17.457c2.039,0,3.89,0.246,5.554,0.863c1.726,0.554,3.086,1.355,4.258,2.406c1.172,0.988,2.098,2.282,2.715,3.762
		c0.614,1.422,0.926,3.086,0.926,4.938C203.252,67.187,201.873,69.894,199.276,71.859z M311.338,358.996H200.72V248.379h110.438
		h0.18V358.82V358.996z M311.338,125.426v110.438v0.18H200.72V125.422h110.438L311.338,125.426z M188.38,125.426v110.102v0.516
		H77.701V125.422h110.5L188.38,125.426z M188.38,248.379v110.105v0.512H77.701V248.379h110.5H188.38z M188.38,371.336v103.176v0.472
		H77.701V371.336h110.5H188.38z M341.876,57.614c0.399,0.55,0.75,1.105,1.047,1.671c0.618,1.234,1.051,2.469,1.297,3.891
		c0.309,1.418,0.492,2.961,0.555,4.625c0.062,1.668,0.062,3.516,0.062,5.614c0,2.098,0,3.949-0.062,5.617
		c-0.063,1.664-0.246,3.207-0.555,4.625c-0.246,1.418-0.679,2.653-1.297,3.887c-0.301,0.574-0.648,1.133-1.054,1.683
		c-0.016,0.024-0.035,0.051-0.055,0.074c-0.41,0.547-0.874,1.094-1.418,1.637c-1.481,1.48-3.145,2.59-4.996,3.39
		c-1.914,0.805-4.074,1.176-6.602,1.176c-2.531,0-4.75-0.371-6.602-1.176c-1.914-0.801-3.578-1.91-5.058-3.39
		c-1.114-1.114-1.977-2.222-2.531-3.394c-0.618-1.234-1.047-2.469-1.294-3.887c-0.25-1.418-0.434-2.961-0.496-4.625
		c-0.062-1.668-0.062-3.519-0.062-5.617c0-2.098,0-3.946,0.062-5.614c0.062-1.664,0.246-3.207,0.496-4.625
		c0.246-1.422,0.676-2.657,1.294-3.891c0.554-1.171,1.418-2.281,2.531-3.39c1.48-1.48,3.144-2.594,5.058-3.394
		c1.851-0.801,4.07-1.172,6.602-1.172c2.527,0,4.687,0.371,6.602,1.172c1.851,0.801,3.515,1.914,4.996,3.394
		c0.539,0.539,1.004,1.082,1.41,1.629C341.83,57.554,341.853,57.582,341.876,57.614z M385.299,59.886l4.328,8.84l6.258,0.934
		l3.594,0.629l-7.074,6.891l1.05,6.234l0.512,3.582l-8.719-4.574l-5.613,2.926l-3.25,1.59l1.645-9.758l-4.516-4.402l-2.527-2.586
		l9.821-1.465l2.781-5.602L385.299,59.886z M434.295,125.426v110.618H323.677V125.422h110.438L434.295,125.426z M323.677,371.336
		h110.438h0.18v103.648H323.677V371.336z M323.677,248.379h110.438h0.18v110.617H323.677V248.379z" style="fill: rgb(0, 0, 0);"></path>
	<polygon class="st0" points="118.975,176.914 118.975,177.121 124.529,172.324 128.044,169.422 128.044,205.008 136.189,205.008 
		136.189,160.527 128.044,160.527 118.975,168.363 118.975,173.539 118.869,177.004 	" style="fill: rgb(0, 0, 0);"></polygon>
	<path class="st0" d="M269.572,197.73h-10.524l-6.602-0.102l12.375-14.336c0.738-0.863,1.418-1.726,1.973-2.469
		c0.617-0.801,1.11-1.542,1.543-2.343c0.371-0.801,0.679-1.664,0.863-2.469c0.246-0.863,0.371-1.852,0.371-2.898
		c0-2.035-0.371-3.825-1.051-5.43c-0.617-1.601-1.602-2.961-2.774-4.07c-1.175-1.114-2.594-1.977-4.258-2.594
		c-1.668-0.554-3.515-0.863-5.43-0.863c-1.914,0-3.703,0.246-5.367,0.863c-1.668,0.559-3.086,1.422-4.32,2.531
		c-1.23,1.172-2.161,2.532-2.898,4.133c-0.633,1.5-0.918,3.184-0.958,5.106c-0.004,0.078-0.023,0.145-0.031,0.227h0.016
		c0,0.054-0.016,0.101-0.016,0.16h8.082c0-1.114,0.187-2.035,0.496-2.778c0.309-0.68,0.738-1.297,1.234-1.726
		c0.554-0.434,1.11-0.742,1.789-0.926c0.618-0.188,1.293-0.309,1.973-0.309c1.726,0,3.086,0.554,3.949,1.543
		c0.926,1.046,1.418,2.343,1.418,4.007c0,1.051-0.184,1.977-0.554,2.778c-0.371,0.801-0.926,1.668-1.79,2.652l-16.598,19.313v7.278
		h27.086V197.73z" style="fill: rgb(0, 0, 0);"></path>
	<path class="st0" d="M372.353,202.293c1.297,1.114,2.84,1.852,4.504,2.344c1.726,0.496,3.457,0.742,5.305,0.742
		c1.914,0,3.703-0.246,5.43-0.801c1.726-0.496,3.207-1.36,4.504-2.469c1.297-1.11,2.344-2.469,3.086-4.133
		c0.738-1.668,1.11-3.641,1.11-5.801c0-2.715-0.554-4.875-1.664-6.477c-0.992-1.359-2.149-2.39-3.406-3.218
		c-0.207-0.168-0.398-0.356-0.617-0.52c1.398-0.738,2.617-1.832,3.59-3.297c0.988-1.418,1.481-3.332,1.481-5.797
		c0-1.851-0.371-3.578-0.989-5.121c-0.676-1.543-1.602-2.898-2.836-4.07c-1.234-1.114-2.652-1.977-4.32-2.594
		c-1.664-0.618-3.454-0.926-5.426-0.926c-1.914,0-3.641,0.246-5.309,0.863c-1.602,0.559-3.082,1.422-4.254,2.469
		c-1.234,1.11-2.223,2.406-2.902,4.012c-0.676,1.41-1.012,3.047-1.114,4.824c-0.016,0.11-0.047,0.211-0.058,0.321h0.019
		c-0.004,0.054-0.015,0.106-0.019,0.16h8.144c0.063-1.664,0.618-3.023,1.602-3.95c1.051-0.926,2.348-1.418,3.891-1.418
		c1.476,0,2.71,0.492,3.824,1.48c1.047,0.926,1.602,2.344,1.602,4.258c0,1.542-0.43,2.898-1.293,3.945
		c-0.867,1.051-2.344,1.606-4.321,1.606h-1.172v7.035h1.172c1.977,0,3.516,0.555,4.629,1.664c1.047,1.11,1.602,2.594,1.602,4.504
		c0,1.973-0.554,3.516-1.664,4.566c-1.113,1.047-2.59,1.602-4.32,1.602c-0.801,0-1.543-0.121-2.282-0.367
		c-0.738-0.187-1.355-0.554-1.914-1.05c-0.555-0.493-0.985-1.047-1.293-1.79c-0.371-0.738-0.555-1.606-0.555-2.59h-8.144
		c0,2.282,0.43,4.316,1.234,5.922C370.009,199.886,371.056,201.246,372.353,202.293z" style="fill: rgb(0, 0, 0);"></path>
	<polygon class="st0" points="132.674,323.649 140.447,323.649 140.447,317.355 144.345,317.355 144.357,317.355 144.357,317.355 
		144.517,317.355 144.517,309.824 144.517,309.801 144.517,309.801 144.517,309.645 140.447,309.645 140.447,301.313 
		132.674,301.313 132.674,309.645 126.127,309.645 123.388,309.574 133.876,288.554 138.596,279.266 138.513,279.262 
		138.596,279.106 129.709,279.106 114.471,309.645 114.471,317.355 132.674,317.355 	" style="fill: rgb(0, 0, 0);"></polygon>
	<path class="st0" d="M391.478,300.45c-1.046-1.11-2.343-1.973-3.702-2.59c-1.418-0.617-2.836-0.926-4.379-0.926
		c-0.554,0-1.047,0.062-1.664,0.125c-0.434,0.094-0.852,0.211-1.258,0.336c-0.074,0.004-0.133,0.031-0.215,0.031
		c-0.031,0-0.066-0.004-0.098-0.004l6.313-12.542l2.906-5.614l-0.082-0.004l0.082-0.156h-8.882l-9.379,19.246
		c-1.046,2.098-1.91,4.074-2.652,5.985c-0.738,1.914-1.11,3.886-1.11,5.922c0,2.223,0.309,4.195,1.047,5.863
		c0.679,1.727,1.668,3.145,2.961,4.317c1.234,1.176,2.714,2.098,4.382,2.652c1.664,0.618,3.516,0.926,5.489,0.926
		c1.976,0,3.766-0.309,5.43-0.926c1.726-0.617,3.21-1.539,4.442-2.71c1.234-1.234,2.222-2.657,2.965-4.383
		c0.675-1.664,1.046-3.641,1.046-5.859c0-2.035-0.309-3.886-0.988-5.554C393.513,302.981,392.588,301.558,391.478,300.45z
		 M386.975,310.199c0,2.098-0.555,3.699-1.606,4.813c-1.11,1.109-2.465,1.664-4.133,1.664c-1.664,0-3.082-0.555-4.133-1.664
		c-1.11-1.114-1.602-2.715-1.602-4.813c0-2.098,0.492-3.703,1.602-4.813c1.05-1.113,2.469-1.668,4.133-1.668
		c1.73,0,3.148,0.555,4.195,1.731C386.482,306.621,386.975,308.222,386.975,310.199z" style="fill: rgb(0, 0, 0);"></path>
	<polygon class="st0" points="130.416,413.598 130.416,413.598 130.572,413.598 130.572,406.562 139.279,406.562 142.276,406.621 
		131.76,433.711 127.861,443.606 127.924,443.606 127.861,443.766 136.681,443.766 151.119,406.562 151.119,399.465 
		151.119,399.446 151.119,399.446 151.119,399.285 122.799,399.285 122.799,413.598 130.392,413.598 	" style="fill: rgb(0, 0, 0);"></polygon>
	<path class="st0" d="M272.345,427.23c-0.367-1.047-0.801-1.973-1.418-2.836c-0.554-0.805-1.11-1.48-1.789-2.098
		c-0.5-0.449-1.031-0.832-1.547-1.199c-0.114-0.11-0.226-0.187-0.336-0.309c0.547-0.367,1.094-0.847,1.699-1.394
		c0.618-0.617,1.172-1.234,1.602-2.035c0.496-0.738,0.926-1.602,1.234-2.527c0.309-0.988,0.434-2.039,0.434-3.27
		c0-1.977-0.371-3.703-1.05-5.246c-0.738-1.602-1.727-2.899-2.962-4.008c-1.234-1.114-2.652-1.977-4.316-2.531
		c-1.668-0.618-3.394-0.926-5.309-0.926c-1.847,0-3.637,0.309-5.242,0.926c-1.664,0.554-3.086,1.418-4.378,2.531
		c-1.234,1.109-2.223,2.406-2.961,4.008c-0.742,1.542-1.114,3.269-1.114,5.246c0,1.23,0.187,2.282,0.496,3.27
		c0.309,0.926,0.676,1.789,1.172,2.527c0.492,0.801,1.047,1.418,1.602,2.035c0.519,0.469,0.988,0.852,1.457,1.195
		c0.078,0.086,0.168,0.157,0.25,0.242c-0.61,0.43-1.219,0.914-1.828,1.465c-0.68,0.618-1.298,1.293-1.79,2.098
		c-0.554,0.863-0.988,1.789-1.359,2.836c-0.367,0.988-0.554,2.222-0.554,3.578c0,2.16,0.371,4.074,1.109,5.738
		c0.805,1.668,1.79,3.023,3.086,4.133c1.297,1.171,2.84,2.035,4.566,2.594c1.726,0.554,3.578,0.863,5.488,0.863
		c1.977,0,3.828-0.309,5.555-0.863c1.726-0.558,3.269-1.422,4.566-2.594c1.234-1.11,2.281-2.465,3.019-4.133
		c0.742-1.664,1.114-3.578,1.114-5.738C272.842,429.453,272.716,428.218,272.345,427.23z M258.588,436.855
		c-1.726,0-3.207-0.617-4.378-1.789c-1.172-1.172-1.727-2.59-1.727-4.379c0-1.73,0.555-3.21,1.727-4.382
		c1.171-1.172,2.652-1.789,4.378-1.789c1.789,0,3.211,0.617,4.383,1.789s1.789,2.652,1.789,4.382c0,1.79-0.617,3.207-1.789,4.379
		S260.376,436.855,258.588,436.855z M258.588,406.195c1.606,0,2.902,0.555,3.95,1.602c1.05,1.114,1.606,2.469,1.606,4.012
		c0,1.664-0.555,2.961-1.606,4.07c-1.047,1.05-2.344,1.542-3.95,1.542c-1.539,0-2.898-0.492-3.945-1.542
		c-1.051-1.11-1.606-2.406-1.606-4.07c0-1.543,0.554-2.898,1.606-4.012C255.689,406.75,257.048,406.195,258.588,406.195z" style="fill: rgb(0, 0, 0);"></path>
	<path class="st0" d="M391.971,402.43c-1.23-1.172-2.711-2.035-4.379-2.652c-1.664-0.618-3.516-0.926-5.488-0.926
		c-1.914,0-3.766,0.309-5.43,0.989c-1.731,0.617-3.211,1.48-4.446,2.714c-1.23,1.172-2.219,2.653-2.898,4.379
		c-0.738,1.726-1.11,3.641-1.11,5.801c0,2.098,0.371,3.949,1.047,5.614c0.617,1.605,1.542,2.961,2.594,4.133
		c1.11,1.109,2.344,1.976,3.762,2.594c1.418,0.554,2.902,0.863,4.379,0.863c0.558,0,1.113,0,1.668-0.125
		c0.359-0.039,0.718-0.172,1.078-0.278c0.176-0.023,0.344-0.054,0.539-0.062l-6.309,12.535l-2.898,5.598h0.082l-0.082,0.16h8.825
		l9.438-19.25c0.988-2.035,1.851-4.008,2.594-5.922c0.675-1.91,1.046-3.886,1.046-5.984c0-2.16-0.308-4.133-1.046-5.859
		C394.256,405.019,393.268,403.602,391.971,402.43z M382.104,406.195c1.664,0,3.082,0.555,4.133,1.664
		c1.109,1.172,1.664,2.778,1.664,4.813c0,2.098-0.555,3.703-1.664,4.812c-1.051,1.172-2.469,1.727-4.133,1.727
		c-1.73,0-3.149-0.618-4.195-1.79c-0.989-1.109-1.543-2.714-1.543-4.75c0-2.035,0.554-3.641,1.602-4.813
		C379.08,406.75,380.436,406.195,382.104,406.195z" style="fill: rgb(0, 0, 0);"></path>
	<path class="st0" d="M256.029,265.016c-19.141,0-34.801,15.019-35.703,33.965c-0.129,0.582-0.129,1.226-0.129,1.87v31.582v5.477
		v0.031l0,0v0.164h71.602v-37.254C291.799,281.066,275.818,265.016,256.029,265.016z M272.467,315.996v2.774h-32.934v-17.918
		c0-0.386,0-0.71,0.062-1.098L272.467,315.996z" style="fill: rgb(0, 0, 0);"></path>
</g>
</svg>
