<svg data-name="Layer 2" version="1.1" viewBox="0 0 83.01 83.01" xmlns="http://www.w3.org/2000/svg">
 <path d="m64.953-8.5449e-6h-32.27a4.19 4.19 0 0 0-4.19 4.19v40.17a20.77 20.77 0 0 0-6.15 3.14c-2.87 2-5.07 8.26-6.72 19-1.17 7.64-1.62 14.85-1.62 14.92a1.5 1.5 0 0 0 1.5 1.59h13.2a1.5 1.5 0 0 0 1.5-1.5v-3.94c0.81-0.6 2.42-1.83 4.93-3.89a16.25 16.25 0 0 0 3.18-3.45h26.64a4.19 4.19 0 0 0 4.19-4.19v-61.85a4.19 4.19 0 0 0-4.19-4.19zm-32.27 3h32.27a1.19 1.19 0 0 1 1.19 1.19v5.81h-34.65v-5.81a1.19 1.19 0 0 1 1.19-1.19zm33.46 56.85h-20.71l0.66-0.71c1.47-1.58 3-3.2 2.91-4.94h12.41a1.5 1.5 0 0 0 1.5-1.5v-11.28a5.12 5.12 0 0 0-3.7-4.9l-2.91-0.83a13.64 13.64 0 0 0 1.21-6 17.71 17.71 0 0 0-0.11-1.92v-0.59q-0.06-0.41-0.14-0.8v-0.2q-0.1-0.44-0.22-0.85v-0.1a8.26 8.26 0 0 0-3.63-4.91l-0.09-0.05q-0.31-0.18-0.64-0.32l-0.17-0.07-0.61-0.23-0.33-0.07-0.61-0.15-0.26-0.06-0.65-0.09h-1.21a10.3 10.3 0 0 0-1.31 0.09h-0.35a8.76 8.76 0 0 0-1.09 0.24l-0.31 0.1a7.74 7.74 0 0 0-0.81 0.33l-0.43 0.22c-0.21 0.12-0.41 0.25-0.61 0.39a7.27 7.27 0 0 0-0.61 0.48c-0.14 0.12-0.27 0.24-0.4 0.37s-0.28 0.29-0.41 0.45-0.24 0.31-0.36 0.47a8.44 8.44 0 0 0-0.51 0.79c-0.1 0.17-0.19 0.35-0.28 0.53s-0.17 0.36-0.25 0.55a11 11 0 0 0-0.38 1.07v0.13a1.5 1.5 0 0 0 0 0.16 15.57 15.57 0 0 0-0.51 4.08 13.81 13.81 0 0 0 1.2 6l-2.9 0.83a5.12 5.12 0 0 0-3.7 4.9v11.24a1.5 1.5 0 0 0 1.5 1.5h0.25c-0.22 0.24-0.45 0.49-0.66 0.75a6.82 6.82 0 0 1-4.44 2.49v-44.44h34.67zm-25.33-12.25a1.5 1.5 0 0 0-1.5 1.5v2.1h-1.6v-9.78a2.11 2.11 0 0 1 1.52-2l4-1.14a9 9 0 0 0 11.15 0l4 1.15a2.11 2.11 0 0 1 1.52 2v9.77h-1.6v-2.1a1.5 1.5 0 0 0-3 0v2.1h-8.22a5.22 5.22 0 0 0-3.37-1 7.13 7.13 0 0 0-1.39 0.24v-1.34a1.5 1.5 0 0 0-1.51-1.5zm3-22c0.07-0.19 0.15-0.36 0.23-0.53s0.11-0.24 0.18-0.35l0.09-0.15a4.64 4.64 0 0 1 2.94-2.18h0.14a6 6 0 0 1 0.61-0.11 7.64 7.64 0 0 1 0.86-0.05 7.32 7.32 0 0 1 0.81 0h0.19c0.19 0 0.38 0.06 0.55 0.1h0.17a5.2 5.2 0 0 1 0.51 0.16l0.13 0.06 0.31 0.15h-0.05a1.5 1.5 0 0 0-1 0.63 6 6 0 0 1-3.91 2.55l-2.5 0.46-0.36-0.65zm-0.52 3.9h0.28l3.56-0.66a9 9 0 0 0 4.69-2.44l2.66 2.23v1.08c0 3.42-1 7.5-5.7 7.5a5 5 0 0 1-4.08-1.71 9.16 9.16 0 0 1-1.58-5.78v-0.2zm-10.06 41.86c-3.67 3-5.38 4.21-5.39 4.22a1.5 1.5 0 0 0-0.64 1.23v3.2h-10.1c0.78-10.84 3.22-27.38 7-30.09a18.73 18.73 0 0 1 4.39-2.42v11.48a1.49 1.49 0 0 0 0.08 0.52 1.49 1.49 0 0 0 0.25 0.41 1.5 1.5 0 0 0 0.37 0.29h0.06a1.48 1.48 0 0 0 0.46 0.15 9.91 9.91 0 0 0 8.45-3.63 11.55 11.55 0 0 1 3.37-2.88 5.42 5.42 0 0 1 2.21-0.7 2.2 2.2 0 0 1 1.77 0.63c0.51 0.51 0.65 0.65-1.74 3.22-0.85 0.91-1.89 2-2.93 3.39l-0.24 0.31a45 45 0 0 0-3.26 5.1 16.75 16.75 0 0 1-4.11 5.57zm31.72-4.13h-24.81a42.35 42.35 0 0 1 2.79-4.38h23.21v3.19a1.19 1.19 0 0 1-1.19 1.19zm-18.14-60.22v-1a1.49 1.49 0 0 1 1.49-1.51h1a1.49 1.49 0 0 1 1.49 1.49v1a1.49 1.49 0 0 1-1.46 1.51h-1a1.49 1.49 0 0 1-1.52-1.49zm6.19 58a1.5 1.5 0 0 1-1.5 1.5h-5.37a1.5 1.5 0 0 1 0-3h5.38a1.5 1.5 0 0 1 1.49 1.53z"/>
</svg>
