<?xml version="1.0" encoding="utf-8"?>
<!-- Generator: Adobe Illustrator 22.0.1, SVG Export Plug-In . SVG Version: 6.00 Build 0)  -->
<svg version="1.1" xmlns="http://www.w3.org/2000/svg" xmlns:xlink="http://www.w3.org/1999/xlink" x="0px" y="0px"
	 viewBox="0 0 50 50" style="enable-background:new 0 0 50 50;" xml:space="preserve">
<style type="text/css">
	.st0{fill:#FFFFFF;}
</style>
<g id="Layer_1">
</g>
<g id="Layer_2">
	<path class="st0" d="M47,16.1c-7.2-2.7-14.3-5.4-21.5-8.1c-0.3-0.1-0.6-0.2-0.8-0.1c-2.7,1-5.5,2.1-8.4,3.2
		c3.4,1.5,6.6,2.9,9.9,4.4c-0.7,0.3-1.3,0.5-1.9,0.8c-0.6,0.3-1.2,0.4-1.9,0.1c-3-1.3-5.9-2.5-8.9-3.7c-0.3-0.1-0.7-0.2-1-0.1
		c-3.1,1.2-6.2,2.3-9.3,3.6c-0.3,0.1-0.5,0.5-0.6,0.9c-0.1,0.5,0.1,0.7,0.6,0.9c0.7,0.2,1.3,0.6,2,0.8c0.6,0.2,0.8,0.5,0.8,1.2
		c0,5.2,0,10.3,0,15.5v1.1C7,36,8,35.5,9,35.1c0.5-0.2,0.6-0.5,0.6-1c0-2,0-4.1,0-6.1v-7.5c1.5,0.6,3.8,1.4,5.3,2
		c-0.6,1.1-1.1,2.2-1.5,3.3c1.4-1,3.1-1.5,4.9-1.5c2.8,0,5.4,1.4,6.9,3.5c1.5-1.9,3.9-3.2,6.5-3.2c2,0,3.8,0.7,5.2,1.9
		c-0.4-1.2-0.9-2.6-1.6-3.7c0.1,0,0.3-0.1,0.6-0.2c3.3-1.3,7.8-3.2,11.1-4.5c0.5-0.2,0.8-0.4,0.7-1C47.7,16.5,47.5,16.3,47,16.1z"/>
	<path class="st0" d="M18.3,27.5c-3.1,0-5.6,2.4-5.6,5.4c0,2.5,1.8,4.6,4.2,5.2c-1-0.5-1.7-1.5-1.7-2.7c0-1.7,1.4-3,3.1-3
		c0.4,0,0.7,0.1,1,0.2c-0.9,0.7-0.4,2.5,1,2.5c0.5,0,0.8-0.2,1-0.4c0.1,0.3,0.1,0.5,0.1,0.8c0,1.2-0.7,2.2-1.7,2.7
		c2.4-0.6,4.1-2.7,4.1-5.2C23.9,29.9,21.4,27.5,18.3,27.5z"/>
	<path class="st0" d="M31.7,27.7c-3.1,0-5.5,2.4-5.5,5.4c0,2.7,2,4.9,4.7,5.3c-1.3-0.4-2.2-1.6-2.2-2.9c0-1.7,1.4-3.1,3.2-3.1
		c0.4,0,0.9,0.1,1.3,0.3c-0.7,0.8-0.3,2.5,1.2,2.5c0.3,0,0.5-0.1,0.7-0.2c0,0.2,0.1,0.3,0.1,0.5c0,1.3-0.8,2.3-1.9,2.8
		c2.4-0.6,4.1-2.7,4.1-5.2C37.3,30.1,34.8,27.7,31.7,27.7z"/>
</g>
</svg>
