<?xml version="1.0" encoding="utf-8"?>
<!-- Generator: Adobe Illustrator 22.0.1, SVG Export Plug-In . SVG Version: 6.00 Build 0)  -->
<svg version="1.1" xmlns="http://www.w3.org/2000/svg" xmlns:xlink="http://www.w3.org/1999/xlink" x="0px" y="0px"
	 viewBox="0 0 50 50" style="enable-background:new 0 0 50 50;" xml:space="preserve">
<g id="Layer_1">
	<g>
		<path d="M31.6,26.3c-2.9,0-5.4,1.7-6.5,4.2C24,27.8,21.3,26,18.2,26c-4.1,0-7.4,3.2-7.4,7.1s3.3,7.1,7.4,7.1c3,0,5.6-1.7,6.8-4.3
			c1.1,2.6,3.7,4.4,6.6,4.4c3.9,0,7.1-3.1,7.1-7S35.6,26.3,31.6,26.3z M36.4,33.4c0,2.6-2.1,4.6-4.8,4.6s-4.8-2.1-4.8-4.6
			s2.1-4.6,4.8-4.6S36.4,30.8,36.4,33.4z M23.1,33.1c0,2.6-2.2,4.8-4.9,4.8c-2.7,0-4.9-2.1-4.9-4.8s2.2-4.8,4.9-4.8
			C20.9,28.4,23.1,30.5,23.1,33.1z"/>
		<path d="M47,16.1c-7.2-2.7-14.3-5.4-21.5-8.1c-0.3-0.1-0.6-0.2-0.8-0.1c-2.7,1-5.5,2.1-8.4,3.2c3.4,1.5,6.6,2.9,9.9,4.4
			c-0.7,0.3-1.3,0.5-1.9,0.8c-0.6,0.3-1.2,0.4-1.9,0.1c-3-1.3-5.9-2.5-8.9-3.7c-0.3-0.1-0.7-0.2-1-0.1c-3.1,1.2-6.2,2.3-9.3,3.6
			c-0.3,0.1-0.5,0.5-0.6,0.9c-0.1,0.5,0.1,0.7,0.6,0.9c0.7,0.2,1.3,0.6,2,0.8c0.6,0.2,0.8,0.5,0.8,1.2c0,5.2,0,10.3,0,15.5v1.1
			C7,36,8,35.5,9,35.1c0.5-0.2,0.6-0.5,0.6-1c0-2,0-4.1,0-6.1v-7.5c1.5,0.6,3.8,1.4,5.3,2c-0.6,1.1-1.1,2.2-1.5,3.3
			c1.4-1,3.1-1.5,4.9-1.5c2.8,0,5.4,1.4,6.9,3.5c1.5-1.9,3.9-3.2,6.5-3.2c2,0,3.8,0.7,5.2,1.9c-0.4-1.2-0.9-2.6-1.6-3.7
			c0.1,0,0.3-0.1,0.6-0.2c3.3-1.3,7.8-3.2,11.1-4.5c0.5-0.2,0.8-0.4,0.7-1C47.7,16.5,47.5,16.3,47,16.1z"/>
		<path d="M20.3,35c-1.4,0-1.9-1.8-1-2.5c-0.3-0.1-0.7-0.2-1-0.2c-1.7,0-3.1,1.4-3.1,3c0,1.7,1.4,3,3.1,3c1.7,0,3.1-1.4,3.1-3
			c0-0.3-0.1-0.5-0.1-0.8C21.1,34.8,20.8,35,20.3,35z"/>
		<path d="M34.1,35.2c-1.4,0-1.8-1.6-1.1-2.4c-0.4-0.2-0.8-0.2-1.2-0.2c-1.7,0-3,1.3-3,3s1.3,3,3,3c1.7,0,3-1.3,3-3
			c0-0.2,0-0.3-0.1-0.5C34.6,35.1,34.4,35.2,34.1,35.2z"/>
	</g>
</g>
<g id="Layer_2">
</g>
</svg>
