<?xml version="1.0" encoding="utf-8"?>
<!-- Generator: Adobe Illustrator 22.0.1, SVG Export Plug-In . SVG Version: 6.00 Build 0)  -->
<svg version="1.1" id="Layer_1" xmlns="http://www.w3.org/2000/svg" xmlns:xlink="http://www.w3.org/1999/xlink" x="0px" y="0px"
	 viewBox="0 0 64 49.9" style="enable-background:new 0 0 64 49.9;" xml:space="preserve">
<style type="text/css">
	.st0{fill:#FFFFFF;}
</style>
<path class="st0" d="M42.5,44.7H22.5C11.9,44.7,3.2,36,3.2,25.3v-0.7c0-10.7,8.7-19.4,19.4-19.4h19.9c10.7,0,19.4,8.7,19.4,19.4v0.7
	C61.8,36,53.1,44.7,42.5,44.7z"/>
<g>
	<path d="M24.1,17.8c-1,0-1.9,0.1-2.6,0.3c-0.7,0.2-1.3,0.5-1.7,1c-0.4,0.5-0.8,1.1-0.9,1.9c-0.2,0.8-0.3,1.8-0.3,2.9v1.8
		c0,1.2,0.1,2.2,0.3,3c0.2,0.8,0.5,1.4,0.8,1.8c0.4,0.4,0.9,0.7,1.5,0.9c0.6,0.2,1.4,0.2,2.3,0.2c0.3,0,0.5,0,0.8,0
		c0.3,0,0.6,0,0.9-0.1V27h-2.5l0.4-3.4h6.2v10.6c-0.8,0.3-1.8,0.5-2.9,0.7c-1.2,0.2-2.4,0.3-3.6,0.3c-1.5,0-2.9-0.2-4-0.6
		c-1.1-0.4-2-0.9-2.7-1.7c-0.7-0.8-1.2-1.7-1.5-2.9c-0.3-1.2-0.5-2.5-0.5-4.1v-2.1c0-1.4,0.2-2.7,0.5-3.9c0.3-1.2,0.8-2.2,1.6-3
		c0.7-0.8,1.7-1.5,2.9-1.9c1.2-0.5,2.7-0.7,4.5-0.7c1,0,2,0.1,2.9,0.3c1,0.2,1.7,0.4,2.3,0.6l-0.7,3.3c-0.6-0.2-1.2-0.3-1.8-0.4
		C25.7,17.8,24.9,17.8,24.1,17.8z"/>
	<path d="M49.6,25.9c0,1.4-0.1,2.6-0.4,3.8c-0.3,1.2-0.7,2.1-1.3,3c-0.6,0.8-1.5,1.5-2.6,1.9c-1.1,0.5-2.4,0.7-4.1,0.7
		c-1.7,0-3.1-0.2-4.2-0.7c-1.1-0.5-1.9-1.1-2.6-1.9c-0.6-0.8-1.1-1.8-1.3-3c-0.2-1.2-0.4-2.4-0.4-3.8v-2.4c0-1.4,0.1-2.7,0.4-3.8
		c0.3-1.2,0.7-2.2,1.4-3c0.6-0.8,1.5-1.5,2.6-1.9c1.1-0.5,2.4-0.7,4.1-0.7c1.7,0,3.1,0.2,4.2,0.7c1.1,0.5,2,1.1,2.6,2
		c0.6,0.8,1,1.8,1.3,3c0.2,1.1,0.3,2.4,0.3,3.7V25.9z M37.2,25.9c0,1.2,0.1,2.2,0.2,3c0.2,0.8,0.4,1.3,0.7,1.8
		c0.3,0.4,0.7,0.7,1.2,0.9c0.5,0.2,1.1,0.2,1.7,0.2c0.6,0,1.2-0.1,1.7-0.2c0.5-0.2,0.9-0.4,1.3-0.9c0.3-0.4,0.6-1,0.8-1.8
		c0.2-0.8,0.3-1.7,0.3-2.9v-2.5c0-1.2-0.1-2.2-0.2-3c-0.2-0.8-0.4-1.3-0.7-1.8c-0.3-0.4-0.7-0.7-1.2-0.9c-0.5-0.2-1.1-0.2-1.7-0.2
		c-0.6,0-1.2,0.1-1.7,0.2c-0.5,0.2-0.9,0.4-1.3,0.9c-0.3,0.4-0.6,1-0.8,1.8c-0.2,0.8-0.3,1.7-0.3,2.9V25.9z"/>
</g>
</svg>
