<?xml version="1.0" encoding="utf-8"?>
<!-- Generator: Adobe Illustrator 23.0.3, SVG Export Plug-In . SVG Version: 6.00 Build 0)  -->
<svg version="1.1" id="Layer_1" xmlns="http://www.w3.org/2000/svg" xmlns:xlink="http://www.w3.org/1999/xlink" x="0px" y="0px"
	 viewBox="0 0 128 160" style="enable-background:new 0 0 128 160;" xml:space="preserve">
<style type="text/css">
	.st0{fill:#FFFFFF;}
	.st1{font-family:'Arial-BoldMT';}
	.st2{font-size:5px;}
</style>
<title>Miscellaneous 36 final</title>
<path class="st0" d="M29.2,30.7c0.6,0,1.1,0.2,1.6,0.5c2.2,1.6,5.2,1.6,7.5,0c0.9-0.7,2.2-0.7,3.2,0c2.2,1.6,5.2,1.6,7.5,0
	c0.9-0.7,2.2-0.7,3.2,0c2.2,1.6,5.2,1.6,7.5,0c0.9-0.7,2.2-0.7,3.2,0c2.3,1.6,5.2,1.6,7.5,0c0.4-0.4,1-0.6,1.6-0.5c1.1,0,2-0.9,2-2
	s-0.9-2-2-2c-1.3,0-2.7,0.4-3.7,1.2c-0.9,0.7-2.2,0.7-3.2,0c-2.3-1.6-5.2-1.6-7.5,0c-0.9,0.7-2.2,0.7-3.2,0c-2.2-1.6-5.2-1.6-7.5,0
	c-0.9,0.7-2.2,0.7-3.2,0c-2.2-1.6-5.2-1.6-7.5,0c-0.9,0.7-2.2,0.7-3.2,0c-1.1-0.8-2.4-1.2-3.7-1.2c-1.1,0-2,0.9-2,2
	S28.1,30.7,29.2,30.7L29.2,30.7z"/>
<path class="st0" d="M29.2,43.2c0.6,0,1.1,0.2,1.6,0.5c2.2,1.6,5.2,1.6,7.5,0c0.9-0.7,2.2-0.7,3.2,0c2.2,1.6,5.2,1.6,7.5,0
	c0.9-0.7,2.2-0.7,3.2,0c2.2,1.6,5.2,1.6,7.5,0c0.9-0.7,2.2-0.7,3.2,0c2.3,1.6,5.2,1.6,7.5,0c0.4-0.4,1-0.6,1.6-0.5c1.1,0,2-0.9,2-2
	s-0.9-2-2-2c-1.3,0-2.7,0.4-3.7,1.2c-0.9,0.7-2.2,0.7-3.2,0c-2.3-1.6-5.2-1.6-7.5,0c-0.9,0.7-2.2,0.7-3.2,0c-2.2-1.6-5.2-1.6-7.5,0
	c-0.9,0.7-2.2,0.7-3.2,0c-2.2-1.6-5.2-1.6-7.5,0c-0.9,0.7-2.2,0.7-3.2,0c-1.1-0.8-2.4-1.2-3.7-1.2c-1.1,0-2,0.9-2,2
	S28.1,43.2,29.2,43.2L29.2,43.2z"/>
<path class="st0" d="M29.2,55.8c0.6,0,1.1,0.2,1.6,0.5c2.2,1.6,5.2,1.6,7.5,0c0.9-0.7,2.2-0.7,3.2,0c2.2,1.6,5.2,1.6,7.5,0
	c0.9-0.7,2.2-0.7,3.2,0c2.2,1.6,5.2,1.6,7.5,0c0.9-0.7,2.2-0.7,3.2,0c2.3,1.6,5.2,1.6,7.5,0c0.4-0.4,1-0.6,1.6-0.5c1.1,0,2-0.9,2-2
	s-0.9-2-2-2c-1.3,0-2.7,0.4-3.7,1.2c-0.9,0.7-2.2,0.7-3.2,0c-2.3-1.6-5.2-1.6-7.5,0c-0.9,0.7-2.2,0.7-3.2,0c-2.2-1.6-5.2-1.6-7.5,0
	c-0.9,0.7-2.2,0.7-3.2,0c-2.2-1.6-5.2-1.6-7.5,0c-0.9,0.7-2.2,0.7-3.2,0c-1.1-0.8-2.4-1.2-3.7-1.2c-1.1,0-2,0.9-2,2
	S28.1,55.8,29.2,55.8L29.2,55.8z"/>
<path class="st0" d="M86.3,74l-6,10.9l-9.4-22.2c-0.4-1-1.6-1.5-2.6-1.1c-0.6,0.2-1,0.7-1.1,1.3l-10.7,40.2L41.8,76.5
	c-0.4-0.6-1-1-1.8-1l0,0c-0.7,0-1.4,0.4-1.8,1.1L32.8,87H21c-1.1,0-2,0.9-2,2s0.9,2,2,2h13c0.7,0,1.4-0.4,1.8-1.1l4.2-8.2l15.2,27.7
	c0.4,0.6,1,1,1.8,1h0.2c0.8-0.1,1.5-0.7,1.7-1.5l10.5-39.4l8.7,20.6c0.4,1,1.6,1.5,2.6,1.1c0.4-0.2,0.8-0.5,1-0.9L89.2,77h15.1
	c1.1,4.3,5.5,6.9,9.7,5.7c4.3-1.1,6.9-5.5,5.7-9.7s-5.5-6.9-9.7-5.7c-2.8,0.7-5,2.9-5.7,5.7H88C87.3,73,86.6,73.4,86.3,74z M112,71
	c2.2,0,4,1.8,4,4s-1.8,4-4,4s-4-1.8-4-4S109.8,71,112,71z"/>
<path class="st0" d="M36,96c-1.9,0-3.7,0.8-5,2.2l-2,2.2l-2.1-2.2c-2.6-2.7-6.9-2.9-9.6-0.3c-0.1,0.1-0.2,0.2-0.3,0.3
	c-2.7,2.9-2.7,7.3,0,10.2l10.5,11.1c0.8,0.8,2,0.8,2.8,0.1c0,0,0,0,0.1-0.1L41,108.3c2.7-2.9,2.7-7.3,0-10.2
	C39.7,96.8,37.9,96,36,96z M38.1,100.9c1.2,1.3,1.2,3.3,0,4.6l-9.1,9.6l-9.1-9.6c-1.2-1.3-1.2-3.3,0-4.6c1-1.1,2.8-1.2,4-0.2
	c0.1,0.1,0.1,0.1,0.2,0.2l3.5,3.7c0.8,0.8,2.1,0.8,2.9,0l3.6-3.7c0.5-0.6,1.2-0.9,2-0.9l0,0C36.8,100,37.5,100.3,38.1,100.9
	L38.1,100.9z"/>
<path class="st0" d="M12,128h78c2.2,0,4-1.8,4-4V81h-2.5L90,83.8V124H12V12h13.5v4c0,2.2,1.8,4,4,4h42c2.2,0,4-1.8,4-4v-4H90v57h4
	V12c0-2.2-1.8-4-4-4H75.5V4c0-2.2-1.8-4-4-4h-42c-2.2,0-4,1.8-4,4v4H12c-2.2,0-4,1.8-4,4v112C8,126.2,9.8,128,12,128z M37,4h27v4H37
	V4z M29.5,4H33v6c0,1.1,0.9,2,2,2h31c1.1,0,2-0.9,2-2V4h3.5v12h-42V4z"/>
<text transform="matrix(1 0 0 1 0 143)" class="st0 st1 st2">Created by priyanka</text>
<text transform="matrix(1 0 0 1 0 148)" class="st0 st1 st2">from the Noun Project</text>
</svg>
