<?xml version="1.0" encoding="utf-8"?>
<!-- Generator: Adobe Illustrator 22.0.1, SVG Export Plug-In . SVG Version: 6.00 Build 0)  -->
<svg version="1.1" id="Layer_1" xmlns="http://www.w3.org/2000/svg" xmlns:xlink="http://www.w3.org/1999/xlink" x="0px" y="0px"
	 viewBox="0 0 50 50" style="enable-background:new 0 0 50 50;" xml:space="preserve">
<style type="text/css">
	.st0{fill:#FFFFFF;}
</style>
<g>
	<g>
		<path class="st0" d="M15.8,22.1v5.3c0,0.5-0.6,0.9-1.3,0.9c-0.7,0-1.3-0.4-1.3-0.9v-5.3c0-0.5,0.6-0.9,1.3-0.9
			C15.2,21.2,15.8,21.6,15.8,22.1"/>
		<path class="st0" d="M32.2,20.2v9c0,0.5-0.6,0.9-1.3,0.9c-0.7,0-1.3-0.4-1.3-0.9v-9c0-0.5,0.6-0.9,1.3-0.9
			C31.6,19.3,32.2,19.7,32.2,20.2"/>
		<path class="st0" d="M21.1,18.2v13.1c0,0.5-0.6,0.9-1.3,0.9c-0.7,0-1.3-0.4-1.3-0.9V18.2c0-0.5,0.6-0.9,1.3-0.9
			C20.5,17.3,21.1,17.7,21.1,18.2"/>
		<path class="st0" d="M35.3,26.1v-2.6c0-0.5,0.6-0.9,1.3-0.9c0.7,0,1.3,0.4,1.3,0.9v2.6c0,0.5-0.6,0.9-1.3,0.9
			C35.9,27,35.3,26.6,35.3,26.1"/>
		<path class="st0" d="M24.1,33.4V16.1c0-0.5,0.6-0.9,1.3-0.9c0.7,0,1.3,0.4,1.3,0.9v17.4c0,0.5-0.6,0.9-1.3,0.9
			C24.7,34.4,24.1,34,24.1,33.4"/>
	</g>
	<path class="st0" d="M24.7,7.8c1.4,0,2.9,0.2,4.3,0.6c4.5,1.2,8.2,4,10.6,8c2.3,4,3,8.6,1.8,13.1c-1.2,4.6-4.2,8.3-8,10.6
		c-2.6,1.5-5.6,2.4-8.8,2.4c-1.4,0-2.9-0.2-4.3-0.6c-4.5-1.2-8.2-4-10.6-8c-2.3-4-3-8.6-1.8-13.1C10,13,17,7.8,24.7,7.8 M24.7,4.8v3
		V4.8L24.7,4.8c-2.2,0-4.4,0.4-6.5,1.1c-2.1,0.7-4,1.7-5.8,3.1c-1.8,1.3-3.3,3-4.5,4.8c-1.3,1.9-2.2,4-2.8,6.2
		c-1.4,5.2-0.6,10.7,2.2,15.4c2.7,4.7,7.1,8,12.4,9.3c1.7,0.4,3.4,0.6,5.1,0.6c3.6,0,7.2-1,10.3-2.8c2.3-1.3,4.2-3.1,5.8-5.1
		c1.7-2.2,2.8-4.6,3.5-7.2c1.4-5.2,0.6-10.7-2.2-15.4c-2.7-4.7-7.1-8-12.4-9.3C28.1,5,26.4,4.8,24.7,4.8L24.7,4.8z"/>
</g>
</svg>
