<?xml version="1.0" encoding="utf-8"?>
<!-- Generator: Adobe Illustrator 22.0.1, SVG Export Plug-In . SVG Version: 6.00 Build 0)  -->
<svg version="1.1" id="Layer_1" xmlns="http://www.w3.org/2000/svg" xmlns:xlink="http://www.w3.org/1999/xlink" x="0px" y="0px"
	 viewBox="0 0 50 50" style="enable-background:new 0 0 50 50;" xml:space="preserve">
<style type="text/css">
	.st0{fill:#FFFFFF;}
</style>
<path class="st0" d="M39.8,10.3C39,10,38.2,9.8,37.3,9.8c-1.9,0-3.7,0.8-4.9,2.3c-0.2,0.2-0.4,0.4-0.6,0.7c-2.9-2-6.5-3.1-10.4-2.8
	c-8.8,0.7-15.5,8.5-14.8,17.3c0.7,9,8.5,15.7,17.5,14.9c8.8-0.7,15.5-8.6,14.8-17.2c0-0.1,0-0.3,0-0.4c1.1-1.3,2.2-2.7,3.4-4
	c0.8-1,1.4-2.3,1.6-3.6C44.2,14.1,42.6,11.4,39.8,10.3z M40.8,16.6c-0.1,0.7-0.4,1.5-0.9,2.1c-1,1.1-1.9,2.3-2.9,3.4
	c-3.6,4.3-7.3,8.6-10.9,12.9c-0.2,0.2-0.4,0.4-0.6,0.5c-0.1,0.1-0.1,0.1-0.2,0.1c-0.1,0.1-0.3,0.2-0.4,0.3c-0.1,0-0.2,0.1-0.3,0.1
	c-0.1,0.1-0.3,0.1-0.4,0.1c-0.1,0-0.2,0-0.3,0.1c-0.1,0-0.3,0-0.4,0c-0.1,0-0.2,0-0.4,0c-0.1,0-0.2,0-0.3,0c-0.1,0-0.3-0.1-0.4-0.1
	c-0.1,0-0.2,0-0.3-0.1C22.1,36,22,36,21.8,35.9c-0.1,0-0.1-0.1-0.2-0.1c-0.2-0.1-0.4-0.3-0.6-0.4c-3.1-2.6-6.2-5.2-9.2-7.8
	c-1.7-1.5-1.9-3.6-0.6-5.2c0.2-0.2,0.3-0.4,0.5-0.5c0.1,0,0.1-0.1,0.2-0.1c0.1-0.1,0.3-0.2,0.4-0.2c0.1,0,0.2-0.1,0.3-0.1
	c0.1,0,0.3-0.1,0.4-0.1c0.1,0,0.2,0,0.3,0c0.1,0,0.3,0,0.4,0c0.1,0,0.3,0,0.4,0c0.1,0,0.2,0,0.3,0c0.1,0,0.3,0.1,0.4,0.1
	c0.1,0,0.2,0,0.3,0.1c0.1,0.1,0.3,0.1,0.4,0.2c0.1,0,0.2,0.1,0.2,0.1c0.2,0.1,0.4,0.3,0.6,0.4c2,1.7,4,3.4,6,5
	c0.2,0.2,0.4,0.4,0.7,0.8c0.3-0.4,0.4-0.7,0.6-0.9c3.7-4.4,7.4-8.8,11.1-13.1c0.7-0.8,1.7-1.3,2.7-1.3c0.4,0,0.9,0.1,1.3,0.3
	C40.1,13.6,41,15,40.8,16.6z"/>
</svg>
