<svg width="24" height="24" xmlns="http://www.w3.org/2000/svg">

 <g>
  <title>background</title>
  <rect fill="none" id="canvas_background" height="402" width="582" y="-1" x="-1"/>
 </g>
 <g>
  <title>Layer 1</title>
  <path fill="#ffffff" id="svg_1" d="m13.473,9.196c-0.424999,-0.439 -0.401,-1.127 0.035001,-1.552l4.460999,-4.326c0.218,-0.211 0.497999,-0.318 0.775,-0.318c0.282,0 0.563,0.11 0.776001,0.331l-6.047001,5.865zm-7.334,11.020999c-0.092,0.089001 -0.139,0.208 -0.139,0.327002c0,0.25 0.204,0.455999 0.456,0.455999c0.114,0 0.229,-0.042 0.317,-0.128l0.749,-0.729l-0.633,-0.653999l-0.75,0.727999zm6.33,-8.424999l-2.564,2.485001c-1.377999,1.335999 -2.081,2.629999 -2.73,4.437l1.132,1.168999c1.825,-0.592999 3.139999,-1.254999 4.518,-2.591l2.563,-2.486l-2.919,-3.014zm7.476999,-7.659l-6.603999,6.405l3.325999,3.434l6.604,-6.403c0.485001,-0.469 0.728001,-1.093 0.728001,-1.718c0,-2.088 -2.530001,-3.196 -4.054001,-1.718zm-19.945999,16.867l4,0l0,-1l-4,0l0,1z"/>
 </g>
</svg>