mtllib Cowbell.mtl
usemtl phong1SG
# Blender v2.78 (sub 0) OBJ File: ''
# www.blender.org
o Cowbell_Q
v 0.000000 -0.061000 -0.001000
v 0.000000 0.016790 -0.001000
v 0.000878 0.016790 -0.000636
v 0.000878 -0.061000 -0.000636
v 0.001242 0.016790 0.000242
v 0.001242 -0.061000 0.000242
v 0.000878 0.016790 0.001120
v 0.000878 -0.061000 0.001120
v 0.000000 0.016790 0.001484
v 0.000000 -0.061000 0.001484
v -0.000878 0.016790 0.001120
v -0.000878 -0.061000 0.001120
v -0.001242 0.016790 0.000242
v -0.001242 -0.061000 0.000242
v -0.000878 0.016790 -0.000636
v -0.000878 -0.061000 -0.000636
v 0.000000 -0.064115 -0.008039
v 0.000000 -0.055100 -0.008039
v 0.005855 -0.055100 -0.005613
v 0.005855 -0.064115 -0.005613
v 0.008281 -0.055100 0.000242
v 0.008281 -0.064115 0.000242
v 0.005855 -0.055100 0.006097
v 0.005855 -0.064115 0.006097
v 0.000000 -0.055100 0.008523
v 0.000000 -0.064115 0.008523
v -0.005855 -0.055100 0.006097
v -0.005855 -0.064115 0.006097
v -0.008281 -0.055100 0.000242
v -0.008281 -0.064115 0.000242
v -0.005855 -0.055100 -0.005613
v -0.005855 -0.064115 -0.005613
v -0.019129 0.093921 -0.004229
v -0.019129 0.093921 0.004713
v 0.019129 0.093921 0.004713
v 0.019129 0.093921 -0.004229
v -0.023786 0.057520 0.004713
v -0.023786 0.087743 0.004713
v -0.023786 0.087743 -0.004229
v -0.023786 0.057520 -0.004229
v 0.023786 0.057520 -0.004229
v 0.023786 0.087743 -0.004229
v 0.023786 0.087743 0.004713
v 0.023786 0.057520 0.004713
v -0.020911 0.093451 -0.004229
v -0.020911 0.093451 0.004713
v -0.022422 0.092112 -0.004229
v -0.022422 0.092112 0.004713
v -0.023432 0.090107 -0.004229
v -0.023432 0.090107 0.004713
v 0.020911 0.093451 0.004713
v 0.020911 0.093451 -0.004229
v 0.022422 0.092112 0.004713
v 0.022422 0.092112 -0.004229
v 0.023432 0.090107 0.004713
v 0.023432 0.090107 -0.004229
v -0.022436 0.057520 0.004713
v -0.022436 0.057520 -0.004229
v -0.022436 0.086018 -0.004229
v -0.022436 0.086018 0.004713
v 0.022436 0.086018 0.004713
v 0.022436 0.086018 -0.004229
v 0.022436 0.057520 -0.004229
v 0.022436 0.057520 0.004713
v 0.017779 0.092196 0.004713
v 0.017779 0.092196 -0.004229
v 0.019561 0.091726 -0.004229
v 0.019561 0.091726 0.004713
v 0.021072 0.090386 -0.004229
v 0.021072 0.090386 0.004713
v 0.022082 0.088382 -0.004229
v 0.022082 0.088382 0.004713
v -0.022082 0.088382 -0.004229
v -0.022082 0.088382 0.004713
v -0.021072 0.090386 -0.004229
v -0.021072 0.090386 0.004713
v -0.019561 0.091726 -0.004229
v -0.019561 0.091726 0.004713
v -0.017779 0.092196 -0.004229
v -0.017779 0.092196 0.004713
v -0.022876 0.070337 -0.005551
v -0.022876 0.070337 0.006035
v 0.022876 0.070337 0.006035
v 0.022876 0.070337 -0.005551
v 0.045049 -0.070311 0.026734
v 0.022961 0.064129 0.012914
v -0.022961 0.064129 0.012914
v -0.045049 -0.070311 0.026734
v -0.045049 -0.070311 -0.026250
v -0.022961 0.064129 -0.012430
v 0.022961 0.064129 -0.012430
v 0.045049 -0.070311 -0.026250
v -0.052225 -0.070311 0.019601
v -0.030129 0.064178 0.005777
v -0.030129 0.064178 -0.005293
v -0.052225 -0.070311 -0.019117
v 0.052225 -0.070311 -0.019117
v 0.030129 0.064178 -0.005293
v 0.030129 0.064178 0.005777
v 0.052225 -0.070311 0.019601
v 0.027777 0.068543 0.005774
v 0.026711 0.067724 0.009719
v 0.027837 0.064154 0.010638
v 0.022709 0.068508 0.010821
v -0.027777 0.068543 0.005774
v -0.026711 0.067724 0.009719
v -0.022709 0.068508 0.010821
v -0.027837 0.064154 0.010638
v 0.027777 0.068543 -0.005290
v 0.026711 0.067724 -0.009235
v 0.022709 0.068508 -0.010337
v 0.027837 0.064154 -0.010154
v -0.022709 0.068508 -0.010337
v -0.026711 0.067724 -0.009235
v -0.027777 0.068543 -0.005290
v -0.027837 0.064154 -0.010154
v 0.050123 -0.070311 0.024645
v -0.050123 -0.070311 0.024645
v -0.050123 -0.070311 -0.024161
v 0.050123 -0.070311 -0.024161
v 0.041971 -0.070311 -0.023173
v -0.041971 -0.070311 -0.023173
v -0.041971 -0.070311 0.023657
v 0.041971 -0.070311 0.023657
v 0.049147 -0.070311 0.016524
v 0.049147 -0.070311 -0.016040
v -0.049147 -0.070311 -0.016040
v -0.049147 -0.070311 0.016524
v -0.047046 -0.070311 0.021568
v 0.047046 -0.070311 0.021568
v -0.047046 -0.070311 -0.021084
v 0.047046 -0.070311 -0.021084
v -0.028210 0.054055 -0.002599
v -0.028210 0.054055 0.003083
v 0.028210 0.054055 0.003083
v 0.028210 0.054055 -0.002599
v 0.021034 0.054055 -0.009732
v -0.021034 0.054055 -0.009732
v 0.026108 0.054055 -0.007643
v -0.026108 0.054055 -0.007643
v -0.026108 0.054055 0.008127
v -0.021034 0.054055 0.010216
v 0.026108 0.054055 0.008127
v 0.021034 0.054055 0.010216
vt 0.7321 0.9921
vt 0.9904 0.9889
vt 0.9904 0.9921
vt 0.7321 0.9858
vt 0.9904 0.9858
vt 0.9904 0.9826
vt 0.7321 0.9826
vt 0.9904 0.9795
vt 0.7321 0.9795
vt 0.9904 0.9763
vt 0.7321 0.9763
vt 0.9904 0.9731
vt 0.7321 0.9731
vt 0.9904 0.9700
vt 0.7321 0.9700
vt 0.9904 0.9668
vt 0.7321 0.9889
vt 0.7321 0.9668
vt 0.1735 0.5580
vt 0.1524 0.5281
vt 0.1735 0.5281
vt 0.1524 0.5580
vt 0.1314 0.5281
vt 0.1103 0.5580
vt 0.1103 0.5281
vt 0.0893 0.5281
vt 0.0682 0.5580
vt 0.0682 0.5281
vt 0.0472 0.5580
vt 0.0472 0.5281
vt 0.0261 0.5281
vt 0.0051 0.5580
vt 0.0051 0.5281
vt 0.1314 0.5580
vt 0.0893 0.5580
vt 0.0261 0.5580
vt 0.9413 0.9205
vt 0.9562 0.9056
vt 0.9921 0.9205
vt 0.9921 0.9415
vt 0.9773 0.9564
vt 0.9562 0.9564
vt 0.9413 0.9415
vt 0.9773 0.9056
vt 0.9773 0.0559
vt 0.9413 0.0410
vt 0.9562 0.0051
vt 0.9773 0.0051
vt 0.9921 0.0200
vt 0.9921 0.0410
vt 0.9562 0.0559
vt 0.9413 0.0200
vt 0.8645 0.5144
vt 0.7411 0.4847
vt 0.8645 0.4847
vt 0.9908 0.5144
vt 0.8927 0.4847
vt 0.9908 0.4847
vt 0.7129 0.4847
vt 0.6148 0.5144
vt 0.6148 0.4847
vt 0.8706 0.5144
vt 0.8706 0.4847
vt 0.8773 0.5144
vt 0.8773 0.4847
vt 0.8848 0.5144
vt 0.8848 0.4847
vt 0.8927 0.5144
vt 0.7411 0.5144
vt 0.7350 0.4847
vt 0.7350 0.5144
vt 0.7283 0.4847
vt 0.7283 0.5144
vt 0.7208 0.4847
vt 0.7208 0.5144
vt 0.7129 0.5144
vt 0.9908 0.5212
vt 0.8927 0.5509
vt 0.8927 0.5212
vt 0.7129 0.5509
vt 0.6148 0.5212
vt 0.7129 0.5212
vt 0.7411 0.5509
vt 0.7350 0.5212
vt 0.7411 0.5212
vt 0.7350 0.5509
vt 0.7283 0.5212
vt 0.7283 0.5509
vt 0.7208 0.5212
vt 0.7208 0.5509
vt 0.8848 0.5212
vt 0.8848 0.5509
vt 0.8773 0.5212
vt 0.8773 0.5509
vt 0.8706 0.5212
vt 0.8706 0.5509
vt 0.8645 0.5212
vt 0.8645 0.5509
vt 0.9908 0.5509
vt 0.6148 0.5509
vt 0.6148 0.5577
vt 0.7129 0.5577
vt 0.7208 0.5577
vt 0.7283 0.5577
vt 0.7350 0.5577
vt 0.7411 0.5577
vt 0.8645 0.5577
vt 0.8706 0.5577
vt 0.8773 0.5577
vt 0.8848 0.5577
vt 0.8927 0.5577
vt 0.9908 0.5577
vt 0.7387 0.6000
vt 0.8894 0.6372
vt 0.7386 0.6371
vt 0.1504 0.0051
vt 0.3939 0.4600
vt 0.1504 0.4600
vt 0.5574 0.0051
vt 0.8008 0.4600
vt 0.5574 0.4600
vt 0.4301 0.0051
vt 0.5212 0.4600
vt 0.4301 0.4600
vt 0.0231 0.0051
vt 0.1143 0.4600
vt 0.0231 0.4600
vt 0.9214 0.5983
vt 0.9023 0.5875
vt 0.9113 0.5792
vt 0.8894 0.6000
vt 0.9057 0.6005
vt 0.8922 0.5689
vt 0.8892 0.5841
vt 0.7257 0.5875
vt 0.7389 0.5841
vt 0.7066 0.5982
vt 0.7223 0.6004
vt 0.7358 0.5689
vt 0.7167 0.5791
vt 0.9023 0.6496
vt 0.8892 0.6531
vt 0.9214 0.6389
vt 0.9057 0.6367
vt 0.8922 0.6682
vt 0.9113 0.6580
vt 0.7257 0.6496
vt 0.7223 0.6366
vt 0.7358 0.6682
vt 0.7388 0.6530
vt 0.7066 0.6388
vt 0.7167 0.6580
vt 0.1323 0.0051
vt 0.1323 0.4600
vt 0.4120 0.0051
vt 0.3939 0.0051
vt 0.5393 0.0051
vt 0.5212 0.0051
vt 0.0051 0.0051
vt 0.8189 0.0051
vt 0.8008 0.0051
vt 0.1143 0.0051
vt 0.4120 0.4600
vt 0.5393 0.4600
vt 0.0051 0.4600
vt 0.8189 0.4600
vt 0.5574 0.4744
vt 0.8008 0.4744
vt 0.1504 0.4744
vt 0.3939 0.4744
vt 0.1143 0.4744
vt 0.4301 0.4744
vt 0.5212 0.4744
vt 0.4120 0.4744
vt 0.1323 0.4744
vt 0.5393 0.4744
vt 0.0051 0.4744
vt 0.8189 0.4744
vt 0.0231 0.4744
vt 0.4322 0.5689
vt 0.3687 0.9900
vt 0.3687 0.5689
vt 0.0867 0.5689
vt 0.0232 0.9900
vt 0.0232 0.5689
vt 0.6778 0.5689
vt 0.4686 0.9900
vt 0.4686 0.5689
vt 0.0051 0.9900
vt 0.0051 0.5689
vt 0.6960 0.9900
vt 0.6960 0.5689
vt 0.4503 0.9900
vt 0.4322 0.9900
vt 0.3505 0.9900
vt 0.3505 0.5689
vt 0.3323 0.5689
vt 0.1049 0.9900
vt 0.0867 0.9900
vt 0.1231 0.5689
vt 0.1231 0.9900
vt 0.6778 0.9900
vt 0.4503 0.5689
vt 0.3323 0.9900
vt 0.1049 0.5689
vn 0.0000 0.0000 -1.0000
vn 0.7071 0.0000 -0.7071
vn 1.0000 0.0000 0.0000
vn 0.7071 -0.0000 0.7071
vn 0.0000 -0.0000 1.0000
vn -0.7071 -0.0000 0.7071
vn -1.0000 0.0000 0.0000
vn -0.7071 0.0000 -0.7071
vn -0.0000 0.6256 -0.7801
vn 0.5506 -0.6274 -0.5506
vn 0.0000 -0.6303 -0.7764
vn 0.5507 0.6274 -0.5506
vn 0.7801 -0.6256 0.0000
vn 0.5516 0.6257 0.5516
vn 0.5492 -0.6303 0.5488
vn -0.0000 -0.6256 0.7801
vn -0.5507 0.6274 0.5506
vn -0.5504 -0.6274 0.5508
vn -0.7801 0.6256 0.0000
vn -0.7764 -0.6303 -0.0000
vn -0.5517 -0.6257 -0.5516
vn 0.7764 0.6303 -0.0000
vn 0.0000 0.6303 0.7764
vn -0.5489 0.6303 -0.5490
vn -0.5490 0.6303 0.5490
vn 0.0000 0.6302 0.7764
vn 0.5490 0.6303 -0.5490
vn -0.0000 0.6303 -0.7764
vn -0.5490 0.6303 -0.5490
vn -0.7764 0.6303 -0.0000
vn 0.5490 0.6302 0.5490
vn 0.5490 -0.6303 0.5490
vn -0.5490 -0.6303 0.5490
vn -0.5490 -0.6303 -0.5490
vn 0.5490 -0.6303 -0.5490
vn 0.7764 -0.6302 -0.0000
vn -0.0000 -0.6303 0.7764
vn -0.7764 -0.6302 0.0000
vn -0.0937 0.7248 0.6825
vn 0.0940 0.7248 -0.6825
vn -0.0952 0.7323 -0.6743
vn -0.7193 0.0535 -0.6926
vn -0.7071 0.0002 -0.7071
vn 0.7217 0.0537 -0.6902
vn 0.7071 0.0002 0.7071
vn -0.3587 0.6700 0.6499
vn -0.3588 0.6696 -0.6503
vn -0.5951 0.4583 0.6602
vn -0.5948 0.4581 -0.6605
vn -0.7095 0.2255 0.6676
vn -0.7094 0.2255 -0.6678
vn -0.7236 0.0538 0.6882
vn 0.0952 0.7323 0.6743
vn 0.3585 0.6701 -0.6499
vn 0.3587 0.6697 0.6503
vn 0.5951 0.4583 -0.6602
vn 0.5950 0.4578 0.6605
vn 0.7095 0.2255 -0.6676
vn 0.7093 0.2256 0.6678
vn 0.7211 0.0537 0.6908
vn 0.6869 -0.0512 -0.7249
vn 0.6876 -0.0512 0.7243
vn -0.6896 -0.0514 -0.7223
vn -0.6847 -0.0510 0.7271
vn -0.0861 -0.6639 -0.7429
vn -0.2989 -0.5584 0.7738
vn -0.0874 -0.6740 0.7336
vn -0.2991 -0.5589 -0.7734
vn -0.5147 -0.3964 0.7602
vn -0.5150 -0.3968 -0.7598
vn -0.6294 -0.1999 0.7509
vn -0.6296 -0.2001 -0.7507
vn 0.6296 -0.2001 0.7507
vn 0.6294 -0.2000 -0.7509
vn 0.5151 -0.3967 0.7598
vn 0.5147 -0.3964 -0.7602
vn 0.2991 -0.5589 0.7734
vn 0.2989 -0.5584 -0.7738
vn 0.0861 -0.6639 0.7429
vn 0.0874 -0.6740 -0.7336
vn -0.7071 0.0002 0.7071
vn -0.7211 0.0537 0.6907
vn 0.6363 -0.2021 0.7445
vn -0.7048 0.2240 0.6731
vn 0.5222 -0.4022 0.7521
vn -0.5904 0.4545 0.6670
vn 0.3050 -0.5697 0.7631
vn -0.3552 0.6635 0.6585
vn -0.0944 0.7278 0.6793
vn 0.0869 -0.6700 0.7372
vn 0.0944 0.7278 0.6793
vn -0.3050 -0.5697 0.7631
vn 0.3552 0.6635 0.6585
vn 0.5904 0.4545 0.6670
vn -0.5222 -0.4022 0.7521
vn 0.7048 0.2240 0.6731
vn -0.6363 -0.2021 0.7445
vn 0.7211 0.0537 0.6907
vn -0.6876 -0.0512 0.7243
vn -0.0869 -0.6700 0.7372
vn 0.7071 0.0002 -0.7071
vn -0.6876 -0.0512 -0.7243
vn 0.7211 0.0537 -0.6907
vn -0.6363 -0.2021 -0.7445
vn 0.7048 0.2240 -0.6731
vn -0.5222 -0.4022 -0.7521
vn 0.5904 0.4545 -0.6670
vn -0.3050 -0.5697 -0.7631
vn 0.3552 0.6635 -0.6585
vn 0.0944 0.7278 -0.6793
vn -0.0869 -0.6700 -0.7372
vn -0.0944 0.7278 -0.6793
vn 0.3050 -0.5697 -0.7631
vn -0.3552 0.6635 -0.6585
vn -0.5904 0.4545 -0.6670
vn 0.5222 -0.4022 -0.7521
vn -0.7048 0.2240 -0.6731
vn 0.6363 -0.2021 -0.7445
vn -0.7211 0.0537 -0.6907
vn 0.6876 -0.0512 -0.7243
vn 0.0869 -0.6700 -0.7372
vn -0.1660 0.9709 0.1725
vn 0.1660 0.9709 -0.1725
vn -0.1660 0.9709 -0.1725
vn 0.1879 0.2720 0.9438
vn -0.1696 -0.6022 0.7801
vn 0.1692 -0.6049 0.7781
vn -0.1879 0.2720 -0.9438
vn 0.1696 -0.6022 -0.7801
vn -0.1692 -0.6049 -0.7781
vn -0.9302 0.3136 0.1906
vn -0.7974 -0.5795 -0.1682
vn -0.7928 -0.5861 0.1672
vn 0.9302 0.3136 -0.1906
vn 0.7974 -0.5795 0.1682
vn 0.7928 -0.5861 -0.1672
vn 0.9302 0.3136 0.1906
vn 0.5461 0.6240 0.5589
vn 0.6761 0.2761 0.6831
vn 0.1660 0.9709 0.1725
vn 0.6537 0.7410 0.1533
vn 0.1497 0.7236 0.6738
vn -0.5461 0.6240 0.5589
vn -0.1497 0.7236 0.6738
vn -0.6537 0.7410 0.1533
vn -0.1879 0.2720 0.9438
vn -0.6761 0.2761 0.6831
vn 0.5461 0.6240 -0.5589
vn 0.1497 0.7236 -0.6738
vn 0.6537 0.7410 -0.1533
vn 0.1879 0.2720 -0.9438
vn 0.6761 0.2761 -0.6831
vn -0.5461 0.6240 -0.5589
vn -0.6537 0.7410 -0.1533
vn -0.1497 0.7236 -0.6738
vn -0.9302 0.3136 -0.1906
vn -0.6761 0.2761 -0.6831
vn 0.5934 -0.5534 0.5845
vn -0.5934 -0.5534 0.5845
vn -0.5934 -0.5534 -0.5845
vn 0.5934 -0.5534 -0.5845
vn 0.1274 -0.7968 0.5907
vn 0.1753 -0.6153 -0.7685
vn -0.1274 -0.7968 0.5907
vn -0.1274 -0.7968 -0.5907
vn -0.1753 -0.6153 0.7685
vn 0.1274 -0.7968 -0.5907
vn -0.5740 -0.8100 -0.1199
vn 0.7828 -0.5977 -0.1730
vn 0.7828 -0.5977 0.1730
vn 0.5740 -0.8100 -0.1199
vn -0.7828 -0.5977 -0.1730
vn 0.5740 -0.8100 0.1199
vn -0.7828 -0.5977 0.1730
vn 0.3712 -0.8536 -0.3656
vn -0.5925 -0.5543 0.5845
vn -0.3712 -0.8536 -0.3656
vn 0.1753 -0.6153 0.7685
vn -0.1753 -0.6153 -0.7685
vn 0.3712 -0.8536 0.3656
vn -0.5925 -0.5543 -0.5845
vn -0.3712 -0.8536 0.3656
vn 0.5925 -0.5543 -0.5845
vn -0.5740 -0.8100 0.1199
vn 0.5925 -0.5543 0.5845
vn 0.5536 -0.8247 0.1156
vn 0.9659 -0.1825 -0.1839
vn 0.5612 -0.8193 -0.1172
vn -0.5536 -0.8247 -0.1156
vn -0.9659 -0.1825 0.1839
vn -0.5612 -0.8193 0.1172
vn -0.1240 -0.8089 0.5747
vn 0.1748 -0.1348 0.9753
vn 0.1246 -0.8066 0.5778
vn -0.6848 -0.1913 0.7031
vn -0.3711 -0.8536 0.3656
vn 0.6848 -0.1913 0.7031
vn 0.9659 -0.1825 0.1839
vn 0.6848 -0.1913 -0.7031
vn 0.3711 -0.8536 -0.3656
vn 0.1240 -0.8089 -0.5747
vn -0.6848 -0.1913 -0.7031
vn -0.9659 -0.1825 -0.1839
vn -0.1246 -0.8066 -0.5778
vn -0.1748 -0.1348 -0.9753
vn -0.1748 -0.1348 0.9753
vn 0.3711 -0.8536 0.3656
vn 0.1748 -0.1348 -0.9753
vn -0.3711 -0.8536 -0.3656
s 1
f 2/1/1 4/2/2 1/3/1
f 4/2/2 5/4/3 6/5/3
f 5/4/3 8/6/4 6/5/3
f 7/7/4 10/8/5 8/6/4
f 9/9/5 12/10/6 10/8/5
f 11/11/6 14/12/7 12/10/6
f 13/13/7 16/14/8 14/12/7
f 15/15/8 1/16/1 16/14/8
f 2/1/1 3/17/2 4/2/2
f 4/2/2 3/17/2 5/4/3
f 5/4/3 7/7/4 8/6/4
f 7/7/4 9/9/5 10/8/5
f 9/9/5 11/11/6 12/10/6
f 11/11/6 13/13/7 14/12/7
f 13/13/7 15/15/8 16/14/8
f 15/15/8 2/18/1 1/16/1
s 2
f 18/19/9 20/20/10 17/21/11
f 19/22/12 22/23/13 20/20/10
f 22/23/13 23/24/14 24/25/15
f 23/24/14 26/26/16 24/25/15
f 26/26/16 27/27/17 28/28/18
f 28/28/18 29/29/19 30/30/20
f 29/29/19 32/31/21 30/30/20
f 32/31/21 18/32/9 17/33/11
f 18/19/9 19/22/12 20/20/10
f 19/22/12 21/34/22 22/23/13
f 22/23/13 21/34/22 23/24/14
f 23/24/14 25/35/23 26/26/16
f 26/26/16 25/35/23 27/27/17
f 28/28/18 27/27/17 29/29/19
f 29/29/19 31/36/24 32/31/21
f 32/31/21 31/36/24 18/32/9
s 3
f 27/37/25 25/38/26 21/39/22
f 21/39/22 19/40/27 18/41/28
f 18/41/28 31/42/29 21/39/22
f 29/43/30 27/37/25 21/39/22
f 25/38/26 23/44/31 21/39/22
f 21/39/22 31/42/29 29/43/30
s 4
f 24/45/32 28/46/33 32/47/34
f 32/47/34 17/48/11 20/49/35
f 20/49/35 22/50/36 24/45/32
f 24/45/32 26/51/37 28/46/33
f 28/46/33 30/52/38 32/47/34
f 32/47/34 20/49/35 24/45/32
s 5
f 34/53/39 36/54/40 33/55/41
f 37/56/6 39/57/42 40/58/43
f 42/59/44 44/60/45 41/61/2
f 33/55/41 46/62/46 34/53/39
f 45/63/47 48/64/48 46/62/46
f 47/65/49 50/66/50 48/64/48
f 49/67/51 38/68/52 50/66/50
f 35/69/53 52/70/54 36/54/40
f 51/71/55 54/72/56 52/70/54
f 53/73/57 56/74/58 54/72/56
f 55/75/59 42/59/44 56/74/58
f 34/53/39 35/69/53 36/54/40
f 37/56/6 38/68/52 39/57/42
f 42/59/44 43/76/60 44/60/45
f 33/55/41 45/63/47 46/62/46
f 45/63/47 47/65/49 48/64/48
f 47/65/49 49/67/51 50/66/50
f 49/67/51 39/57/42 38/68/52
f 35/69/53 51/71/55 52/70/54
f 51/71/55 53/73/57 54/72/56
f 53/73/57 55/75/59 56/74/58
f 55/75/59 43/76/60 42/59/44
s 6
f 57/77/45 59/78/61 60/79/62
f 62/80/63 64/81/6 61/82/64
f 66/83/65 68/84/66 65/85/67
f 67/86/68 70/87/69 68/84/66
f 69/88/70 72/89/71 70/87/69
f 71/90/72 61/82/64 72/89/71
f 59/78/61 74/91/73 60/79/62
f 73/92/74 76/93/75 74/91/73
f 75/94/76 78/95/77 76/93/75
f 77/96/78 80/97/79 78/95/77
f 79/98/80 65/85/67 80/97/79
f 57/77/45 58/99/2 59/78/61
f 62/80/63 63/100/43 64/81/6
f 66/83/65 67/86/68 68/84/66
f 67/86/68 69/88/70 70/87/69
f 69/88/70 71/90/72 72/89/71
f 71/90/72 62/80/63 61/82/64
f 59/78/61 73/92/74 74/91/73
f 73/92/74 75/94/76 76/93/75
f 75/94/76 77/96/78 78/95/77
f 77/96/78 79/98/80 80/97/79
f 79/98/80 66/83/65 65/85/67
s 7
f 37/56/81 60/79/62 38/68/82
f 38/68/82 74/91/83 50/66/84
f 50/66/84 76/93/85 48/64/86
f 48/64/86 78/95/87 46/62/88
f 78/95/87 34/53/89 46/62/88
f 80/97/90 35/69/91 34/53/89
f 35/69/91 68/84/92 51/71/93
f 68/84/92 53/73/94 51/71/93
f 70/87/95 55/75/96 53/73/94
f 72/89/97 43/76/98 55/75/96
f 61/82/99 44/60/4 43/76/98
f 37/56/81 57/77/4 60/79/62
f 38/68/82 60/79/62 74/91/83
f 50/66/84 74/91/83 76/93/85
f 48/64/86 76/93/85 78/95/87
f 78/95/87 80/97/90 34/53/89
f 80/97/90 65/85/100 35/69/91
f 35/69/91 65/85/100 68/84/92
f 68/84/92 70/87/95 53/73/94
f 70/87/95 72/89/97 55/75/96
f 72/89/97 61/82/99 43/76/98
f 61/82/99 64/81/81 44/60/4
s 8
f 41/101/101 62/80/102 42/102/103
f 42/102/103 71/90/104 56/103/105
f 56/103/105 69/88/106 54/104/107
f 54/104/107 67/86/108 52/105/109
f 67/86/108 36/106/110 52/105/109
f 66/83/111 33/107/112 36/106/110
f 33/107/112 77/96/113 45/108/114
f 77/96/113 47/109/115 45/108/114
f 75/94/116 49/110/117 47/109/115
f 73/92/118 39/111/119 49/110/117
f 59/78/120 40/112/8 39/111/119
f 41/101/101 63/100/8 62/80/102
f 42/102/103 62/80/102 71/90/104
f 56/103/105 71/90/104 69/88/106
f 54/104/107 69/88/106 67/86/108
f 67/86/108 66/83/111 36/106/110
f 66/83/111 79/98/121 33/107/112
f 33/107/112 79/98/121 77/96/113
f 77/96/113 75/94/116 47/109/115
f 75/94/116 73/92/118 49/110/117
f 73/92/118 59/78/120 39/111/119
f 59/78/120 58/99/101 40/112/8
s 9
f 82/113/122 84/114/123 81/115/124
f 86/116/125 88/117/126 85/118/127
f 90/119/128 92/120/129 89/121/130
f 94/122/131 96/123/132 93/124/133
f 98/125/134 100/126/135 97/127/136
f 99/128/137 102/129/138 103/130/139
f 83/131/140 102/129/138 101/132/141
f 86/133/125 102/129/138 104/134/142
f 82/113/122 106/135/143 107/136/144
f 94/137/131 106/135/143 105/138/145
f 87/139/146 106/135/143 108/140/147
f 84/114/123 110/141/148 111/142/149
f 98/143/134 110/141/148 109/144/150
f 91/145/151 110/141/148 112/146/152
f 81/115/124 114/147/153 115/148/154
f 90/149/128 114/147/153 113/150/155
f 95/151/156 114/147/153 116/152/157
f 100/126/135 103/153/139 117/154/158
f 103/153/139 85/118/127 117/154/158
f 82/113/122 104/134/142 83/131/140
f 107/136/144 86/133/125 104/134/142
f 93/124/133 108/155/147 94/122/131
f 108/155/147 88/117/126 87/156/146
f 81/115/124 105/138/145 82/113/122
f 115/148/154 94/137/131 105/138/145
f 89/121/130 116/157/157 90/119/128
f 116/157/157 96/123/132 95/158/156
f 84/114/123 113/150/155 81/115/124
f 111/142/149 90/149/128 113/150/155
f 97/127/136 112/159/152 98/125/134
f 112/160/152 92/120/129 91/161/151
f 84/114/123 101/132/141 109/144/150
f 109/144/150 99/128/137 98/143/134
f 82/113/122 83/131/140 84/114/123
f 86/116/125 87/156/146 88/117/126
f 90/119/128 91/161/151 92/120/129
f 94/122/131 95/158/156 96/123/132
f 98/125/134 99/162/137 100/126/135
f 99/128/137 101/132/141 102/129/138
f 83/131/140 104/134/142 102/129/138
f 86/133/125 103/130/139 102/129/138
f 82/113/122 105/138/145 106/135/143
f 94/137/131 108/140/147 106/135/143
f 87/139/146 107/136/144 106/135/143
f 84/114/123 109/144/150 110/141/148
f 98/143/134 112/146/152 110/141/148
f 91/145/151 111/142/149 110/141/148
f 81/115/124 113/150/155 114/147/153
f 90/149/128 116/152/157 114/147/153
f 95/151/156 115/148/154 114/147/153
f 100/126/135 99/162/137 103/153/139
f 103/153/139 86/116/125 85/118/127
f 82/113/122 107/136/144 104/134/142
f 107/136/144 87/139/146 86/133/125
f 93/124/133 118/163/159 108/155/147
f 108/155/147 118/163/159 88/117/126
f 81/115/124 115/148/154 105/138/145
f 115/148/154 95/151/156 94/137/131
f 89/121/130 119/164/160 116/157/157
f 116/157/157 119/164/160 96/123/132
f 84/114/123 111/142/149 113/150/155
f 111/142/149 91/145/151 90/149/128
f 97/127/136 120/165/161 112/159/152
f 112/160/152 120/166/161 92/120/129
f 84/114/123 83/131/140 101/132/141
f 109/144/150 101/132/141 99/128/137
s 10
f 122/167/162 92/120/163 121/168/164
f 124/169/165 88/117/166 123/170/167
f 125/171/168 97/127/169 100/126/170
f 128/172/171 96/123/172 127/173/173
f 93/124/174 129/174/175 118/163/176
f 129/174/175 88/117/166 118/163/176
f 100/126/170 130/175/177 125/171/168
f 130/175/177 85/118/178 124/169/165
f 89/121/179 131/176/180 119/164/181
f 131/176/180 96/123/172 119/164/181
f 97/127/169 132/177/182 120/165/183
f 132/178/182 92/120/163 120/166/183
f 122/167/162 89/121/179 92/120/163
f 124/169/165 85/118/178 88/117/166
f 125/171/168 126/179/184 97/127/169
f 128/172/171 93/124/174 96/123/172
f 93/124/174 128/172/171 129/174/175
f 129/174/175 123/170/167 88/117/166
f 100/126/170 117/154/185 130/175/177
f 130/175/177 117/154/185 85/118/178
f 89/121/179 122/167/162 131/176/180
f 131/176/180 127/173/173 96/123/172
f 97/127/169 126/179/184 132/177/182
f 132/178/182 121/168/164 92/120/163
s 11
f 127/180/186 134/181/187 128/182/188
f 125/183/189 136/184/190 126/185/191
f 121/186/192 138/187/193 122/188/194
f 126/185/191 139/189/195 132/190/196
f 139/191/195 121/186/192 132/192/196
f 127/180/186 140/193/197 133/194/198
f 140/193/197 122/188/194 138/187/193
f 128/182/188 141/195/199 129/196/200
f 141/195/199 123/197/201 129/196/200
f 125/183/189 143/198/202 135/199/203
f 143/198/202 124/200/204 144/201/205
f 123/197/201 144/201/205 124/200/204
f 127/180/186 133/194/198 134/181/187
f 125/183/189 135/199/203 136/184/190
f 121/186/192 137/202/206 138/187/193
f 126/185/191 136/184/190 139/189/195
f 139/191/195 137/202/206 121/186/192
f 127/180/186 131/203/207 140/193/197
f 140/193/197 131/203/207 122/188/194
f 128/182/188 134/181/187 141/195/199
f 141/195/199 142/204/208 123/197/201
f 125/183/189 130/205/209 143/198/202
f 143/198/202 130/205/209 124/200/204
f 123/197/201 142/204/208 144/201/205
