<svg width="17.433mm" height="19.553mm" version="1.1" viewBox="0 0 17.433 19.553" xmlns="http://www.w3.org/2000/svg">
 <g transform="translate(-85.771 -102.05)">
  <g transform="matrix(.26458 0 0 .26458 81.232 98.58)">
   <path d="m82.2 69.1c-5.7-6-7-14.6-8.2-23-1.7-12-3.6-25.5-21-26.8v-0.4-2.8c0-1.7-1.3-3-3-3s-3 1.3-3 3v3.2c-17.3 1.4-19.2 14.9-20.9 26.8-1.2 8.4-2.4 17-8.1 23-0.8 0.9-1.1 2.1-0.6 3.3 0.5 1.1 1.6 1.8 2.8 1.8h17.9c0 0.2-0.1 0.5-0.1 0.8 0 6.6 5.4 12 12 12s12-5.4 12-12c0-0.3-0.1-0.6-0.1-0.8h18.1c1.2 0 2.3-0.7 2.8-1.8s0.2-2.4-0.6-3.3zm-26.2 5.9c0 3.3-2.7 6-6 6s-6-2.7-6-6c0-0.3-0.1-0.6-0.1-0.8h12.2c0 0.2-0.1 0.5-0.1 0.8zm-6-6.8h-23.8c3.8-6.5 4.9-14.2 5.9-21.2 2-13.9 3.8-21.8 17.9-21.8 14.3 0 16.1 7.9 18.1 21.8 1 7 2.1 14.7 5.9 21.2z"/>
  </g>
 </g>
</svg>
