# Blender v2.76 (sub 0) OBJ File: 'importer-blank.blend'
# www.blender.org
mtllib plate-whole-hull.mtl
o Cylinder.020_Cylinder.028
v 0.000000 0.089550 -0.000000
v -0.866811 0.089550 0.281644
v -0.866811 0.089550 -0.281644
v 0.000000 0.123550 -0.000000
v -0.866811 0.123550 0.281644
v -0.866811 0.123550 -0.281644
vn 0.000000 -1.000000 0.000000
vn 0.000000 1.000000 0.000000
vn 0.309000 0.000000 -0.951100
vn -1.000000 0.000000 0.000000
vn 0.309000 0.000000 0.951100
usemtl None
s off
f 1//1 2//1 3//1
f 6//2 5//2 4//2
f 1//3 3//3 6//3 4//3
f 3//4 2//4 5//4 6//4
f 2//5 1//5 4//5 5//5
o Cylinder.019_Cylinder.027
v 0.000000 0.089550 -0.000000
v 0.866811 0.089550 0.281644
v 0.535719 0.089550 0.737353
v 0.000000 0.123550 -0.000000
v 0.866811 0.123550 0.281644
v 0.535719 0.123550 0.737353
vn 0.000000 -1.000000 0.000000
vn 0.000000 1.000000 0.000000
vn 0.309000 0.000000 -0.951100
vn -0.809000 0.000000 0.587800
vn 0.809000 0.000000 0.587800
usemtl None
s off
f 7//6 8//6 9//6
f 12//7 11//7 10//7
f 8//8 7//8 10//8 11//8
f 7//9 9//9 12//9 10//9
f 9//10 8//10 11//10 12//10
o Cylinder.018_Cylinder.026
v -0.866811 0.089550 -0.281644
v -0.951056 0.225021 -0.309017
v -0.535718 0.089550 -0.737354
v -0.587785 0.225021 -0.809017
v -0.843453 0.107504 -0.264674
v -0.927698 0.242975 -0.292047
v -0.512360 0.107504 -0.720383
v -0.564427 0.242975 -0.792047
vn -0.687000 -0.528100 -0.499100
vn 0.687000 0.528100 0.499100
vn -0.427200 0.849200 -0.310400
vn 0.651600 -0.143600 -0.744900
vn -0.507100 -0.143600 0.849900
vn 0.427200 -0.849200 0.310400
usemtl None
s off
f 13//11 14//11 16//11 15//11
f 19//12 20//12 18//12 17//12
f 16//13 14//13 18//13 20//13
f 15//14 16//14 20//14 19//14
f 14//15 13//15 17//15 18//15
f 13//16 15//16 19//16 17//16
o Cylinder.017_Cylinder.025
v -0.866811 0.089550 0.281644
v -0.951056 0.225021 0.309017
v -0.866811 0.089550 -0.281644
v -0.951056 0.225021 -0.309017
v -0.837939 0.107504 0.281644
v -0.922184 0.242975 0.309017
v -0.837939 0.107504 -0.281644
v -0.922184 0.242975 -0.309017
vn -0.849200 -0.528100 0.000000
vn 0.849200 0.528100 0.000000
vn -0.528100 0.849200 0.000000
vn 0.089300 -0.143600 -0.985600
vn 0.089300 -0.143600 0.985600
vn 0.528100 -0.849200 0.000000
usemtl None
s off
f 21//17 22//17 24//17 23//17
f 27//18 28//18 26//18 25//18
f 24//19 22//19 26//19 28//19
f 23//20 24//20 28//20 27//20
f 22//21 21//21 25//21 26//21
f 21//22 23//22 27//22 25//22
o Cylinder.016_Cylinder.024
v -0.535719 0.089550 0.737353
v -0.587785 0.225021 0.809017
v -0.866811 0.089550 0.281644
v -0.951056 0.225021 0.309017
v -0.512361 0.107504 0.720383
v -0.564427 0.242975 0.792046
v -0.843453 0.107504 0.264674
v -0.927698 0.242975 0.292047
vn -0.687000 -0.528100 0.499100
vn 0.687000 0.528100 -0.499100
vn -0.427200 0.849200 0.310400
vn -0.507100 -0.143600 -0.849900
vn 0.651600 -0.143600 0.744900
vn 0.427200 -0.849200 -0.310400
usemtl None
s off
f 29//23 30//23 32//23 31//23
f 35//24 36//24 34//24 33//24
f 32//25 30//25 34//25 36//25
f 31//26 32//26 36//26 35//26
f 30//27 29//27 33//27 34//27
f 29//28 31//28 35//28 33//28
o Cylinder.015_Cylinder.023
v -0.000000 0.089550 0.911419
v -0.000000 0.225021 1.000000
v -0.535719 0.089550 0.737353
v -0.587785 0.225021 0.809017
v 0.008921 0.107504 0.883960
v 0.008921 0.242975 0.972541
v -0.526797 0.107504 0.709894
v -0.578864 0.242975 0.781558
vn -0.262400 -0.528100 0.807600
vn 0.262400 0.528100 -0.807600
vn -0.163200 0.849200 0.502200
vn -0.909800 -0.143600 -0.389500
vn 0.965000 -0.143600 0.219600
vn 0.163200 -0.849200 -0.502200
usemtl None
s off
f 37//29 38//29 40//29 39//29
f 43//30 44//30 42//30 41//30
f 40//31 38//31 42//31 44//31
f 39//32 40//32 44//32 43//32
f 38//33 37//33 41//33 42//33
f 37//34 39//34 43//34 41//34
o Cylinder.014_Cylinder.022
v 0.535719 0.089550 0.737353
v 0.587785 0.225021 0.809017
v -0.000000 0.089550 0.911419
v -0.000000 0.225021 1.000000
v 0.526797 0.107504 0.709895
v 0.578864 0.242975 0.781558
v -0.008922 0.107504 0.883960
v -0.008922 0.242975 0.972541
vn 0.262400 -0.528100 0.807600
vn -0.262400 0.528100 -0.807600
vn 0.163200 0.849200 0.502200
vn -0.965000 -0.143600 0.219600
vn 0.909800 -0.143600 -0.389500
vn -0.163200 -0.849200 -0.502200
usemtl None
s off
f 45//35 46//35 48//35 47//35
f 51//36 52//36 50//36 49//36
f 48//37 46//37 50//37 52//37
f 47//38 48//38 52//38 51//38
f 46//39 45//39 49//39 50//39
f 45//40 47//40 51//40 49//40
o Cylinder.013_Cylinder.021
v 0.866811 0.089550 0.281644
v 0.951056 0.225021 0.309017
v 0.535719 0.089550 0.737353
v 0.587785 0.225021 0.809017
v 0.843453 0.107504 0.264674
v 0.927698 0.242975 0.292047
v 0.512360 0.107504 0.720383
v 0.564427 0.242975 0.792047
vn 0.687000 -0.528100 0.499100
vn -0.687000 0.528100 -0.499100
vn 0.427200 0.849200 0.310400
vn -0.651600 -0.143600 0.744900
vn 0.507100 -0.143600 -0.849900
vn -0.427200 -0.849200 -0.310400
usemtl None
s off
f 53//41 54//41 56//41 55//41
f 59//42 60//42 58//42 57//42
f 56//43 54//43 58//43 60//43
f 55//44 56//44 60//44 59//44
f 54//45 53//45 57//45 58//45
f 53//46 55//46 59//46 57//46
o Cylinder.012_Cylinder.020
v 0.866811 0.089550 -0.281644
v 0.951057 0.225021 -0.309017
v 0.866811 0.089550 0.281644
v 0.951056 0.225021 0.309017
v 0.837939 0.107504 -0.281644
v 0.922185 0.242975 -0.309017
v 0.837939 0.107504 0.281644
v 0.922184 0.242975 0.309017
vn 0.849200 -0.528100 0.000000
vn -0.849200 0.528100 -0.000000
vn 0.528100 0.849200 0.000000
vn -0.089300 -0.143600 0.985600
vn -0.089300 -0.143600 -0.985600
vn -0.528100 -0.849200 -0.000000
usemtl None
s off
f 61//47 62//47 64//47 63//47
f 67//48 68//48 66//48 65//48
f 64//49 62//49 66//49 68//49
f 63//50 64//50 68//50 67//50
f 62//51 61//51 65//51 66//51
f 61//52 63//52 67//52 65//52
o Cylinder.011_Cylinder.019
v 0.535719 0.089550 -0.737353
v 0.587785 0.225021 -0.809017
v 0.866811 0.089550 -0.281644
v 0.951057 0.225021 -0.309017
v 0.512360 0.107504 -0.720383
v 0.564427 0.242975 -0.792047
v 0.843453 0.107504 -0.264673
v 0.927698 0.242975 -0.292047
vn 0.687000 -0.528100 -0.499100
vn -0.687000 0.528100 0.499100
vn 0.427200 0.849200 -0.310400
vn 0.507100 -0.143600 0.849900
vn -0.651600 -0.143600 -0.744900
vn -0.427200 -0.849200 0.310400
usemtl None
s off
f 69//53 70//53 72//53 71//53
f 75//54 76//54 74//54 73//54
f 72//55 70//55 74//55 76//55
f 71//56 72//56 76//56 75//56
f 70//57 69//57 73//57 74//57
f 69//58 71//58 75//58 73//58
o Cylinder.010_Cylinder.018
v 0.000000 0.089550 -0.911419
v 0.000000 0.225021 -1.000000
v -0.535718 0.089550 -0.737354
v -0.587785 0.225021 -0.809017
v 0.008922 0.107504 -0.883960
v 0.008922 0.242975 -0.972541
v -0.526797 0.107504 -0.709895
v -0.578863 0.242975 -0.781558
vn -0.262400 -0.528100 -0.807600
vn 0.262400 0.528100 0.807600
vn -0.163200 0.849200 -0.502200
vn 0.965000 -0.143600 -0.219600
vn 0.163200 -0.849200 0.502200
vn -0.909800 -0.143600 0.389500
usemtl None
s off
f 79//59 80//59 78//59 77//59
f 81//60 82//60 84//60 83//60
f 78//61 80//61 84//61 82//61
f 77//62 78//62 82//62 81//62
f 79//63 77//63 81//63 83//63
f 80//64 79//64 83//64 84//64
o Cylinder.009_Cylinder.017
v 0.000000 0.089550 -0.000000
v 0.000000 0.089550 -0.911419
v -0.535718 0.089550 -0.737354
v 0.000000 0.123550 -0.000000
v 0.000000 0.123550 -0.911419
v -0.535718 0.123550 -0.737354
vn 0.000000 -1.000000 0.000000
vn 0.000000 1.000000 0.000000
vn -0.309000 0.000000 -0.951100
vn 1.000000 0.000000 0.000000
vn -0.809000 0.000000 0.587800
usemtl None
s off
f 85//65 87//65 86//65
f 89//66 90//66 88//66
f 86//67 87//67 90//67 89//67
f 85//68 86//68 89//68 88//68
f 87//69 85//69 88//69 90//69
o Cylinder.008_Cylinder.016
v 0.000000 0.089550 -0.000000
v 0.866811 0.089550 -0.281644
v 0.866811 0.089550 0.281644
v 0.000000 0.123549 -0.000000
v 0.866811 0.123550 -0.281644
v 0.866811 0.123550 0.281644
vn 0.000000 -1.000000 -0.000000
vn -0.000000 1.000000 0.000000
vn -0.309000 0.000000 -0.951100
vn -0.309000 0.000000 0.951100
vn 1.000000 0.000000 0.000000
usemtl None
s off
f 91//70 92//70 93//70
f 96//71 95//71 94//71
f 92//72 91//72 94//72 95//72
f 91//73 93//73 96//73 94//73
f 93//74 92//74 95//74 96//74
o Cylinder.007_Cylinder.015
v 0.000000 0.089550 -0.000000
v 0.535719 0.089550 0.737353
v -0.000000 0.089550 0.911419
v 0.000000 0.123550 -0.000000
v 0.535719 0.123550 0.737353
v -0.000000 0.123550 0.911419
vn 0.000000 -1.000000 -0.000000
vn 0.000000 1.000000 0.000000
vn 0.809000 0.000000 -0.587800
vn -1.000000 0.000000 -0.000000
vn 0.309000 0.000000 0.951100
usemtl None
s off
f 97//75 98//75 99//75
f 102//76 101//76 100//76
f 98//77 97//77 100//77 101//77
f 97//78 99//78 102//78 100//78
f 99//79 98//79 101//79 102//79
o Cylinder.006_Cylinder.014
v 0.000000 0.089550 -0.000000
v -0.535719 0.089550 0.737353
v -0.866811 0.089550 0.281644
v 0.000000 0.123550 -0.000000
v -0.535719 0.123550 0.737353
v -0.866811 0.123550 0.281644
vn 0.000000 -1.000000 0.000000
vn 0.000000 1.000000 0.000000
vn -0.309000 0.000000 -0.951100
vn -0.809000 0.000000 0.587800
vn 0.809000 0.000000 0.587800
usemtl None
s off
f 103//80 104//80 105//80
f 108//81 107//81 106//81
f 103//82 105//82 108//82 106//82
f 105//83 104//83 107//83 108//83
f 104//84 103//84 106//84 107//84
o Cylinder.005_Cylinder.013
v 0.000000 0.089550 -0.000000
v -0.866811 0.089550 -0.281644
v -0.535718 0.089550 -0.737354
v 0.000000 0.123550 -0.000000
v -0.866811 0.123549 -0.281644
v -0.535718 0.123550 -0.737354
vn 0.000000 -1.000000 0.000000
vn -0.000000 1.000000 0.000000
vn -0.309000 0.000000 0.951100
vn 0.809000 0.000000 -0.587800
vn -0.809000 0.000000 -0.587800
usemtl None
s off
f 109//85 110//85 111//85
f 114//86 113//86 112//86
f 110//87 109//87 112//87 113//87
f 109//88 111//88 114//88 112//88
f 111//89 110//89 113//89 114//89
o Cylinder.004_Cylinder.012
v 0.000000 0.089550 -0.000000
v 0.535719 0.089550 -0.737353
v 0.866811 0.089550 -0.281644
v 0.000000 0.123550 -0.000000
v 0.535719 0.123550 -0.737353
v 0.866811 0.123550 -0.281644
vn 0.000000 -1.000000 0.000000
vn 0.000000 1.000000 0.000000
vn -0.809000 0.000000 -0.587800
vn 0.309000 0.000000 0.951100
vn 0.809000 0.000000 -0.587800
usemtl None
s off
f 115//90 116//90 117//90
f 120//91 119//91 118//91
f 116//92 115//92 118//92 119//92
f 115//93 117//93 120//93 118//93
f 117//94 116//94 119//94 120//94
o Cylinder.003_Cylinder.011
v 0.000000 0.089550 -0.000000
v 0.000000 0.089550 -0.911419
v 0.535719 0.089550 -0.737353
v 0.000000 0.123550 -0.000000
v 0.000000 0.123550 -0.911419
v 0.535719 0.123550 -0.737353
vn 0.000000 -1.000000 0.000000
vn 0.000000 1.000000 0.000000
vn 0.309000 0.000000 -0.951100
vn -1.000000 0.000000 0.000000
vn 0.809000 0.000000 0.587800
usemtl None
s off
f 123//95 121//95 122//95
f 125//96 124//96 126//96
f 123//97 122//97 125//97 126//97
f 122//98 121//98 124//98 125//98
f 121//99 123//99 126//99 124//99
o Cylinder.002_Cylinder.010
v 0.000000 0.089550 -0.000000
v -0.000000 0.089550 0.911419
v -0.535719 0.089550 0.737353
v 0.000000 0.123550 -0.000000
v -0.000000 0.123550 0.911419
v -0.535719 0.123549 0.737353
vn 0.000000 -1.000000 0.000000
vn -0.000000 1.000000 -0.000000
vn 1.000000 0.000000 0.000000
vn -0.809000 0.000000 -0.587800
vn -0.309000 0.000000 0.951100
usemtl None
s off
f 127//100 128//100 129//100
f 132//101 131//101 130//101
f 128//102 127//102 130//102 131//102
f 127//103 129//103 132//103 130//103
f 129//104 128//104 131//104 132//104
o Cylinder.001_Cylinder
v 0.000000 0.089550 -0.911419
v 0.535719 0.089550 -0.737353
v 0.000000 0.225021 -1.000000
v 0.587785 0.225021 -0.809017
v -0.008922 0.107504 -0.883960
v 0.526797 0.107504 -0.709895
v -0.008922 0.242975 -0.972541
v 0.578864 0.242975 -0.781558
vn 0.262400 -0.528100 -0.807600
vn -0.262400 0.528100 0.807600
vn 0.163200 0.849200 -0.502200
vn -0.965000 -0.143600 -0.219600
vn 0.909800 -0.143600 0.389500
vn -0.163200 -0.849200 0.502200
usemtl None
s off
f 133//105 135//105 136//105 134//105
f 138//106 140//106 139//106 137//106
f 136//107 135//107 139//107 140//107
f 135//108 133//108 137//108 139//108
f 134//109 136//109 140//109 138//109
f 133//110 134//110 138//110 137//110
