# Blender v2.79 (sub 0) OBJ File: 'whiteboard blender 1.blend'
# www.blender.org
mtllib whiteboard blender 1 collision hulls.mtl
o Shape_IndexedFaceSet.008
v -1.472934 2.493706 0.030738
v 0.091702 2.541326 -0.037303
v 0.091702 2.541326 0.030738
v 0.091702 2.493706 -0.037303
v -1.466042 2.541326 -0.037303
v -1.472934 2.493706 -0.037303
v -1.466042 2.541326 0.030738
v 0.091702 2.500512 0.030738
v 0.091702 2.493706 0.010324
vn 0.0041 -0.9487 0.3163
vn 1.0000 0.0000 0.0000
vn 0.0000 1.0000 0.0000
vn 0.0000 0.0000 -1.0000
vn 0.0000 -1.0000 0.0000
vn -0.9897 0.1432 0.0000
vn 0.0000 0.0000 1.0000
usemtl Shape.008
s off
f 8//1 1//1 9//1
f 2//2 3//2 4//2
f 3//3 2//3 5//3
f 2//4 4//4 5//4
f 4//5 1//5 6//5
f 1//6 5//6 6//6
f 5//4 4//4 6//4
f 1//7 3//7 7//7
f 5//6 1//6 7//6
f 3//3 5//3 7//3
f 3//7 1//7 8//7
f 4//2 3//2 8//2
f 4//2 8//2 9//2
f 1//5 4//5 9//5
o Shape_IndexedFaceSet.007
v -1.472934 0.860718 0.030738
v 0.091702 2.493701 -0.037296
v -1.398179 2.466208 -0.037303
v -1.472934 2.493701 0.030738
v 0.091702 0.860718 0.010324
v -1.472934 0.860718 -0.037303
v 0.091702 0.860718 -0.037296
v 0.091702 2.493701 0.010324
v -1.472934 2.493701 -0.037303
v -1.438927 2.493701 0.030738
v -1.438927 0.860718 0.030738
vn 0.0133 0.0000 0.9999
vn -1.0000 0.0000 0.0000
vn 0.0000 -1.0000 0.0000
vn 0.0000 0.0000 -1.0000
vn 1.0000 0.0000 0.0000
vn 0.0000 1.0000 0.0000
vn 0.0000 0.0000 1.0000
vn 0.0000 1.0000 -0.0002
vn 0.0000 -1.0000 0.0003
usemtl Shape.007
s off
f 14//8 19//8 20//8
f 10//9 13//9 15//9
f 14//10 10//10 15//10
f 12//11 11//11 16//11
f 11//12 14//12 16//12
f 14//10 15//10 16//10
f 15//11 12//11 16//11
f 11//13 13//13 17//13
f 14//12 11//12 17//12
f 11//11 12//11 18//11
f 13//13 11//13 18//13
f 12//11 15//11 18//11
f 15//9 13//9 18//9
f 13//14 10//14 19//14
f 17//15 13//15 19//15
f 14//8 17//8 19//8
f 10//16 14//16 20//16
f 19//14 10//14 20//14
o Shape_IndexedFaceSet.006
v 0.091996 0.860883 0.010324
v 1.432262 2.541166 -0.037303
v 0.091996 2.541166 -0.037303
v 1.432262 2.541166 0.030738
v 1.432262 0.860883 -0.037303
v 0.091996 2.541166 0.030738
v 0.091996 0.860883 -0.037303
v 1.432262 0.860883 0.010324
v 1.432262 2.500211 0.030738
v 0.091996 2.500211 0.030738
vn 0.0000 0.0000 1.0000
vn 0.0000 1.0000 0.0000
vn 0.0000 0.0000 -1.0000
vn 1.0000 0.0000 0.0000
vn -1.0000 -0.0000 0.0000
vn 0.0000 -1.0000 0.0000
vn 0.0000 -0.0125 0.9999
usemtl Shape.006
s off
f 29//17 26//17 30//17
f 22//18 23//18 24//18
f 23//19 22//19 25//19
f 22//20 24//20 25//20
f 23//21 21//21 26//21
f 24//18 23//18 26//18
f 21//21 23//21 27//21
f 25//22 21//22 27//22
f 23//19 25//19 27//19
f 21//22 25//22 28//22
f 25//20 24//20 28//20
f 24//17 26//17 29//17
f 21//23 28//23 29//23
f 28//20 24//20 29//20
f 26//21 21//21 30//21
f 21//23 29//23 30//23
o Shape_IndexedFaceSet.005
v 1.473028 0.860718 0.030736
v -1.473012 0.745049 0.030736
v -1.473012 0.758681 0.037542
v -1.473012 0.860718 -0.037303
v 1.473028 0.745049 -0.037303
v 1.473028 0.745049 0.030736
v -1.473012 0.745049 -0.037303
v 1.473028 0.860718 -0.037303
v -1.473012 0.860718 0.030736
v 1.473028 0.806269 0.037542
v -1.473012 0.806269 0.037542
v 1.473028 0.758681 0.037542
vn 0.0000 0.0000 1.0000
vn -1.0000 0.0000 0.0000
vn 0.0000 -1.0000 0.0000
vn 0.0000 -0.4467 0.8947
vn 1.0000 0.0000 0.0000
vn 0.0000 0.0000 -1.0000
vn 0.0000 1.0000 0.0000
vn 0.0000 0.1240 0.9923
usemtl Shape.005
s off
f 40//24 33//24 42//24
f 32//25 33//25 34//25
f 32//26 35//26 36//26
f 33//27 32//27 36//27
f 35//28 31//28 36//28
f 32//25 34//25 37//25
f 34//29 35//29 37//29
f 35//26 32//26 37//26
f 34//30 31//30 38//30
f 31//28 35//28 38//28
f 35//29 34//29 38//29
f 34//25 33//25 39//25
f 31//30 34//30 39//30
f 36//28 31//28 40//28
f 31//31 39//31 40//31
f 40//31 39//31 41//31
f 39//25 33//25 41//25
f 33//24 40//24 41//24
f 33//27 36//27 42//27
f 36//28 40//28 42//28
o Shape_IndexedFaceSet.004
v 1.432274 2.500099 0.030736
v 1.547925 2.370783 -0.037303
v 1.547925 2.370783 0.030736
v 1.479904 0.309587 -0.037303
v 1.547925 0.309587 0.030736
v 1.432274 2.541166 -0.037303
v 1.439078 0.860928 0.030736
v 1.547925 0.309587 -0.037303
v 1.432274 0.860928 -0.037303
v 1.473100 0.806318 0.037542
v 1.479904 0.309587 0.030736
v 1.473088 2.534176 0.030736
v 1.520707 0.806318 0.037542
v 1.432274 0.860928 0.010318
v 1.473088 2.534176 -0.037303
vn 0.1688 0.9856 0.0000
vn 1.0000 0.0000 0.0000
vn -0.0000 0.0000 -1.0000
vn 0.0000 -1.0000 0.0000
vn -1.0000 0.0000 0.0000
vn -0.1974 -0.0008 0.9803
vn -0.2214 -0.0164 0.9751
vn -0.9963 -0.0861 0.0000
vn 0.0000 -0.0137 0.9999
vn 0.9092 0.4164 0.0000
vn -0.5815 0.6965 0.4204
vn -0.0033 0.0039 1.0000
vn 0.0000 0.0039 1.0000
vn 0.2426 0.0000 0.9701
vn 0.0092 0.0042 0.9999
vn -0.9487 -0.0039 0.3161
vn -0.9464 -0.0701 0.3154
usemtl Shape.004
s off
f 48//32 54//32 57//32
f 44//33 45//33 47//33
f 44//34 46//34 48//34
f 46//34 44//34 50//34
f 47//35 46//35 50//35
f 44//33 47//33 50//33
f 43//36 48//36 51//36
f 48//34 46//34 51//34
f 43//37 49//37 52//37
f 52//38 49//38 53//38
f 46//35 47//35 53//35
f 51//39 46//39 53//39
f 47//40 52//40 53//40
f 45//41 44//41 54//41
f 48//42 43//42 54//42
f 43//43 52//43 54//43
f 54//44 52//44 55//44
f 47//45 45//45 55//45
f 52//40 47//40 55//40
f 45//46 54//46 55//46
f 49//47 43//47 56//47
f 43//36 51//36 56//36
f 53//48 49//48 56//48
f 51//39 53//39 56//39
f 44//34 48//34 57//34
f 54//41 44//41 57//41
o Shape_IndexedFaceSet.003
v -1.473094 2.398319 -0.016877
v -1.520708 0.759066 0.037542
v -1.473094 0.759066 0.037542
v -1.547932 0.309587 -0.037303
v -1.547932 2.371185 0.030736
v -1.547932 2.371185 -0.037303
v -1.479893 0.309587 -0.037303
v -1.547932 0.309587 0.030736
v -1.479893 2.425661 0.030736
v -1.479893 2.425661 -0.037303
v -1.479893 0.309587 0.030736
v -1.473094 0.745395 -0.037303
v -1.473094 2.398319 0.017117
vn 0.8990 0.0055 0.4379
vn -1.0000 0.0000 0.0000
vn 0.0000 0.0000 -1.0000
vn 0.0000 -0.0151 0.9999
vn -0.2425 0.0000 0.9701
vn 0.0000 -1.0000 0.0000
vn 0.0000 0.0041 1.0000
vn -0.0033 0.0042 1.0000
vn -0.6250 0.7806 0.0000
vn 0.9704 0.2413 0.0000
vn 1.0000 0.0000 0.0000
vn 0.9503 0.0038 -0.3112
vn 0.9999 -0.0152 0.0028
vn 0.9999 -0.0156 0.0000
usemtl Shape.003
s off
f 66//49 60//49 70//49
f 61//50 62//50 63//50
f 61//51 63//51 64//51
f 60//52 59//52 65//52
f 62//50 61//50 65//50
f 59//53 62//53 65//53
f 61//54 64//54 65//54
f 59//55 60//55 66//55
f 62//56 59//56 66//56
f 63//57 62//57 66//57
f 63//57 66//57 67//57
f 64//51 63//51 67//51
f 66//58 58//58 67//58
f 60//52 65//52 68//52
f 65//54 64//54 68//54
f 58//59 60//59 69//59
f 67//60 58//60 69//60
f 64//51 67//51 69//51
f 60//61 68//61 69//61
f 68//62 64//62 69//62
f 60//59 58//59 70//59
f 58//58 66//58 70//58
o Shape_IndexedFaceSet.002
v -1.520418 0.758657 0.098779
v 1.520314 0.799475 0.037554
v 1.520314 0.806281 0.085162
v -1.520418 0.799475 0.037554
v 1.520314 0.758657 0.037554
v 1.520314 0.758657 0.098779
v -1.520418 0.806281 0.098779
v -1.520418 0.758657 0.037554
v 1.520314 0.806281 0.098779
v -1.520418 0.806281 0.085162
vn -1.0000 0.0001 0.0000
vn 0.0000 0.9899 -0.1415
vn 1.0000 0.0000 0.0000
vn 0.0000 0.0000 -1.0000
vn 0.0000 -1.0000 0.0000
vn -1.0000 0.0000 0.0000
vn 0.0000 0.0000 1.0000
vn 0.0000 1.0000 0.0000
usemtl Shape.002
s off
f 74//63 77//63 80//63
f 73//64 72//64 74//64
f 72//65 73//65 75//65
f 74//66 72//66 75//66
f 71//67 75//67 76//67
f 75//65 73//65 76//65
f 74//68 71//68 77//68
f 71//69 76//69 77//69
f 71//68 74//68 78//68
f 75//67 71//67 78//67
f 74//66 75//66 78//66
f 76//65 73//65 79//65
f 73//70 77//70 79//70
f 77//69 76//69 79//69
f 73//64 74//64 80//64
f 77//70 73//70 80//70
o Shape_IndexedFaceSet.001
v 1.547932 -0.003402 0.282377
v 1.547932 0.309586 -0.037268
v 1.479900 0.309586 -0.037268
v 1.493510 -0.003402 -0.302559
v 1.473102 -0.003402 0.275590
v 1.547932 0.064643 -0.309406
v 1.479900 0.091879 0.289224
v 1.479900 0.078276 -0.302559
v 1.547932 0.309586 0.037508
v 1.547932 -0.003402 -0.282138
v 1.547932 0.078276 0.302798
v 1.473102 -0.003402 -0.275351
v 1.479900 0.309586 0.037508
v 1.507114 -0.003402 0.309645
vn -0.1617 0.1624 0.9734
vn 0.0000 -1.0000 0.0000
vn 1.0000 0.0000 0.0000
vn 0.0000 0.7537 -0.6572
vn 0.0813 0.7408 -0.6668
vn -0.1035 -0.0173 -0.9945
vn 0.0000 1.0000 0.0000
vn 0.3289 -0.3513 -0.8766
vn 0.0196 0.7536 0.6571
vn -0.9998 0.0217 0.0000
vn -0.9964 0.0643 -0.0560
vn -0.7930 -0.1321 -0.5948
vn -0.9965 0.0633 0.0547
vn 0.0000 0.7564 0.6542
vn -0.7066 -0.0506 0.7058
vn 0.5439 -0.2035 0.8141
usemtl Shape.001
s off
f 91//71 87//71 94//71
f 84//72 81//72 85//72
f 82//73 81//73 86//73
f 83//74 82//74 88//74
f 82//75 86//75 88//75
f 86//76 84//76 88//76
f 81//73 82//73 89//73
f 82//77 83//77 89//77
f 81//72 84//72 90//72
f 86//73 81//73 90//73
f 84//78 86//78 90//78
f 81//73 89//73 91//73
f 89//79 87//79 91//79
f 84//72 85//72 92//72
f 85//80 83//80 92//80
f 83//81 88//81 92//81
f 88//82 84//82 92//82
f 83//80 85//80 93//80
f 85//83 87//83 93//83
f 89//77 83//77 93//77
f 87//84 89//84 93//84
f 85//72 81//72 94//72
f 87//85 85//85 94//85
f 81//86 91//86 94//86
o Shape_IndexedFaceSet
v -1.541119 -0.003402 0.296011
v -1.479900 0.309586 -0.037268
v -1.547932 0.309586 -0.037268
v -1.493510 -0.003402 -0.302559
v -1.473102 -0.003402 0.275590
v -1.547932 0.030636 -0.309406
v -1.547932 0.078276 0.302798
v -1.479900 0.078276 -0.302559
v -1.479900 0.309586 0.037508
v -1.479900 0.078276 0.302798
v -1.473102 -0.003402 -0.275351
v -1.547932 -0.003402 -0.282138
v -1.547932 0.309586 0.037508
v -1.547932 0.091879 -0.288985
v -1.547932 -0.003402 0.282377
vn -1.0000 -0.0000 0.0000
vn 0.0000 -1.0000 -0.0000
vn 0.1132 -0.0189 -0.9934
vn 0.0000 1.0000 0.0000
vn 0.9998 0.0217 0.0000
vn 0.0000 0.7537 0.6572
vn 0.2758 -0.2830 0.9186
vn 0.0000 -0.0828 0.9966
vn 0.9964 0.0643 0.0560
vn 0.9964 0.0643 -0.0560
vn 0.7930 -0.1321 -0.5948
vn -0.2810 -0.6000 -0.7490
vn 0.0000 0.7564 -0.6542
vn 0.0196 0.7536 -0.6571
vn -0.1250 0.3138 -0.9412
vn -0.8890 -0.1111 0.4442
usemtl Shape
s off
f 101//87 106//87 109//87
f 95//88 98//88 99//88
f 97//87 100//87 101//87
f 98//89 100//89 102//89
f 96//90 97//90 103//90
f 99//91 96//91 103//91
f 103//92 101//92 104//92
f 95//93 99//93 104//93
f 101//94 95//94 104//94
f 99//95 103//95 104//95
f 99//88 98//88 105//88
f 96//91 99//91 105//91
f 102//96 96//96 105//96
f 98//97 102//97 105//97
f 98//88 95//88 106//88
f 100//98 98//98 106//98
f 101//87 100//87 106//87
f 97//87 101//87 107//87
f 103//90 97//90 107//90
f 101//92 103//92 107//92
f 97//99 96//99 108//99
f 100//87 97//87 108//87
f 96//100 102//100 108//100
f 102//101 100//101 108//101
f 95//102 101//102 109//102
f 106//88 95//88 109//88
