<?xml version="1.0" encoding="utf-8"?>
<!-- Generator: Adobe Illustrator 21.1.0, SVG Export Plug-In . SVG Version: 6.00 Build 0)  -->
<svg version="1.1" id="Layer_1" xmlns="http://www.w3.org/2000/svg" xmlns:xlink="http://www.w3.org/1999/xlink" x="0px" y="0px"
	 viewBox="0 0 50 50" style="enable-background:new 0 0 50 50;" xml:space="preserve">
<style type="text/css">
	.st0{fill:#FFFFFF;}
</style>
<g>
	<ellipse transform="matrix(0.9942 -0.1072 0.1072 0.9942 -1.1874 1.979)" class="st0" cx="17.8" cy="12" rx="3.9" ry="3.9"/>
	<g>
		<path class="st0" d="M28.8,24.3c-0.5,0-0.9-0.2-1.3-0.5l-0.6-0.6c-0.7-0.7-0.6-1.8,0.1-2.4c0.7-0.7,1.8-0.6,2.4,0.1l0.6,0.6
			c0.7,0.7,0.6,1.8-0.1,2.4C29.6,24.2,29.2,24.3,28.8,24.3z M24.2,19.5c-0.5,0-0.9-0.2-1.3-0.5l-0.6-0.6c-0.7-0.7-0.6-1.8,0.1-2.4
			c0.7-0.7,1.8-0.6,2.4,0.1l0.6,0.6c0.7,0.7,0.6,1.8-0.1,2.4C25,19.3,24.6,19.5,24.2,19.5z"/>
	</g>
	<ellipse transform="matrix(0.9942 -0.1072 0.1072 0.9942 -3.1269 4.1775)" class="st0" cx="37.3" cy="31.2" rx="2.9" ry="2.9"/>
	<path class="st0" d="M37.3,39.8c-1.9,0-3.8-0.7-5.4-1.9c-1.8-1.4-2.9-3.5-3.1-5.8c-0.2-2.3,0.4-4.5,1.8-6.3
		c1.4-1.8,3.5-2.9,5.8-3.1c4.7-0.5,8.9,2.9,9.5,7.6l0,0c0.5,4.7-2.9,8.9-7.6,9.5C37.9,39.7,37.6,39.8,37.3,39.8z M37.3,25.6
		c-0.2,0-0.4,0-0.6,0c-1.5,0.2-2.8,0.9-3.8,2.1c-0.9,1.2-1.4,2.6-1.2,4.1c0.2,1.5,0.9,2.8,2.1,3.8c1.2,0.9,2.6,1.4,4.1,1.2
		c3.1-0.3,5.3-3.1,5-6.2C42.5,27.7,40.1,25.6,37.3,25.6z"/>
	<ellipse transform="matrix(0.9942 -0.1072 0.1072 0.9942 -3.7152 1.4758)" class="st0" cx="11.9" cy="35.3" rx="4.2" ry="4.2"/>
	<g>
		<path class="st0" d="M14.5,29c-0.2,0-0.3,0-0.5,0c-0.9-0.2-1.5-1.1-1.3-2.1l0.2-0.9c0.2-0.9,1.1-1.5,2.1-1.3
			c0.9,0.2,1.5,1.1,1.3,2.1l-0.2,0.9C15.9,28.5,15.3,29,14.5,29z M16,22.7c-0.2,0-0.3,0-0.5,0c-0.9-0.2-1.5-1.1-1.3-2.1l0.2-0.9
			c0.2-0.9,1.1-1.5,2.1-1.3c0.9,0.2,1.5,1.1,1.3,2.1l-0.2,0.9C17.4,22.1,16.7,22.7,16,22.7z"/>
	</g>
</g>
</svg>
