<svg id="Layer_1" data-name="Layer 1" xmlns="http://www.w3.org/2000/svg" viewBox="0 0 321.25 633"><defs><style>.cls-1{fill:#fff;}</style></defs><title>Dance_App-i</title><path d="M135.58-8.42H456.83v633H135.58ZM242.29,307.77l2,.54c0,3.88.73,7.93-.13,11.62-4,17.11-8.31,34.13-12.63,51.15-1.86,7.34-5.17,14.53-5.75,21.95-2.54,32.38-10.69,63.18-23.6,92.91a269.69,269.69,0,0,0-11,31.25c-7.35,25-14.15,50.08-21.37,75.08-2.3,8,3.2,17.07,11.38,18,21.16,2.35,28.14-2.36,33.63-22.75a42,42,0,0,0,1.6-7.72c1.92-26.81,11.8-51,23.35-74.9,14.4-29.86,27.45-60.39,41.09-90.62.9-2,1.83-4,3-6.61,14.73,13,28.75,25.4,42.68,37.86a13.21,13.21,0,0,1,3,4.55c7.46,17.12,15.55,34,22.05,51.48,10.07,27,19.87,54.24,28.22,81.84,6.87,22.75,5.85,23,29.82,24.26,1.58.08,3.22.47,4.72.16s3.52-1.15,3.69-2.06c1.19-6.59,4.16-13.88,2.49-19.8-7.18-25.54-15.81-50.68-23.81-76-5.95-18.82-10.88-38-17.83-56.45-6.29-16.66-7.22-16.3,9.43-21.26a10.58,10.58,0,0,0,2.22-1.54c-3.07-8.68-5.22-17.79-9.37-25.89-12-23.35-12.25-46.28-.94-70a57.74,57.74,0,0,0,5.23-29.95c-.75-9.21,1.39-18.63,1.87-28,.18-3.4.06-7.24-1.34-10.21-3.24-6.89-8-13.09-11-20.08-6.6-15.72-12.58-31.71-18.49-47.7a14.67,14.67,0,0,1-.42-8.9c5.77-17.78,11.92-35.44,18-53.11a24.06,24.06,0,0,1,2.77-5.53c2.33-3.43,5.47-6.42,7.22-10.1,4.94-10.34,5.25-21.19,2.71-32.33-1.46-6.41-1.89-13-3.17-19.5-1.22-6.12-3-12.13-4.42-18.22-.83-3.57-1.88-7.18-2-10.8-.08-3.36,1.1-6.74,1.52-10.14,1.86-15.13-11.7-30-26.94-29.2a9,9,0,0,0-6.35,3.58c-4.22,6.94-6.43,14.44-3.13,22.56,1.78,4.39,3.93,8.7,5.07,13.25.47,1.91-.89,4.55-2,6.52-1.78,3.14-5,5.73-5.92,9-1.7,6.31-2.16,13-3.15,19.46-3,19.78-6,39.56-9.24,59.3-.49,3-1.75,6.44-3.85,8.39-7.1,6.6-14.74,12.62-22.65,19.26-.82-2.55-1.58-4.46-2.05-6.43-2.61-11-4.43-22.23-7.92-32.92-3.2-9.83-9.3-12.54-19.65-12.17-31.28,1.11-50.11,32.51-33.59,58.32,1.61,2.52.82,6.73.76,10.15-.08,4.79-1.4,9.74-.55,14.32.8,4.32.44,6.64-3.51,8.95-7.73,4.52-15.22,9.48-22.58,14.58-1.94,1.34-4.35,3.84-4.36,5.83-.09,15.47.5,31,.55,46.43,0,4.6-.15,9.52-1.73,13.73-6.84,18.25-13.76,36.49-21.57,54.33-7.67,17.54-12.51,34.77-6.31,54.09,2.08,6.47,3.62,10.86,10.53,13.55s12.85,3.66,18.34-1.25,5.59-11.2,4-18.22a16.29,16.29,0,0,1,2.07-11.27,260.57,260.57,0,0,1,17.8-24.18c4.67-5.7,6.27-11.22,2.88-18.08a7.94,7.94,0,0,1,0-5.85C236.37,320,239.41,313.94,242.29,307.77Z" transform="translate(-135.58 8.42)"/><path class="cls-1" d="M242.29,307.77c-2.88,6.17-5.92,12.27-8.54,18.55a7.94,7.94,0,0,0,0,5.85c3.39,6.86,1.79,12.38-2.88,18.08a260.57,260.57,0,0,0-17.8,24.18A16.29,16.29,0,0,0,211,385.7c1.62,7,1.48,13.36-4,18.22s-11.52,3.91-18.34,1.25-8.45-7.08-10.53-13.55c-6.2-19.32-1.36-36.55,6.31-54.09,7.81-17.84,14.73-36.08,21.57-54.33,1.58-4.21,1.74-9.13,1.73-13.73,0-15.48-.64-31-.55-46.43,0-2,2.42-4.49,4.36-5.83,7.36-5.1,14.85-10.06,22.58-14.58,3.95-2.31,4.31-4.63,3.51-8.95-.85-4.58.47-9.53.55-14.32.06-3.42.85-7.63-.76-10.15C220.93,143.4,239.76,112,271,110.89c10.35-.37,16.45,2.34,19.65,12.17C294.18,133.75,296,145,298.61,156c.47,2,1.23,3.88,2.05,6.43,7.91-6.64,15.55-12.66,22.65-19.26,2.1-2,3.36-5.42,3.85-8.39,3.25-19.74,6.2-39.52,9.24-59.3,1-6.5,1.45-13.15,3.15-19.46.89-3.29,4.14-5.88,5.92-9,1.12-2,2.48-4.61,2-6.52-1.14-4.55-3.29-8.86-5.07-13.25-3.3-8.12-1.09-15.62,3.13-22.56a9,9,0,0,1,6.35-3.58c15.24-.8,28.8,14.07,26.94,29.2-.42,3.4-1.6,6.78-1.52,10.14.1,3.62,1.15,7.23,2,10.8,1.42,6.09,3.2,12.1,4.42,18.22,1.28,6.46,1.71,13.09,3.17,19.5,2.54,11.14,2.23,22-2.71,32.33-1.75,3.68-4.89,6.67-7.22,10.1a24.06,24.06,0,0,0-2.77,5.53c-6.1,17.67-12.25,35.33-18,53.11a14.67,14.67,0,0,0,.42,8.9c5.91,16,11.89,32,18.49,47.7,2.93,7,7.73,13.19,11,20.08,1.4,3,1.52,6.81,1.34,10.21-.48,9.35-2.62,18.77-1.87,28a57.74,57.74,0,0,1-5.23,29.95c-11.31,23.69-11,46.62.94,70,4.15,8.1,6.3,17.21,9.37,25.89a10.58,10.58,0,0,1-2.22,1.54c-16.65,5-15.72,4.6-9.43,21.26,6.95,18.43,11.88,37.63,17.83,56.45,8,25.32,16.63,50.46,23.81,76,1.67,5.92-1.3,13.21-2.49,19.8-.17.91-2.33,1.78-3.69,2.06s-3.14-.08-4.72-.16c-24-1.21-22.95-1.51-29.82-24.26-8.35-27.6-18.15-54.8-28.22-81.84-6.5-17.47-14.59-34.36-22.05-51.48a13.21,13.21,0,0,0-3-4.55c-13.93-12.46-28-24.82-42.68-37.86-1.18,2.6-2.11,4.6-3,6.61-13.64,30.23-26.69,60.76-41.09,90.62-11.55,23.93-21.43,48.09-23.35,74.9a42,42,0,0,1-1.6,7.72c-5.49,20.39-12.47,25.1-33.63,22.75-8.18-.9-13.68-10-11.38-18,7.22-25,14-50.12,21.37-75.08a269.69,269.69,0,0,1,11-31.25c12.91-29.73,21.06-60.53,23.6-92.91.58-7.42,3.89-14.61,5.75-21.95,4.32-17,8.67-34,12.63-51.15.86-3.69.13-7.74.13-11.62Zm135.36,19.48c1.05-7.31,2.59-14.59,3-21.93.31-5.68-.82-11.45-1.31-17.18l1.16-1.18c4.12-7.55,4.57-14.61-1.17-21.93-3.7-4.71-6.38-10.29-9.05-15.71-1-2.12-.79-4.87-1.12-7.33l-1.44,1.28c-13.88-14.28-22.15-32.86-34.63-48.54,7.4,24.21,16.78,48,11.08,74.6l-5.65-11.21-2.31.25c0,6.66.35,13.34-.12,20-.32,4.38-.53,11.21-3.06,12.5-6.38,3.27-6.73,6.8-4.79,12.58.48,1.41-1,3.93-2.26,5.3-.63.68-3.52.47-4.16-.32a9.77,9.77,0,0,1-2-5.55c-.08-2.43.72-4.88,1-6.67-16.26-7.65-18.1,6.15-23.62,16.18l-5.58-15.48a30.48,30.48,0,0,0-5.09.35c-7.3,1.86-11.83,0-13.91-8-2.35-9.16-5.91-18-8.94-27-2.22-6.56-4.43-13.12-6.36-18.86-1.06,3.8-2.53,7.57-3,11.47-.27,2.08.61,5.9,1.85,6.32,5.45,1.83,3.73,5.92,3.9,9.51.08,1.72-.3,3.73.45,5.1,4.57,8.4,10.26,16.3,13.88,25.07,3,7.23,3.6,15.44,5.33,23.49a21.13,21.13,0,0,0,2.51-1.53c1.37-1,2.63-2.23,3.93-3.35a28.81,28.81,0,0,0,1.36,4.75c1,2.07,2.34,4,3.81,6.4-4.95,8.38-11.11-2.89-18,2.16a48.55,48.55,0,0,0-3.26,5.34c-7.3,14.6-15.49,28.52-27.44,40-4.66,4.46-11.8,8.54-5.28,17.25,1.32-1,3.55-1.84,4.42-3.44,2.71-5,6.82-2.63,9.42-1.16,1.44.82,1.44,5.21,1.14,7.88-.61,5.38-1.87,10.69-2.75,15.45-4.16.82-8.61,1.81-13.1,2.52-4.11.65-6.68-.6-6.23-5.5.77-8.31,1-16.67,2.08-24.94.33-2.62,2.47-5,3.72-7.58,6-10.93,15.67-20.41,12.51-34.13l7.28-1.7c-.63-3.41-1.16-6.25-1.72-9.25,11.6-.74,15.23-3,15.94-12.36.58-7.51-1.08-15.19-1.7-22.29l-10.08-2.53c.79-5.57,1.48-10.38,2.16-15.2-1.29-.14-2.58-.27-3.82-.48,1.32-5.39,2.24-9.95-5.3-12.31-3.06-1-5.85-5.7-7-9.28-3.2-9.92-5.47-20.14-8.42-31.42a37.2,37.2,0,0,1,5.8-3.25c2.31-.9,6-.17,7.22-1.67,6.18-7.33,6.16-.38,8.61,4.84.58-5.83,1-10,1.52-15.32-7.77,4-14.12,7.5-20.68,10.54-6.07,2.82-7.09,6.75-4.5,12.68a116.45,116.45,0,0,1,4.9,14.79c1.78,6.21,2.62,12.78,5.17,18.63,1.22,2.78,5.59,4.07,8.26,6.36,1.74,1.49,3,3.56,4.45,5.36-1.28,1.5-3.72,3.05-3.66,4.5.35,8.54.71,17.16,2.25,25.54.82,4.48.65,10.06-4.51,14-.5-10.62-.44-20.23-1.59-29.7-.77-6.29-2.95-12.5-5.1-18.52-2.6-7.31-5.75-14.42-8.84-21.54-1.51-3.5-3.4-6.83-5.12-10.24l-2.12,1c-1.34,9.93-8,19.15-12.53,20.14-4.78,20.07-11.74,38.29-18,55.95,2.91,3.39,5.69,6.1,7.76,9.27,1,1.51.61,3.9.85,5.88-9.51.2.39,5-1.81,7.09-4.19,5.7-8,12-12.89,17.17-3.75,4-2.4,5.49,1.3,7.49,6.26,3.4,11.37,7.75,11.5,11.92,7.94-12.47,17.39-27.32,27-42.45l-6.73-4.62c7.11-13.79,14-27.21,21.39-41.49.84,2.45,1.65,3.87,1.77,5.34,1.67,22.17-.83,44-6.29,65.45-1.38,5.39-3.35,10.63-5,15.94-7.78,1.5-6.31,8.15-6.55,13.05-1.28,25.56-4.7,50.52-15.21,74.27-6,13.57-10.58,27.78-15.8,41.7l.21-.23c-1.22,5-2.25,10.1-3.68,15.06-3.55,12.25-7.53,24.38-10.78,36.7-.94,3.56,1,7.93-.17,11.36-1.91,5.79-5.34,11.07-7.9,16.67-5,11,0,18.93,11.84,18.32,7.15-.37,12.8-.72,17-9.76,4-8.71,7.55-16.47,7.47-26.2,0-5.24,2.31-10.53,3.84-15.72,1.21-4.15,2.78-8.2,4.25-12.28,3-8.23,5.88-16.49,9-24.65q6.09-15.75,12.56-31.35a113.29,113.29,0,0,1,5.38-11c3.85-7,8.5-13.71,11.68-21,7.82-18,15-36.25,22.71-55.09,9.37,8.63,17.48,16,25.52,23.51,7.69,7.16,16.64,13.46,22.63,21.86,8,11.19,15.66,23.4,19.8,36.34,6.5,20.33,18.08,39.22,18.78,61.35.06,1.78,1.77,3.52,2.79,5.24,1.88,3.2,4.66,6.14,5.57,9.58C381,570.59,384,585,387.75,599.13c.46,1.75,3.06,3.61,5,4.14a43.14,43.14,0,0,0,10.19,1c12.58.29,17.43-7.64,12.12-19.35-2.21-4.89-4.66-9.87-5.68-15.06-1.41-7.14-.89-14.67-2.48-21.75-1.14-5.13-.25-12.21-8.11-13.92-.85-.18-1.4-2.62-1.76-4.09-4.39-17.58-8.44-35.26-13.21-52.74-1.46-5.35-4.86-10.17-7.37-15.24l.2.24c-1.21-3.92-1.85-8.14-3.73-11.7-7.69-14.54-6-16.83,7.88-19.75.38-.08.64-.77,2.17-2.73-5.63-17.48-11.76-36-17.41-54.57-.89-3-.17-6.71.75-9.81C370,351.46,374,339.24,377.84,327ZM374.2,55c-2.17,1.82-4.34,3.64-5.62,4.7-.7,5.2-1.29,9.54-1.81,13.36,1,1.32,3,2.89,2.78,4.07-.28,1.55-2.51,2.65-3.51,4.19a29.9,29.9,0,0,0-2.41,5.41c-.05.12.74.57,1.58,1.18l4.44-5.22c6,5.16,16,6.65,12.84,16.23l-18.27-8.73c3.49,5.66-.65,16-5.63,17.5-2.63.77-5.95-.85-9-1.39-.26-1-.53-1.94-.8-2.9L341.07,113c.81-11.1,1.68-23.06,2.5-35.1a92,92,0,0,0,1.69-9.27c.55-6.49-1.13-13.79,6.89-17.56-3.26,1.49-7,3.5-7.43,6-1.1,6.88-.77,14-1,21-.71,1.54-2,3.07-2,4.6-.1,18.07-4.58,35.32-9.16,52.62-1.92,7.26-3.14,14.16-12.31,15.13-.1,0-.13.75-.2,1.19,8.48-2.93,8.19-2.95,7.66,6.15-.17,2.92,1.14,6.23,2.63,8.89,3.84,6.89,8.25,13.47,12.23,20.29,1.55,2.65,2.46,5.68,3.79,8.47s2.87,5.55,4.32,8.33c-3.56-9.82-3.55-9.82,1.46-19.5,1.45-2.8,3.24-5.5,4.23-8.46,5.75-17.4,11.31-34.86,16.42-50.71,3.25-1.64,7.07-2.34,7.55-4,4.17-14.24,7.27-28.66.42-43.07Zm-80.34,93.11c-.13-1.49-.31-5.14-.8-8.75-2.44-18.28-14.33-25.23-31.77-20.73-12,3.09-18.85,8.82-22.41,20.88-2.12,7.19-6.4,13.06-1.51,16,3-.89,4.89-1.84,6.88-2,13.2-1.06,27.44-7.39,36.34,6.92ZM233,215.62l1.69,2c2.74-.7,5.54-1.19,8.18-2.14,3.21-1.15,6.31-2.62,9.4-4.06,10.19-4.72,11.3-11,4.1-19.66-3.82-4.62-6.83-9.91-9.78-14.28-8.58,7.1-3.59,15.29,2.09,24.86Zm97.88,17.06,9.38-1.42c-6.52-20.95-12.72-41.12-19.24-61.19-.5-1.56-3.31-2.37-5-3.53l-1.23,1.84c7.37,4.3,7.37,4.3-.23,13.56,2.78,3.52,5.68,7.06,8.43,10.71,2.4,3.2,6.56,6.27.81,10.37-.73.53-.48,3.53.27,4.82,2.62,4.49,5,9.4,8.72,12.9C337.18,225,336.53,228,330.88,232.68Zm-8.48-4.05c0,20.37,0,41.56,0,62.74C331.8,287.59,331.35,240.65,322.4,228.63ZM311.9,172l-1.47-3-14.67,8q3.27,4.9,6.53,9.8l2.06-.68C298.84,176.84,305.86,174.69,311.9,172ZM182.11,365.24l-2.14.42,4.51-11.19c-8.35,11.55-8.31,15.64.83,21.43C184,371.6,183.07,368.42,182.11,365.24Z" transform="translate(-135.58 8.42)"/><path d="M376.47,462.11c2.51,5.07,5.91,9.89,7.37,15.24,4.77,17.48,8.82,35.16,13.21,52.74.36,1.47.91,3.91,1.76,4.09,7.86,1.71,7,8.79,8.11,13.92,1.59,7.08,1.07,14.61,2.48,21.75,1,5.19,3.47,10.17,5.68,15.06,5.31,11.71.46,19.64-12.12,19.35a43.14,43.14,0,0,1-10.19-1c-2-.53-4.56-2.39-5-4.14C384,585,381,570.59,377.22,556.42c-.91-3.44-3.69-6.38-5.57-9.58-1-1.72-2.73-3.46-2.79-5.24-.7-22.13-12.28-41-18.78-61.35-4.14-12.94-11.82-25.15-19.8-36.34-6-8.4-14.94-14.7-22.63-21.86-8-7.48-16.15-14.88-25.52-23.51-7.72,18.84-14.89,37.11-22.71,55.09-3.18,7.32-7.83,14-11.68,21a113.29,113.29,0,0,0-5.38,11Q235.93,501.29,229.8,517c-3.16,8.16-6.06,16.42-9,24.65-1.47,4.08-3,8.13-4.25,12.28-1.53,5.19-3.88,10.48-3.84,15.72.08,9.73-3.44,17.49-7.47,26.2-4.18,9-9.83,9.39-17,9.76-11.81.61-16.87-7.28-11.84-18.32,2.56-5.6,6-10.88,7.9-16.67,1.13-3.43-.77-7.8.17-11.36,3.25-12.32,7.23-24.45,10.78-36.7,1.43-5,2.46-10,3.68-15.06,1.74,2.08,3.93,6.14,5.14,5.87,3-.68,5.68-3.24,8.33-5.24.86-.65,1-2.34,1.92-2.78,4-2,8.11-3.72,13.45-6.11-6.62-5.91-12-10.66-17.06-15.22l-12,23.71c5.22-13.92,9.79-28.13,15.8-41.7,10.51-23.75,13.93-48.71,15.21-74.27.24-4.9-1.23-11.55,6.55-13.05l-.14-.11c-1.32,2.49-3.46,4.88-3.79,7.5-1.05,8.27-1.31,16.63-2.08,24.94-.45,4.9,2.12,6.15,6.23,5.5,4.49-.71,8.94-1.7,13.1-2.52.88-4.76,2.14-10.07,2.75-15.45.3-2.67.3-7.06-1.14-7.88-2.6-1.47-6.71-3.85-9.42,1.16-.87,1.6-3.1,2.46-4.42,3.44-6.52-8.71.62-12.79,5.28-17.25,12-11.45,20.14-25.37,27.44-40a48.55,48.55,0,0,1,3.26-5.34c6.87-5.05,13,6.22,18-2.16-1.47-2.44-2.82-4.33-3.81-6.4a28.81,28.81,0,0,1-1.36-4.75c-1.3,1.12-2.56,2.31-3.93,3.35a21.13,21.13,0,0,1-2.51,1.53c-1.73-8.05-2.35-16.26-5.33-23.49-3.62-8.77-9.31-16.67-13.88-25.07-.75-1.37-.37-3.38-.45-5.1-.17-3.59,1.55-7.68-3.9-9.51-1.24-.42-2.12-4.24-1.85-6.32.51-3.9,2-7.67,3-11.47,1.93,5.74,4.14,12.3,6.36,18.86,3,9,6.59,17.82,8.94,27,2.08,8.05,6.61,9.88,13.91,8a30.48,30.48,0,0,1,5.09-.35l5.58,15.48c5.52-10,7.36-23.83,23.62-16.18-.3,1.79-1.1,4.24-1,6.67a9.77,9.77,0,0,0,2,5.55c.64.79,3.53,1,4.16.32,1.27-1.37,2.74-3.89,2.26-5.3-1.94-5.78-1.59-9.31,4.79-12.58,2.53-1.29,2.74-8.12,3.06-12.5.47-6.63.12-13.31.12-20l2.31-.25,5.65,11.21c5.7-26.64-3.68-50.39-11.08-74.6,12.48,15.68,20.75,34.26,34.63,48.54l1.44-1.28c.33,2.46.08,5.21,1.12,7.33,2.67,5.42,5.35,11,9.05,15.71,5.74,7.32,5.29,14.38,1.18,21.91-5.4-3.07-10.81-6.12-15.88-9l9.78,34.49-9.52-7.75v20.12l5.93-7.91c5.24,5.33,1.85,9.23-1.4,13.62-6.6,8.91-10.41,21-24.87,20.31-.17,0-.39.87-.58,1.34,11.17,5.86,17.29,4,23.48-7.06,3.41-6.07,6.93-12.08,10.4-18.12-3.87,12.25-7.88,24.47-11.51,36.8-.92,3.1-1.64,6.86-.75,9.81,5.65,18.61,11.78,37.09,17.41,54.57-1.53,2-1.79,2.65-2.17,2.73-13.89,2.92-15.57,5.21-7.88,19.75,1.88,3.56,2.52,7.78,3.72,11.68l-7-8.33c1.82,6.72-5.29,11-1,17.21,2.57,3.74,4,8.23,6.69,13.84l-1.55,2.86,5.89,12.94,2.86-.48c-.39-6-.31-12.15-1.28-18.09C380.19,475.48,378.12,468.83,376.47,462.11ZM350.9,423.66c-7.25,1.72-7.19,8.31-8,13.52-.38,2.43,3,5.27,4.1,8.16s1.37,6.2,2,9.31c2.8,1.54,5.22,10.66,12.57,4.72,0-4.37.54-9.19-.11-13.84-1.1-7.82.28-17-9.74-20.8-.42-.16-.65-.81-1-1.23,8.3-.18,9.48-5.57,8.43-12.57C356,414.87,350.46,417.15,350.9,423.66ZM225.81,444.2c-.5,7.26-11.32,11.59-5.62,18.78,4.84,6.1,12.58,3.14,20.9-1.22L226.66,452l9.62-4.76Zm38.09-55.94c8.94-9.95,8.94-9.95,15.55-10.68l-13.34-15.34-1.72.23c.86,3,1.72,5.92,2.05,7.08L259,383ZM188,547.71l2.31,2.57a117.21,117.21,0,0,0,11.08-5.12c2.17-1.27,4.46-3.24,5.33-5.44.38-1-2.39-4.28-4.18-4.72-2.34-.59-6.13-.29-7.51,1.24C192.1,539.51,190.29,543.82,188,547.71ZM349.18,323.82c-.29-.45-.59-.9-.88-1.36-3.27,4.06-6.71,8-9.68,12.24a5.58,5.58,0,0,0,0,4.9c.46.85,3.05,1.3,4.18.8a6.62,6.62,0,0,0,3.21-3.73C347.33,332.46,348.16,328.11,349.18,323.82Z" transform="translate(-135.58 8.42)"/><path d="M236.26,378.74c1.69-5.31,3.66-10.55,5-15.94,5.46-21.48,8-43.28,6.29-65.45-.12-1.47-.93-2.89-1.77-5.34-7.37,14.28-14.28,27.7-21.39,41.49l6.73,4.62c-9.62,15.13-19.07,30-27,42.45-.13-4.17-5.24-8.52-11.5-11.92-3.7-2-5.05-3.52-1.3-7.49,4.91-5.2,8.7-11.47,12.89-17.17,2.2-2.05-7.7-6.89,1.81-7.09-.24-2,.13-4.37-.85-5.88-2.07-3.17-4.85-5.88-7.76-9.27,6.24-17.66,13.2-35.88,18-55.95,4.48-1,11.19-10.21,12.53-20.14l2.12-1c1.72,3.41,3.61,6.74,5.12,10.24,3.09,7.12,6.24,14.23,8.84,21.54,2.15,6,4.33,12.23,5.1,18.52,1.15,9.47,1.09,19.08,1.59,29.7,5.16-4,5.33-9.56,4.51-14-1.54-8.38-1.9-17-2.25-25.54-.06-1.45,2.38-3,3.66-4.5l-.07.12,3.87.41c-.68,4.82-1.37,9.63-2.16,15.2l10.08,2.53c.62,7.1,2.28,14.78,1.7,22.29-.71,9.33-4.34,11.62-15.94,12.36.56,3,1.09,5.84,1.72,9.25l-7.28,1.7c3.16,13.72-6.5,23.2-12.48,34.17Z" transform="translate(-135.58 8.42)"/><path d="M380.71,78c6.85,14.41,3.75,28.83-.42,43.07-.48,1.67-4.3,2.37-7.55,4-5.11,15.85-10.67,33.31-16.42,50.71-1,3-2.78,5.66-4.23,8.46-5,9.68-5,9.68-1.46,19.5-1.45-2.78-3-5.51-4.32-8.33s-2.24-5.82-3.79-8.47c-4-6.82-8.39-13.4-12.23-20.29-1.49-2.66-2.8-6-2.63-8.89.53-9.1.82-9.08-7.66-6.15.07-.44.1-1.18.2-1.19,9.17-1,10.39-7.87,12.31-15.13,4.58-17.3,9.06-34.55,9.16-52.62,0-1.53,1.33-3.06,2-4.6l-.08-.13c-.88,12-1.75,23.91-2.56,35l7.75-9.57c.27,1,.54,1.93.8,2.9,3,.54,6.34,2.16,9,1.39,5-1.46,9.12-11.84,5.63-17.5L382.49,99c3.17-9.58-6.81-11.07-12.84-16.23l-4.44,5.22c-.84-.61-1.63-1.06-1.58-1.18A29.9,29.9,0,0,1,366,81.35c1-1.54,3.23-2.64,3.51-4.19.21-1.18-1.8-2.75-2.78-4.07.52-3.82,1.11-8.16,1.81-13.36,1.28-1.06,3.45-2.88,5.61-4.7-4.29,10.55.67,19.09,6.52,27.58Zm1.06,36.17c-6.15-3.58-6.84-13.76-16.75-9,1.72,1.63,4.28,2.94,4.26,4.2C369.1,120.44,375,116.21,381.77,114.21Z" transform="translate(-135.58 8.42)"/><path d="M293.86,148.14l-13.27,12.27c-8.9-14.31-23.14-8-36.34-6.92-2,.16-3.91,1.11-6.88,2-4.89-2.89-.61-8.76,1.51-16,3.56-12.06,10.46-17.79,22.41-20.88,17.44-4.5,29.33,2.45,31.77,20.73C293.55,143,293.73,146.65,293.86,148.14Z" transform="translate(-135.58 8.42)"/><path class="cls-1" d="M377.84,327c-3.47,6-7,12.05-10.4,18.12-6.19,11.05-12.31,12.92-23.48,7.06.19-.47.41-1.35.58-1.34,14.46.72,18.27-11.4,24.87-20.31,3.25-4.39,6.64-8.29,1.4-13.62l-5.93,7.91V304.69l9.52,7.75L364.62,278c5.07,2.87,10.48,5.92,15.88,9l-1.17,1.2c-.5,2.23-1.77,4.61-1.38,6.67,2.1,10.87,2.43,21.65-.3,32.44Z" transform="translate(-135.58 8.42)"/><path d="M233,215.62l15.68-13.28c-5.68-9.57-10.67-17.76-2.09-24.86,2.95,4.37,6,9.66,9.78,14.28,7.2,8.67,6.09,14.94-4.1,19.66-3.09,1.44-6.19,2.91-9.4,4.06-2.64,1-5.44,1.44-8.18,2.14Z" transform="translate(-135.58 8.42)"/><path d="M330.88,232.68c5.65-4.65,6.3-7.73,1.87-11.94-3.68-3.5-6.1-8.41-8.72-12.9-.75-1.29-1-4.29-.27-4.82,5.75-4.1,1.59-7.17-.81-10.37-2.75-3.65-5.65-7.19-8.43-10.71,7.6-9.26,7.6-9.26.23-13.56l1.23-1.84c1.73,1.16,4.54,2,5,3.53,6.52,20.07,12.72,40.24,19.24,61.19Z" transform="translate(-135.58 8.42)"/><path d="M256.64,280.56c-1.47-1.8-2.71-3.87-4.45-5.36-2.67-2.29-7-3.58-8.26-6.36-2.55-5.85-3.39-12.42-5.17-18.63a116.45,116.45,0,0,0-4.9-14.79c-2.59-5.93-1.57-9.86,4.5-12.68,6.56-3,12.91-6.55,20.68-10.54-.53,5.37-.94,9.49-1.52,15.32-2.45-5.22-2.43-12.17-8.61-4.84-1.26,1.5-4.91.77-7.22,1.67a37.2,37.2,0,0,0-5.8,3.25c3,11.28,5.22,21.5,8.42,31.42,1.16,3.58,3.95,8.32,7,9.28,7.54,2.36,6.62,6.92,5.27,12.35Z" transform="translate(-135.58 8.42)"/><path d="M322.4,228.63c9,12,9.4,59,0,62.74C322.4,270.19,322.4,249,322.4,228.63Z" transform="translate(-135.58 8.42)"/><path class="cls-1" d="M380.71,78v4.57c-5.85-8.49-10.81-17-6.52-27.58Q377.46,66.54,380.71,78Z" transform="translate(-135.58 8.42)"/><path d="M311.9,172c-6,2.71-13.06,4.86-7.55,14l-2.06.68q-3.26-4.9-6.53-9.8l14.67-8Z" transform="translate(-135.58 8.42)"/><path d="M182.11,365.24c1,3.18,1.91,6.36,3.2,10.66-9.14-5.79-9.18-9.88-.83-21.43L180,365.66Z" transform="translate(-135.58 8.42)"/><path d="M377.65,327.25c2.73-10.79,2.4-21.57.3-32.44-.39-2.06.88-4.44,1.38-6.67.49,5.73,1.62,11.5,1.31,17.18C380.24,312.66,378.7,319.94,377.65,327.25Z" transform="translate(-135.58 8.42)"/><path d="M343.71,78.12c.24-7-.09-14.12,1-21,.41-2.55,4.17-4.56,7.43-6-8,3.77-6.34,11.07-6.89,17.56-.26,3.12-1.11,6.19-1.66,9.32Z" transform="translate(-135.58 8.42)"/><path class="cls-1" d="M350.74,423.5c.32.42.55,1.07,1,1.23,10,3.75,8.64,13,9.74,20.8.65,4.65.11,9.47.11,13.84-7.35,5.94-9.77-3.18-12.57-4.72-.64-3.11-.93-6.35-2-9.31s-4.48-5.73-4.1-8.16c.83-5.21.77-11.8,8-13.52Z" transform="translate(-135.58 8.42)"/><path class="cls-1" d="M198.7,507.76l12-23.71c5.1,4.56,10.44,9.31,17.06,15.22-5.34,2.39-9.46,4.11-13.45,6.11-.88.44-1.06,2.13-1.92,2.78-2.65,2-5.3,4.56-8.33,5.24-1.21.27-3.4-3.79-5.14-5.87Z" transform="translate(-135.58 8.42)"/><path class="cls-1" d="M376.47,462.11c1.65,6.72,3.72,13.37,4.84,20.17,1,5.94.89,12.05,1.28,18.09l-2.86.48-5.89-12.94,1.55-2.86c-2.65-5.61-4.12-10.1-6.69-13.84-4.29-6.23,2.82-10.49,1-17.21l7,8.33Z" transform="translate(-135.58 8.42)"/><path class="cls-1" d="M225.81,444.2l10.47,3.08L226.66,452l14.43,9.72c-8.32,4.36-16.06,7.32-20.9,1.22C214.49,455.79,225.31,451.46,225.81,444.2Z" transform="translate(-135.58 8.42)"/><path class="cls-1" d="M263.9,388.26,259,383l7.44-13.46c-.33-1.16-1.19-4.12-2.05-7.08l1.72-.23,13.34,15.34C272.84,378.31,272.84,378.31,263.9,388.26Z" transform="translate(-135.58 8.42)"/><path class="cls-1" d="M188,547.71c2.27-3.89,4.08-8.2,7-11.47,1.38-1.53,5.17-1.83,7.51-1.24,1.79.44,4.56,3.76,4.18,4.72-.87,2.2-3.16,4.17-5.33,5.44a117.21,117.21,0,0,1-11.08,5.12Z" transform="translate(-135.58 8.42)"/><path class="cls-1" d="M349.18,323.82c-1,4.29-1.85,8.64-3.15,12.85a6.62,6.62,0,0,1-3.21,3.73c-1.13.5-3.72.05-4.18-.8a5.58,5.58,0,0,1,0-4.9c3-4.26,6.41-8.18,9.68-12.24C348.59,322.92,348.89,323.37,349.18,323.82Z" transform="translate(-135.58 8.42)"/><path class="cls-1" d="M350.9,423.66c-.44-6.51,5.09-8.79,8.27-12.73,1.05,7-.13,12.39-8.43,12.57Z" transform="translate(-135.58 8.42)"/><path class="cls-1" d="M381.77,114.21c-6.73,2-12.67,6.23-12.49-4.77,0-1.26-2.54-2.57-4.26-4.2C374.93,100.45,375.62,110.63,381.77,114.21Z" transform="translate(-135.58 8.42)"/></svg>