<?xml version="1.0" encoding="UTF-8" standalone="no"?>
<!-- Generator: Adobe Illustrator 19.2.0, SVG Export Plug-In . SVG Version: 6.00 Build 0)  -->

<svg
   xmlns:dc="http://purl.org/dc/elements/1.1/"
   xmlns:cc="http://creativecommons.org/ns#"
   xmlns:rdf="http://www.w3.org/1999/02/22-rdf-syntax-ns#"
   xmlns:svg="http://www.w3.org/2000/svg"
   xmlns="http://www.w3.org/2000/svg"
   xmlns:sodipodi="http://sodipodi.sourceforge.net/DTD/sodipodi-0.dtd"
   xmlns:inkscape="http://www.inkscape.org/namespaces/inkscape"
   version="1.1"
   x="0px"
   y="0px"
   viewBox="0 0 50 50"
   style="enable-background:new 0 0 50 50;"
   xml:space="preserve"
   id="svg2"
   inkscape:version="0.92.2 (5c3e80d, 2017-08-06)"
   sodipodi:docname="bubble-a.svg"><metadata
     id="metadata36"><rdf:RDF><cc:Work
         rdf:about=""><dc:format>image/svg+xml</dc:format><dc:type
           rdf:resource="http://purl.org/dc/dcmitype/StillImage" /><dc:title></dc:title></cc:Work></rdf:RDF></metadata><defs
     id="defs34" /><sodipodi:namedview
     pagecolor="#ff4900"
     bordercolor="#666666"
     borderopacity="1"
     objecttolerance="10"
     gridtolerance="10"
     guidetolerance="10"
     inkscape:pageopacity="0"
     inkscape:pageshadow="2"
     inkscape:window-width="1920"
     inkscape:window-height="1017"
     id="namedview32"
     showgrid="false"
     inkscape:zoom="9.44"
     inkscape:cx="11.866642"
     inkscape:cy="25.215464"
     inkscape:window-x="-8"
     inkscape:window-y="-8"
     inkscape:window-maximized="1"
     inkscape:current-layer="svg2" /><style
     type="text/css"
     id="style4">
	.st0{fill:#FFFFFF;}
</style><path
     d="m 23.320771,4.5599089 c -4.698286,0.5905206 -7.707907,4.8163347 -6.771959,9.5081161 0.332972,1.668875 0.726422,2.070767 2.047378,2.090834 2.235869,0.03391 4.394653,1.180349 5.446851,2.892402 0.723516,1.177028 1.103542,1.28968 2.63264,0.77998 5.199405,-1.733089 7.069087,-8.118932 3.626298,-12.3854339 C 28.638363,5.3843128 25.869406,4.2396687 23.320771,4.5599089 m -1.447862,2.6947782 c 0.591212,0.17562 1.033653,0.777904 1.035175,1.4092505 0.003,1.3295364 -1.563004,1.9826104 -2.502136,1.0434792 -1.09676,-1.0967603 -0.02145,-2.8947553 1.466961,-2.4527297 M 18.773194,17.695984 c -0.643248,0.177972 -0.329374,-0.340999 -4.791424,7.926982 -1.172599,2.1729 -1.173983,2.356132 -0.02007,2.850331 0.805168,0.344736 1.368978,0.646708 2.028142,1.086243 1.503634,1.002376 1.408974,1.064376 3.073143,-2.016655 0.483128,-0.894569 1.462532,-2.706542 2.176222,-4.026391 1.705548,-3.153964 1.726584,-3.211259 1.408143,-3.850355 -0.544436,-1.09247 -2.835523,-2.257596 -3.874159,-1.970155 m 12.19556,1.254112 c -0.117219,0.0537 -0.441195,0.284258 -0.719918,0.512468 -0.650306,0.532672 -1.136756,0.85997 -1.793289,1.206228 -1.45409,0.766971 -1.454505,0.746905 0.07113,3.460919 0.469981,0.836029 1.352233,2.407891 1.960606,3.493165 2.246941,4.007846 2.19878,3.93173 2.619355,4.135305 0.954077,0.461954 3.885922,-1.044586 4.211283,-2.163766 0.170499,-0.586231 0.388329,-0.134241 -2.773247,-5.753667 -3.036469,-5.397307 -2.89434,-5.202727 -3.575923,-4.890652 M 9.47668,29.440522 c -6.2139603,0.959475 -8.82528785,8.593204 -4.5021839,13.161124 2.9044428,3.068992 7.5029479,3.29983 10.8153719,0.542914 1.333411,-1.109769 1.546536,-1.710254 0.990475,-2.790823 -0.850422,-1.652821 -0.853052,-4.600581 -0.0057,-6.270701 0.533227,-1.051091 0.457249,-1.367179 -0.57848,-2.405538 -1.75191,-1.756339 -4.312171,-2.608559 -6.719508,-2.236976 m 30.158349,0.103656 c -0.322316,0.105871 -0.493508,0.265991 -1.02964,0.962797 -1.288157,1.673857 -3.057228,2.647032 -5.321606,2.927416 -1.295907,0.160396 -1.57629,0.399262 -1.939155,1.651575 -1.673442,5.774426 3.633494,11.219201 9.490263,9.737018 5.357173,-1.355693 7.678153,-7.871902 4.372787,-12.276104 -1.4015,-1.86733 -4.290582,-3.423968 -5.572649,-3.002702 M 8.1615363,32.931611 c 0.7665559,0.338231 1.1003585,1.242211 0.7347256,1.98953 -0.4463157,0.912283 -1.6149017,1.120979 -2.3439532,0.41836 -1.1856083,-1.142429 0.1040711,-3.072174 1.6092276,-2.40789 m 10.6627247,1.707624 c -0.951863,0.142683 -1.204983,0.783163 -1.14672,2.901952 0.03847,1.401362 0.184616,1.848924 0.691962,2.120034 l 0.226687,0.121094 h 5.226392 c 5.130485,0 5.229713,-0.0021 5.407409,-0.106701 0.370061,-0.217968 0.408396,-0.326883 0.382378,-1.084858 -0.03709,-1.079323 -0.03211,-2.013334 0.01439,-2.701698 0.05328,-0.787453 -0.0018,-0.938439 -0.417807,-1.146582 l -0.266682,-0.133272 -4.906428,-0.0079 c -2.698515,-0.0043 -5.043714,0.01273 -5.211584,0.03792 m 16.640726,0.779288 c 0.677154,0.24108 1.100912,1.175921 0.846131,1.867053 -0.466382,1.264907 -2.350042,1.288296 -2.77726,0.03432 -0.425003,-1.247332 0.688503,-2.343677 1.931129,-1.901375"
     id="path0"
     inkscape:connector-curvature="0"
     style="fill:#000000;fill-opacity:1" /><style
     id="style4-0"
     type="text/css">
	.st0{fill:#FFFFFF;}
</style></svg>