<svg id="Layer_1" data-name="Layer 1" xmlns="http://www.w3.org/2000/svg" viewBox="0 0 311.25 303.13"><defs><style>.cls-1{font-size:72px;font-family:InkFree, Ink Free;}.cls-2{fill:#fff;}</style></defs><title>hifi-dance</title><text class="cls-1" transform="translate(1.3 65.41)">Hifi Dance</text><path d="M304.39,200c.67-.61,1.24-1.57,2-1.77q7.71-2.06,15.49-3.8a6.79,6.79,0,0,1,3.94.51c-4.14,2.73-7.73,6.32-13.16,6.33-.05.29-.13.8-.24,1.4l-3.06-1.45-.32.62c1.92,1,3.88,1.86,5.74,2.95,1.47.86,2.68,2.42,4.23,2.84,3.22.88,1.72,2.15.35,3.85,10,5.18,19.42,11.56,31,12.2,3.9.21,7.87-1.19,11.82-1.72a8,8,0,0,1,3.33.34c1.72.54,3.31,1.56,5.06,2A88.64,88.64,0,0,0,380.68,226c1.63.18,3.34-.53,5-.48,3.61.11,7.58-.44,10.75.87,12.74,5.28,26,8.76,39.27,12.17a58.29,58.29,0,0,0,10.17,1.26c2.86.23,5.62,1.61,8.75,2.58-.08-1.16-.12-1.85-.17-2.63,9.19,2.32,10.26,14.34,4.63,21.65-.83-1.18-1.57-2.25-2.32-3.31l-.18,1L447.9,258c-2.74-.36-5.46-.81-8.21-1-11.13-.87-22.28-1.53-33.41-2.51-9.18-.81-18.33-2-27.63-3,0,1-.12,1.37,0,1.59a16,16,0,0,1-3.47,21.39,21.86,21.86,0,0,1-6.49,3.3c-8.53,3.19-16.94,6.71-25.35,10.23-3.35,1.4-12.29,1.78-15.43.31a3,3,0,0,1-1.08-1.21c-1.19-2-2.29-4-3.49-6s-2.34-3.7-3.58-5.67l3.35-1.8c-6.38-2-12.53-3.6-18.46-5.82-4.34-1.63-7.2-4.68-9.43-9.26a73.34,73.34,0,0,1-5.11-12.64c-.69-2.48-.81-2.45-6.11-2,.58,1.76,1.13,3.41,1.73,5.24-1.94,1.65-3.06.35-3.8-1.34-4.23-9.69-6.07-19.57-4.59-30.33.88-6.41-.51-13.13-.9-20.17-14.49,5.15-28.76,9.47-41.33,18.53-2.35-5.92-4.22-11.37-6.67-16.53a38.72,38.72,0,0,0-5.76-8.19c-1.28-1.51-5.83.9-7.64,3.85-1.34,2.16-2.63,4.37-4.12,6.42a2.51,2.51,0,0,1-2.19.9c-5.89-2.51-11.22-5.61-12.85-12.57a10.73,10.73,0,0,1,6.46-12.73c5-1.86,9.94-4,15.11-5.11,5-1,10.13-1.82,15.34-.48,2,.52,4.31.13,6.46,0s4.49-.48,7-.75l-1.56-5.87c-5.33-1.78-6.16,5.74-9.79,5.3-.68-1.83-1.14-3.1-1.84-5a21.86,21.86,0,0,0,3.54.49,10,10,0,0,0,3.21-.69c3.56-1.33,7.07-2.78,10.63-4.14a2.41,2.41,0,0,1,1.48.14c-6.05,2-6.05,2-4.25,6.56.71-2.65,1.77-3.61,4.31-2.14,3.64,2.1,3-1.63,3.95-3.72l12.73,3.64c-.38-3-1.36-6.52,4.92-4.91l-4.16-5.05c3.54-.48,4.23.45,4.75,6.26.64-1.56,1.29-3.11,2.06-5,1.3,1,3,.82.67,3.82-5.64,7.13-13.32,11.54-20.23,16.9-2.75,2.13-6.82,2.56-9.59,3.52l43.47,4.15,0,.48L257,183.2l-.08.45a13,13,0,0,0,2.24.53c18.49,1.1,37,2.24,55.48,3.17,1.91.1,3.88-1,5.83-1.58,4.88,1.45,9-1.2,13.33-2.68l-13.44,2.83c.1-1,.21-2,.35-3.43l-3.8-.28-.11.61,1.65.68-.06,1-53-2.23v-1.47l60.65-2.09.16.9-5.69,1.64c4.13,1.06,5.79.52,9.86-2.93,2.41,1.58,7.08.64,10-2l-.27-.94-9.8,3.06c-.09-.33-.13-.92-.26-.94-3.7-.54-7.79-2.28-11-1.28-8.67,2.68-17.43,2.1-26.2,2.35-1.9.05-3.81,0-6.76,0l2.66-2.29-29.56,3.88-.27-1.3a23.63,23.63,0,0,1,11.52-3.13c1.9,0,4.74,1.61,5.69-1.89.07-.23,1.27-.08,1.92-.24,1.85-.45,4.64-.41,5.35-1.59,2.59-4.29,6.45-2.87,9.8-2.61,4.6.36,9.1,1.8,13.7,2.26,5.6.56,11.25.7,16.88.82,6.09.13,12.18,0,18,0-.53-1.21-.51-1.48-9.24-2.21-3.11-.26-6.36,1.14-9.54,1.78l-.27-1,3.3-2c-13.92,2.43-26.91,1.3-38-8.45A4.58,4.58,0,0,1,287,157l9.9,4.27.31-.67c-1.92-1-3.84-1.93-5.78-2.86-2.69-1.29-2.44-3.25-1.39-5.5a2.48,2.48,0,0,0,0-1.66c-1.1-3.34-.21-6,2.86-8,2-1.35,4.21-2.48,6.11-4,1.12-.88,1.8-2.31,2.75-3.43a12,12,0,0,1,1.62-1.37l.89,2.19c3.09-1.35,3.23-2,0-4.47l4.74-2.9-1.11-.52c2.17-2.7,2-2.21,5.14-1.23,2,.63,4.6-.43,6.79-.71v2.75a12.77,12.77,0,0,1,2.4-.54c1.47-.05,3.39-1.8,4.28,1.06.08.23,2-.14,3.43-.25l-1.63,3.92a28.17,28.17,0,0,0,3.73,0c5.9-.86,5.95-.82,4.23,5.11l-6.66-1.52c-.23.59-.47,1.18-.7,1.76,2.44,1.52,4.89,3,7.72,4.77l-12.74,5,8.5,1.86c-4.57,1.82-8.74,3.42-12.84,5.17-.91.38-3.36.38-1.3,2.48-1.87,1.22-3.6,3-5.64,3.52-2.37.62-5,.14-7.82.14.32.65.39.93.46.93,7.48.22,15,.57,22.42.55a14.33,14.33,0,0,1,10.2,3.54c1,.93,2.26,1.68,3.88,2.87V166l6.69-2.73c-5.47-2.42-10.55-4.34-11.61-10.68,4.3.21,8,5.87,13.11,1l.16,1.1-4.45,4.06-5.4-4.06-.75.76a23.68,23.68,0,0,0,3.64,3.46c6.43,3.91,5.91,3.84,11.14.19,1.7-1.18,3.44-2.29,5.16-3.44l.53.75-3.57,4.2,3,.14-15.12,11,.12.55a9.61,9.61,0,0,0,2.44-.73c4.32-2.66,8.49-5.59,12.94-8,1.36-.73,3.48-.23,5.22,0,4.07.45,7.48-.7,10.63-4.5-1.12,5.38-4.36,8.06-8.23,10.27l.62.71c2.25-1.68,4.47-3.4,6.76-5,.76-.53,1.79-1.23,2.57-1.1a53.07,53.07,0,0,0,20.93-.62c1-.23,2.09.14,3.08-.06a12.93,12.93,0,0,0,2.7-1.14l-.28-1.16h5.31l-2.63-4c1.85.94,3,1.26,3.77,2,2.38,2.12,4.51,1.72,6.8-.15,1.39-1.14,3-2.05,5.16-3.51-.18,2.51-.31,4.33-.51,7.16l5.2-5.85c-.1-.22.1.06.15.36a11.15,11.15,0,0,1,0,1.43l2.73-.47a20.58,20.58,0,0,1-.15-3.17,7.21,7.21,0,0,1,.79-1.93,7.46,7.46,0,0,1,1.74,1.3c.47.63.56,1.52,1,2.21.53.9,1.33,2.47,1.83,2.4a13.92,13.92,0,0,0,4.16-1.71c.92-.46,1.7-1.44,2.65-1.61,5.23-1,10.49-1.73,15.74-2.61a17.54,17.54,0,0,0,4.63-1.38c-4.19-.62-8.44,1.5-13.25.16,6.21-4.24,15.45-4,18.23.3l-15.51,4.82.1.67c2.12,0,4.25-.12,6.35.06a3.45,3.45,0,0,1,2.08,1.34c.2.25-.4,1.65-.65,1.65-.71,0-1.42-.53-2.16-.66-1.47-.25-3-.36-4.44-.54l-.11.89a3.78,3.78,0,0,1,1.09.36c.73.5,1.4,1.09,2.1,1.64-.7.48-1.42,1.41-2.11,1.39-5.38-.14-10.78-.34-16.15-.78-2.05-.16-4-1.4-4.71,2-.15.76-2.45,1.08-4.23,1.79-.46,1.71-1,3.92-1.52,5.73-6.24,0-12.21,0-18.19,0-1.84,0-3.68.27-5.52.46-17.05,1.83-34.09,3.73-51.15,5.44-3.34.34-4.81,1.3-4.84,5,0,5.84-1,11.7.9,17.4a32.75,32.75,0,0,0,2.81,6.21c1.67,2.83,3.64,5.49,5.78,8.68-5.24-1.16-9.84-2-14.34-3.26-1.29-.35-2.31-1.69-3.64-2.72,1.65-1.9,2.82-3.68,4.4-4.92s1.09-2.29.17-3.46c-2.64-3.34-6.61-2.89-8.91.52-1.34,2-3.59,3.33-4.79,4.39l-5.73-.63c1.27-8.93,8.39-13.82,15.36-18.83l-.59-.84a13.78,13.78,0,0,0-3.42,1.52c-4.41,3.7-9.7,4.94-15.16,5.19-9.55.44-19.12.73-28.68.64-11.9-.1-23-4.15-34.22-7.63-4.33-1.35-9.12-1.68-13-3.72-5.26-2.72-10.59-.88-15.8-1.72a30.94,30.94,0,0,1-5-1.11,20.54,20.54,0,0,0-12.42-.34c7,1,13.27,1.85,19.49,2.86,3.69.6,7.32,1.54,11,2.21a10.67,10.67,0,0,0,2.74-.17c1.18,6.16,6-.34,8,2.58l-2.64.18-.27.83a28.53,28.53,0,0,0,3.46,1.41c7.61,2,15.27,3.89,22.83,6.08,6.54,1.9,13,4,19.42,6.36,3,1.11,5.82,2.31,9.07,1.6.79,3.08,1.89,3.42,4.78,1.47C308.35,201.53,307.28,199.62,304.39,200Zm-82.11-15.17-.13-1.11L209.5,185l.12,1.08Zm109.17-17.25c0-.57.07-1.14.11-1.7l-8.16-.54-.13,1.22Z" transform="translate(-184.01 -21.59)"/><path d="M309.94,274.34c3.14,6.67,6.89,13.51,9.59,20.75,2.3,6.16,4.11,12.66,2,19.5-.59,1.9,0,4.15-.23,6.2-.17,1.35-.7,3.65-1.36,3.76-1.74.3-4.34.27-5.35-.8a33,33,0,0,1-6.51-9.28c-4.1-9.67-7.71-19.55-11.37-29.4a15.36,15.36,0,0,1-.5-5.14c0-2.22,1.29-3.21,3.44-3.56C303,275.83,306.34,275.06,309.94,274.34Z" transform="translate(-184.01 -21.59)"/><path d="M485,217.67c2.37,6.51,2.28,12.87,1.19,19.15-1.37,7.86-3.24,15.64-5,23.43a17.66,17.66,0,0,1-1.53,3.85c-1.23,2.49-3.05,3.24-5.7,2-2-.95-4.07-1.61-5.2-2.05,1-5.35,1.6-10.45,2.86-15.39,1.22-4.76,3.12-9.35,4.66-14a3.49,3.49,0,0,0,0-1.87c-.32-1.24-.78-2.44-1.3-4h-2.3c2.07-3.49,4-6.75,5.94-9.95a14.38,14.38,0,0,1,2-2.15l1.52,3Z" transform="translate(-184.01 -21.59)"/><path d="M388.64,154.68c3.7,1.49,4,8.16,9.67,6.91l-9,1.56C389,160.07,388.85,157.51,388.64,154.68Z" transform="translate(-184.01 -21.59)"/><path d="M317.13,119c-3.78,2.74-7.28,4.35-11.61,3.11C306.94,119.15,312.13,117.67,317.13,119Z" transform="translate(-184.01 -21.59)"/><path d="M345,219.24l-11.46-4.76c4.11-1.94,8.66-.31,11.84,3.71Z" transform="translate(-184.01 -21.59)"/><path class="cls-2" d="M304.39,200c2.89-.41,4,1.5,4.75,3.75-2.89,1.95-4,1.61-4.78-1.47Z" transform="translate(-184.01 -21.59)"/><path class="cls-2" d="M320.34,185.92l13.44-2.83c-4.34,1.48-8.45,4.13-13.33,2.68Z" transform="translate(-184.01 -21.59)"/><path d="M357.67,154.19,350,159.8l-.62-.91C351.38,156.71,353.25,154.25,357.67,154.19Z" transform="translate(-184.01 -21.59)"/><path class="cls-2" d="M330.34,178.44l9.8-3.06.27.94c-2.94,2.67-7.61,3.61-10,2Z" transform="translate(-184.01 -21.59)"/><path class="cls-2" d="M222.28,184.86l-12.66,1.25L209.5,185l12.65-1.28Z" transform="translate(-184.01 -21.59)"/><path class="cls-2" d="M331.45,167.61l-8.18-1,.13-1.22,8.16.54C331.52,166.47,331.48,167,331.45,167.61Z" transform="translate(-184.01 -21.59)"/></svg>