# This file uses centimeters as units for non-parametric coordinates.

mtllib whiteboard_wood_phys.mtl
g default
v -95.002396 239.805145 -2.797751
v 86.420326 239.805145 -2.797751
v 86.420326 79.706482 -2.797751
v -95.002396 79.706482 -2.797751
v 86.420326 239.805145 1.535394
v 86.420326 79.706482 1.535394
v -95.002396 239.805145 1.535394
v -95.002396 79.706482 1.535394
vt 0.000000 0.000000
vt 1.000000 0.000000
vt 1.000000 1.000000
vt 0.000000 1.000000
vt 0.000000 0.000000
vt 1.000000 0.000000
vt 1.000000 1.000000
vt 0.000000 1.000000
vt 0.000000 0.000000
vt 1.000000 0.000000
vt 1.000000 1.000000
vt 0.000000 1.000000
vt 0.000000 0.000000
vt 1.000000 0.000000
vt 1.000000 1.000000
vt 0.000000 1.000000
vt 0.000000 0.000000
vt 1.000000 0.000000
vt 1.000000 1.000000
vt 0.000000 1.000000
vt 0.000000 0.000000
vt 1.000000 0.000000
vt 1.000000 1.000000
vt 0.000000 1.000000
vn 0.000000 0.000000 -1.000000
vn 0.000000 0.000000 -1.000000
vn 0.000000 0.000000 -1.000000
vn 0.000000 0.000000 -1.000000
vn 1.000000 0.000000 0.000000
vn 1.000000 0.000000 0.000000
vn 1.000000 0.000000 0.000000
vn 1.000000 0.000000 0.000000
vn 0.000000 0.000000 1.000000
vn 0.000000 0.000000 1.000000
vn 0.000000 0.000000 1.000000
vn 0.000000 0.000000 1.000000
vn -1.000000 0.000000 0.000000
vn -1.000000 0.000000 0.000000
vn -1.000000 0.000000 0.000000
vn -1.000000 0.000000 0.000000
vn 0.000000 -1.000000 0.000000
vn 0.000000 -1.000000 0.000000
vn 0.000000 -1.000000 0.000000
vn 0.000000 -1.000000 0.000000
vn 0.000000 1.000000 0.000000
vn 0.000000 1.000000 0.000000
vn 0.000000 1.000000 0.000000
vn 0.000000 1.000000 0.000000
s off
g polySurface28 polySurface19
usemtl initialShadingGroup
f 1/1/1 2/2/2 3/3/3 4/4/4
f 2/5/5 5/6/6 6/7/7 3/8/8
f 5/9/9 7/10/10 8/11/11 6/12/12
f 7/13/13 1/14/14 4/15/15 8/16/16
f 4/17/17 3/18/18 6/19/19 8/20/20
f 7/21/21 5/22/22 2/23/23 1/24/24
g default
v 79.147446 82.474892 2.304640
v 79.147545 5.452213 -15.993647
v 87.205902 5.452213 -15.993647
v 87.205803 82.474892 2.304640
v 87.205902 5.452213 -23.430016
v 87.205803 82.474892 -5.131728
v 79.147545 5.452213 -23.430016
v 79.147446 82.474892 -5.131728
vt 0.000000 0.000000
vt 1.000000 0.000000
vt 1.000000 1.000000
vt 0.000000 1.000000
vt 0.000000 0.000000
vt 1.000000 0.000000
vt 1.000000 1.000000
vt 0.000000 1.000000
vt 0.000000 0.000000
vt 1.000000 0.000000
vt 1.000000 1.000000
vt 0.000000 1.000000
vt 0.000000 0.000000
vt 1.000000 0.000000
vt 1.000000 1.000000
vt 0.000000 1.000000
vt 0.000000 0.000000
vt 1.000000 0.000000
vt 1.000000 1.000000
vt 0.000000 1.000000
vt 0.000000 0.000000
vt 1.000000 0.000000
vt 1.000000 1.000000
vt 0.000000 1.000000
vn 0.000000 -0.245499 0.969397
vn 0.000000 -0.245499 0.969397
vn 0.000000 -0.245499 0.969397
vn 0.000000 -0.245499 0.969397
vn 1.000000 0.000000 0.000000
vn 1.000000 0.000000 0.000000
vn 1.000000 0.000000 0.000000
vn 1.000000 0.000000 0.000000
vn 0.000000 0.245499 -0.969397
vn 0.000000 0.245499 -0.969397
vn 0.000000 0.245499 -0.969397
vn 0.000000 0.245499 -0.969397
vn -1.000000 0.000000 0.000000
vn -1.000000 0.000000 0.000000
vn -1.000000 0.000000 0.000000
vn -1.000000 0.000000 0.000000
vn 0.000000 -1.000000 0.000000
vn 0.000000 -1.000000 0.000000
vn 0.000000 -1.000000 0.000000
vn 0.000000 -1.000000 0.000000
vn 0.000000 1.000000 0.000000
vn 0.000000 1.000000 0.000000
vn 0.000000 1.000000 0.000000
vn 0.000000 1.000000 0.000000
s off
g polySurface19 polySurface29
usemtl initialShadingGroup
f 9/25/25 10/26/26 11/27/27 12/28/28
f 12/29/29 11/30/30 13/31/31 14/32/32
f 14/33/33 13/34/34 15/35/35 16/36/36
f 16/37/37 15/38/38 10/39/39 9/40/40
f 10/41/41 15/42/42 13/43/43 11/44/44
f 16/45/45 9/46/46 12/47/47 14/48/48
g default
v -93.489754 99.096681 1.470636
v 85.044334 99.096681 1.470636
v 85.044334 97.562712 1.213714
v -93.489754 97.562712 1.213714
v 85.044334 95.444999 17.359593
v 85.044334 94.050469 16.670850
v -93.489754 95.444999 17.359593
v -93.489754 94.050469 16.670850
vt 0.000000 0.000000
vt 1.000000 0.000000
vt 1.000000 1.000000
vt 0.000000 1.000000
vt 0.000000 0.000000
vt 1.000000 0.000000
vt 1.000000 1.000000
vt 0.000000 1.000000
vt 0.000000 0.000000
vt 1.000000 0.000000
vt 1.000000 1.000000
vt 0.000000 1.000000
vt 0.000000 0.000000
vt 1.000000 0.000000
vt 1.000000 1.000000
vt 0.000000 1.000000
vt 0.000000 0.000000
vt 1.000000 0.000000
vt 1.000000 1.000000
vt 0.000000 1.000000
vt 0.000000 0.000000
vt 1.000000 0.000000
vt 1.000000 1.000000
vt 0.000000 1.000000
vn 0.000000 0.165187 -0.986262
vn 0.000000 0.165187 -0.986262
vn 0.000000 0.165187 -0.986262
vn 0.000000 0.165187 -0.986262
vn 1.000000 0.000000 0.000000
vn 1.000000 0.000000 0.000000
vn 1.000000 0.000000 0.000000
vn 1.000000 0.000000 0.000000
vn 0.000000 -0.165187 0.986262
vn 0.000000 -0.165187 0.986262
vn 0.000000 -0.165187 0.986262
vn 0.000000 -0.165187 0.986262
vn -1.000000 0.000000 0.000000
vn -1.000000 0.000000 0.000000
vn -1.000000 0.000000 0.000000
vn -1.000000 0.000000 0.000000
vn 0.000000 -0.986262 -0.165187
vn 0.000000 -0.986262 -0.165187
vn 0.000000 -0.986262 -0.165187
vn 0.000000 -0.986262 -0.165187
vn 0.000000 0.986262 0.165187
vn 0.000000 0.986262 0.165187
vn 0.000000 0.986262 0.165187
vn 0.000000 0.986262 0.165187
s off
g polySurface19 polySurface30
usemtl initialShadingGroup
f 17/49/49 18/50/50 19/51/51 20/52/52
f 18/53/53 21/54/54 22/55/55 19/56/56
f 21/57/57 23/58/58 24/59/59 22/60/60
f 23/61/61 17/62/62 20/63/63 24/64/64
f 20/65/65 19/66/66 22/67/67 24/68/68
f 23/69/69 21/70/70 18/71/71 17/72/72
g default
v 79.147446 82.474892 6.066050
v 79.147545 5.452213 24.754549
v 87.205902 5.452213 24.754549
v 87.205803 82.474892 6.066050
v 87.205902 5.452213 17.318180
v 87.205803 82.474892 -1.370319
v 79.147545 5.452213 17.318180
v 79.147446 82.474892 -1.370319
vt 0.000000 0.000000
vt 1.000000 0.000000
vt 1.000000 1.000000
vt 0.000000 1.000000
vt 0.000000 0.000000
vt 1.000000 0.000000
vt 1.000000 1.000000
vt 0.000000 1.000000
vt 0.000000 0.000000
vt 1.000000 0.000000
vt 1.000000 1.000000
vt 0.000000 1.000000
vt 0.000000 0.000000
vt 1.000000 0.000000
vt 1.000000 1.000000
vt 0.000000 1.000000
vt 0.000000 0.000000
vt 1.000000 0.000000
vt 1.000000 1.000000
vt 0.000000 1.000000
vt 0.000000 0.000000
vt 1.000000 0.000000
vt 1.000000 1.000000
vt 0.000000 1.000000
vn 0.000000 0.250410 0.968140
vn 0.000000 0.250410 0.968140
vn 0.000000 0.250410 0.968140
vn 0.000000 0.250410 0.968140
vn 1.000000 0.000000 0.000000
vn 1.000000 0.000000 0.000000
vn 1.000000 0.000000 0.000000
vn 1.000000 0.000000 0.000000
vn 0.000000 -0.250410 -0.968140
vn 0.000000 -0.250410 -0.968140
vn 0.000000 -0.250410 -0.968140
vn 0.000000 -0.250410 -0.968140
vn -1.000000 0.000000 0.000000
vn -1.000000 0.000000 0.000000
vn -1.000000 0.000000 0.000000
vn -1.000000 0.000000 0.000000
vn 0.000000 -1.000000 0.000000
vn 0.000000 -1.000000 0.000000
vn 0.000000 -1.000000 0.000000
vn 0.000000 -1.000000 0.000000
vn 0.000000 1.000000 0.000000
vn 0.000000 1.000000 0.000000
vn 0.000000 1.000000 0.000000
vn 0.000000 1.000000 0.000000
s off
g polySurface19 polySurface31
usemtl initialShadingGroup
f 25/73/73 26/74/74 27/75/75 28/76/76
f 28/77/77 27/78/78 29/79/79 30/80/80
f 30/81/81 29/82/82 31/83/83 32/84/84
f 32/85/85 31/86/86 26/87/87 25/88/88
f 26/89/89 31/90/90 29/91/91 27/92/92
f 32/93/93 25/94/94 28/95/95 30/96/96
g default
v -95.429489 82.474884 6.066050
v -95.429390 5.452213 24.754549
v -87.371124 5.452213 24.754549
v -87.371223 82.474884 6.066050
v -87.371124 5.452213 17.318180
v -87.371223 82.474884 -1.370319
v -95.429390 5.452213 17.318180
v -95.429489 82.474884 -1.370319
vt 0.000000 0.000000
vt 1.000000 0.000000
vt 1.000000 1.000000
vt 0.000000 1.000000
vt 0.000000 0.000000
vt 1.000000 0.000000
vt 1.000000 1.000000
vt 0.000000 1.000000
vt 0.000000 0.000000
vt 1.000000 0.000000
vt 1.000000 1.000000
vt 0.000000 1.000000
vt 0.000000 0.000000
vt 1.000000 0.000000
vt 1.000000 1.000000
vt 0.000000 1.000000
vt 0.000000 0.000000
vt 1.000000 0.000000
vt 1.000000 1.000000
vt 0.000000 1.000000
vt 0.000000 0.000000
vt 1.000000 0.000000
vt 1.000000 1.000000
vt 0.000000 1.000000
vn 0.000000 0.250410 0.968140
vn 0.000000 0.250410 0.968140
vn 0.000000 0.250410 0.968140
vn 0.000000 0.250410 0.968140
vn 1.000000 0.000000 0.000000
vn 1.000000 0.000000 0.000000
vn 1.000000 0.000000 0.000000
vn 1.000000 0.000000 0.000000
vn 0.000000 -0.250410 -0.968140
vn 0.000000 -0.250410 -0.968140
vn 0.000000 -0.250410 -0.968140
vn 0.000000 -0.250410 -0.968140
vn -1.000000 0.000000 0.000000
vn -1.000000 0.000000 0.000000
vn -1.000000 0.000000 0.000000
vn -1.000000 0.000000 0.000000
vn 0.000000 -1.000000 0.000000
vn 0.000000 -1.000000 0.000000
vn 0.000000 -1.000000 0.000000
vn 0.000000 -1.000000 0.000000
vn 0.000000 1.000000 0.000000
vn 0.000000 1.000000 0.000000
vn 0.000000 1.000000 0.000000
vn 0.000000 1.000000 0.000000
s off
g polySurface19 polySurface32
usemtl initialShadingGroup
f 33/97/97 34/98/98 35/99/99 36/100/100
f 36/101/101 35/102/102 37/103/103 38/104/104
f 38/105/105 37/106/106 39/107/107 40/108/108
f 40/109/109 39/110/110 34/111/111 33/112/112
f 34/113/113 39/114/114 37/115/115 35/116/116
f 40/117/117 33/118/118 36/119/119 38/120/120
g default
v -95.429489 82.474884 2.304640
v -95.429390 5.452213 -15.993647
v -87.371124 5.452213 -15.993647
v -87.371223 82.474884 2.304640
v -87.371124 5.452213 -23.430016
v -87.371223 82.474884 -5.131728
v -95.429390 5.452213 -23.430016
v -95.429489 82.474884 -5.131728
vt 0.000000 0.000000
vt 1.000000 0.000000
vt 1.000000 1.000000
vt 0.000000 1.000000
vt 0.000000 0.000000
vt 1.000000 0.000000
vt 1.000000 1.000000
vt 0.000000 1.000000
vt 0.000000 0.000000
vt 1.000000 0.000000
vt 1.000000 1.000000
vt 0.000000 1.000000
vt 0.000000 0.000000
vt 1.000000 0.000000
vt 1.000000 1.000000
vt 0.000000 1.000000
vt 0.000000 0.000000
vt 1.000000 0.000000
vt 1.000000 1.000000
vt 0.000000 1.000000
vt 0.000000 0.000000
vt 1.000000 0.000000
vt 1.000000 1.000000
vt 0.000000 1.000000
vn 0.000000 -0.245499 0.969397
vn 0.000000 -0.245499 0.969397
vn 0.000000 -0.245499 0.969397
vn 0.000000 -0.245499 0.969397
vn 1.000000 0.000000 0.000000
vn 1.000000 0.000000 0.000000
vn 1.000000 0.000000 0.000000
vn 1.000000 0.000000 0.000000
vn 0.000000 0.245499 -0.969397
vn 0.000000 0.245499 -0.969397
vn 0.000000 0.245499 -0.969397
vn 0.000000 0.245499 -0.969397
vn -1.000000 0.000000 0.000000
vn -1.000000 0.000000 0.000000
vn -1.000000 0.000000 0.000000
vn -1.000000 0.000000 0.000000
vn 0.000000 -1.000000 0.000000
vn 0.000000 -1.000000 0.000000
vn 0.000000 -1.000000 0.000000
vn 0.000000 -1.000000 0.000000
vn 0.000000 1.000000 0.000000
vn 0.000000 1.000000 0.000000
vn 0.000000 1.000000 0.000000
vn 0.000000 1.000000 0.000000
s off
g polySurface19 polySurface33
usemtl initialShadingGroup
f 41/121/121 42/122/122 43/123/123 44/124/124
f 44/125/125 43/126/126 45/127/127 46/128/128
f 46/129/129 45/130/130 47/131/131 48/132/132
f 48/133/133 47/134/134 42/135/135 41/136/136
f 42/137/137 47/138/138 45/139/139 43/140/140
f 48/141/141 41/142/142 44/143/143 46/144/144
g default
v -88.173874 103.987945 25.577308
v 79.728455 103.987945 25.577308
v 79.728455 95.884191 14.182639
v -88.173874 95.884191 14.182636
v 79.728455 102.974977 26.610693
v 79.728455 94.871223 15.216021
v -88.173874 102.974977 26.610693
v -88.173874 94.871223 15.216017
vt 0.000000 0.000000
vt 1.000000 0.000000
vt 1.000000 1.000000
vt 0.000000 1.000000
vt 0.000000 0.000000
vt 1.000000 0.000000
vt 1.000000 1.000000
vt 0.000000 1.000000
vt 0.000000 0.000000
vt 1.000000 0.000000
vt 1.000000 1.000000
vt 0.000000 1.000000
vt 0.000000 0.000000
vt 1.000000 0.000000
vt 1.000000 1.000000
vt 0.000000 1.000000
vt 0.000000 0.000000
vt 1.000000 0.000000
vt 1.000000 1.000000
vt 0.000000 1.000000
vt 0.000000 0.000000
vt 1.000000 0.000000
vt 1.000000 1.000000
vt 0.000000 1.000000
vn 0.000000 0.464104 -0.885781
vn 0.000000 0.464104 -0.885781
vn 0.000000 0.464104 -0.885781
vn 0.000000 0.464104 -0.885781
vn 1.000000 0.000000 0.000000
vn 1.000000 0.000000 0.000000
vn 1.000000 0.000000 0.000000
vn 1.000000 0.000000 0.000000
vn 0.000000 -0.464104 0.885781
vn 0.000000 -0.464104 0.885781
vn 0.000000 -0.464104 0.885781
vn 0.000000 -0.464104 0.885781
vn -1.000000 0.000000 0.000000
vn -1.000000 0.000000 0.000000
vn -1.000000 0.000000 0.000000
vn -1.000000 0.000000 0.000000
vn 0.000000 -0.885781 -0.464104
vn 0.000000 -0.885781 -0.464104
vn 0.000000 -0.885781 -0.464104
vn 0.000000 -0.885781 -0.464104
vn 0.000000 0.885781 0.464104
vn 0.000000 0.885781 0.464104
vn 0.000000 0.885781 0.464104
vn 0.000000 0.885781 0.464104
s off
g polySurface19 polySurface34
usemtl initialShadingGroup
f 49/145/145 50/146/146 51/147/147 52/148/148
f 50/149/149 53/150/150 54/151/151 51/152/152
f 53/153/153 55/154/154 56/155/155 54/156/156
f 55/157/157 49/158/158 52/159/159 56/160/160
f 52/161/161 51/162/162 54/163/163 56/164/164
f 55/165/165 53/166/166 50/167/167 49/168/168
