<svg xmlns="http://www.w3.org/2000/svg" xmlns:xlink="http://www.w3.org/1999/xlink" version="1.1" x="0px" y="0px" viewBox="0 0 100 125" enable-background="new 0 0 100 100" xml:space="preserve"><ellipse cx="50" cy="24.886" rx="16.364" ry="19.637"/><path d="M89.272,65.796c0-12.593-9.716-23.101-22.653-25.607C62.72,45.817,56.73,49.432,50,49.432  c-6.731,0-12.72-3.615-16.618-9.243c-12.939,2.502-22.655,13.014-22.655,25.607c0,0.626,0.055,1.182,0.103,1.751  c-0.035,0.323-0.103,0.636-0.103,0.969v17.473c0,5.113,4.344,9.262,9.703,9.262h59.139c5.356,0,9.703-4.148,9.703-9.262V68.516  c0-0.333-0.066-0.646-0.102-0.969C89.219,66.978,89.272,66.422,89.272,65.796z M76.182,69.068H63.091v-6.546h13.091V69.068z"/><text x="0" y="115" fill="#000000" font-size="5px" font-weight="bold" font-family="'Helvetica Neue', Helvetica, Arial-Unicode, Arial, Sans-serif">Created by Chris Robinson</text><text x="0" y="120" fill="#000000" font-size="5px" font-weight="bold" font-family="'Helvetica Neue', Helvetica, Arial-Unicode, Arial, Sans-serif">from the Noun Project</text></svg>