<?xml version="1.0" encoding="utf-8"?>
<!-- Generator: Adobe Illustrator 22.0.1, SVG Export Plug-In . SVG Version: 6.00 Build 0)  -->
<svg version="1.1" id="Layer_1" xmlns="http://www.w3.org/2000/svg" xmlns:xlink="http://www.w3.org/1999/xlink" x="0px" y="0px"
	 viewBox="0 0 50 50" style="enable-background:new 0 0 50 50;" xml:space="preserve">
<style type="text/css">
	.st0{fill:#FFFFFF;}
</style>
<path class="st0" d="M29.1,28.1v5.7c0,0.6-0.6,1-1.4,1c-0.8,0-1.4-0.5-1.4-1v-5.7c0-0.6,0.6-1,1.4-1C28.5,27,29.1,27.5,29.1,28.1"/>
<path class="st0" d="M34.9,23.9v14.2c0,0.6-0.6,1-1.4,1c-0.8,0-1.4-0.5-1.4-1V23.9c0-0.6,0.6-1,1.4-1C34.2,22.8,34.9,23.3,34.9,23.9
	"/>
<path class="st0" d="M38.1,40.3V21.5c0-0.6,0.6-1,1.4-1c0.8,0,1.4,0.5,1.4,1v18.8c0,0.6-0.6,1-1.4,1C38.8,41.3,38.1,40.9,38.1,40.3"
	/>
<path class="st0" d="M21.1,30.4c1-0.6,1.9-1.2,2.9-1.7c0.5-0.3,0.8-0.7,0.8-1.3c0-0.7,0-1.3,0-2.1c0.5,0,0.9,0,1.3,0
	c2.2,0,3.4-2,2.5-4c-1.1-2.3-2.3-4.5-3.4-6.8c-0.2-0.3-0.3-0.8-0.3-1.2c0-1.3,0-2.7,0-4c0-0.9-0.4-1.2-1.2-1.2c-4.7,0-9.5,0-14.2,0
	c-0.9,0-1.2,0.4-1.2,1.2c0,10.6,0,21.3,0,31.9c0,0.8,0.3,1.2,1.1,1.2c1.6,0,1.6,0,2.1-1.5c0.3-1.1,0.7-2.2,1-3.3
	c0.1-0.3,0.2-0.4,0.5-0.3c1.8,0.3,3.7,0.6,5.5,0.9c2.8,0.4,5.4-1.6,5.5-4.4c0-0.4-0.2-0.8-0.4-1.1C22.7,31.9,21.9,31.2,21.1,30.4z"
	/>
</svg>
