<?xml version="1.0" ?><!DOCTYPE svg  PUBLIC '-//W3C//DTD SVG 1.1//EN'  'http://www.w3.org/Graphics/SVG/1.1/DTD/svg11.dtd'><svg height="22.018px" id="Capa_1" style="enable-background:new 0 0 12.054 22.018;" version="1.1" viewBox="0 0 12.054 22.018" width="12.054px" xml:space="preserve" xmlns="http://www.w3.org/2000/svg" xmlns:xlink="http://www.w3.org/1999/xlink"><g><path d="M5.946,4.84C5.627,5.379,5.185,5.714,4.698,5.714   c-0.972,0-1.764-1.332-1.764-2.964c0-0.202,0.012-0.399,0.035-0.589h0.212C3.17,2.254,3.158,2.353,3.146,2.458   C2.922,4.399,3.633,5.397,4.599,5.561C5.394,5.695,5.69,5.086,5.946,4.84z" style="fill-rule:evenodd;clip-rule:evenodd;fill:#231F20;"/><path d="M7.102,1.345c2.494,0.225,3.773,0.951,3.773,1.397   c0,0.445-1.979,0.876-5.139,0.876C2.577,3.618,0,3.225,0,2.742c0-0.297,0.96-0.781,2.435-1.11C2.826,0.717,3.812,0,4.841,0   C5.864,0,6.657,0.584,7.102,1.345z" style="fill-rule:evenodd;clip-rule:evenodd;fill:#231F20;"/><path d="M3.668,11.514c0.149,0,1.649-1.113,1.69-2.521   C5.407,7.296,6.33,5.208,6.784,5.267c0.379,0.048-0.408,0.778-0.039,0.991c0.718,0.414,2.268,0.648,2.764,1.394   c-0.667,2.835-2.059,5.466-1.879,8.323c0.066,1.051,0.93,2.156,1.924,3.384c0.695,0.858,1.559,1.75,2.5,2.659H0.518   c1.176-2.336,2.087-4.731,2.63-6.424c0.277-0.867,0.225-2.458,0.124-2.721c-0.354-0.934-1.727-1.585-1.407-2.892   C2.005,9.401,2.386,8.013,2.716,7.27c0.403-0.907,0.909-1.254,1.376-1.387c0.165-0.046-1.316,2.052-1.378,3.466   C2.673,10.317,3.579,11.514,3.668,11.514L3.668,11.514z M9.169,18.768l-0.271-0.351C8.976,18.522,9.067,18.643,9.169,18.768z" style="fill-rule:evenodd;clip-rule:evenodd;fill:#231F20;"/></g><g/><g/><g/><g/><g/><g/><g/><g/><g/><g/><g/><g/><g/><g/><g/></svg>