<svg height="40.1224479675293" style="" version="1.1" width="40.57142639160156" xml:space="preserve" xmlns="http://www.w3.org/2000/svg" xmlns:xlink="http://www.w3.org/1999/xlink"><rect id="backgroundrect" width="100%" height="100%" x="0" y="0" fill="none" stroke="none"/><g class="currentLayer" style=""><title>Layer 1</title><g id="svg_1" class="" fill="#ffffff" fill-opacity="1"><path d="M20.95539128780365,9.281854271888733 C20.27779233455658,10.224490761756897 19.338926672935486,10.810359597206116 18.304474234580994,10.810359597206116 c-2.0646564960479736,0 -3.746969223022461,-2.329484701156616 -3.746969223022461,-5.183628082275391 c0,-0.35327020287513733 0.02548958733677864,-0.6977960467338562 0.07434462755918503,-1.0300798416137695 h0.45031604170799255 C15.058801054954529,4.75929582118988 15.033310294151306,4.932433485984802 15.007821440696716,5.116063952445984 C14.532016158103943,8.510606408119202 16.04227387905121,10.25597059726715 18.09418523311615,10.542784333229065 C19.782869696617126,10.77713167667389 20.41161572933197,9.712073922157288 20.95539128780365,9.281854271888733 z" style="fill-rule: evenodd; clip-rule: evenodd;" id="svg_2" fill="#ffffff" fill-opacity="1"/><path d="M23.4108909368515,3.169580578804016 c5.297585487365723,0.39349398016929626 8.014350891113281,1.6631680727005005 8.014350891113281,2.4431605339050293 c0,0.7782437205314636 -4.203657627105713,1.532003402709961 -10.915915489196777,1.532003402709961 C13.799190878868103,7.144744515419006 8.325302004814148,6.457441449165344 8.325302004814148,5.612741589546204 c0,-0.519412100315094 2.0391666889190674,-1.3658615350723267 5.172261714935303,-1.9412370920181274 C14.32809865474701,2.0712947845458984 16.4224933385849,0.8173605501651764 18.608227133750916,0.8173605501651764 C20.781214118003845,0.8173605501651764 22.46565091609955,1.8386961817741394 23.4108909368515,3.169580578804016 z" style="fill-rule: evenodd; clip-rule: evenodd;" id="svg_3" fill="#ffffff" fill-opacity="1"/><path d="M16.116618514060974,20.953760743141174 c0.31649571657180786,0 3.5026941299438477,-1.9464837312698364 3.5897834300994873,-4.408881664276123 C19.810484290122986,13.577059388160706 21.77105748653412,9.925435662269592 22.735416769981384,10.028618454933167 c0.8050461411476135,0.0839453935623169 -0.8666459321975708,1.3606147766113281 -0.08284115791320801,1.73312246799469 c1.5251269340515137,0.724029004573822 4.817531585693359,1.1332627534866333 5.871101379394531,2.4379141330718994 c-1.4167962074279785,4.958024978637695 -4.3735880851745605,9.559281349182129 -3.991244077682495,14.555780410766602 c0.14019273221492767,1.8380541801452637 1.975442886352539,3.7705469131469727 4.0868306159973145,5.918149948120117 c1.4762718677520752,1.5005238056182861 3.3115222454071045,3.060508966445923 5.310330390930176,4.650224685668945 H9.425602316856384 c2.4979794025421143,-4.085341930389404 4.433063983917236,-8.2738676071167 5.58646821975708,-11.23469066619873 c0.5883846879005432,-1.5162636041641235 0.4779297411441803,-4.298703670501709 0.2633923888206482,-4.7586541175842285 c-0.7519428133964539,-1.6334373950958252 -3.6683764457702637,-2.771946907043457 -2.9886538982391357,-5.057709693908691 C12.584186911582947,17.258415818214417 13.393481612205505,14.830993294715881 14.094445586204529,13.531589150428772 c0.8560252785682678,-1.5862181186676025 1.9308362007141113,-2.193073034286499 2.9228060245513916,-2.4256720542907715 c0.3504818081855774,-0.08044766634702682 -2.7953579425811768,3.58866548538208 -2.9270541667938232,6.061556816101074 C14.00310742855072,18.86037504673004 15.927571654319763,20.953760743141174 16.116618514060974,20.953760743141174 L16.116618514060974,20.953760743141174 zM27.80146825313568,33.640005707740784 l-0.5756398439407349,-0.6138506531715393 C27.391512274742126,33.20978605747223 27.58480679988861,33.42139685153961 27.80146825313568,33.640005707740784 z" style="fill-rule: evenodd; clip-rule: evenodd;" id="svg_4" fill="#ffffff" fill-opacity="1"/></g><g id="svg_5"/><g id="svg_6"/><g id="svg_7"/><g id="svg_8"/><g id="svg_9"/><g id="svg_10"/><g id="svg_11"/><g id="svg_12"/><g id="svg_13"/><g id="svg_14"/><g id="svg_15"/><g id="svg_16"/><g id="svg_17"/><g id="svg_18"/><g id="svg_19"/></g></svg>