<?xml version="1.0"?>
<svg xmlns="http://www.w3.org/2000/svg" xmlns:xlink="http://www.w3.org/1999/xlink" version="1.1" id="Capa_1" x="0px" y="0px" width="512px" height="512px" viewBox="0 0 472.521 472.521" style="enable-background:new 0 0 472.521 472.521;" xml:space="preserve"><g transform="matrix(0.904382, 0, 0, 0.904382, 22.5907, 22.5907)"><g>
	<path d="M436.578,159.876c-35.857-6.394-69.801-23.349-96.838-50.344c-27.008-27.022-43.944-60.947-50.315-96.812   c36.306-22.745,88.937-14.689,125.391,21.753C451.246,70.915,459.297,123.555,436.578,159.876z M411.525,184.934   c-34.438-9.625-66.721-27.482-93.226-53.96c-26.476-26.505-44.337-58.787-53.914-93.211   c-22.714,36.321-14.659,88.934,21.754,125.374C322.594,199.563,375.191,207.632,411.525,184.934z M267.331,346.338   c-45.294,0-77.679,28.306-106.255,53.271c-31.571,27.601-58.936,51.533-99.197,39.124c-7.966-5.866-8.202-10.66-8.291-12.288   c-0.564-10.902,12.644-25.529,19.131-30.92c0.8-0.653,1.255-1.54,1.881-2.338c10.631,3.701,22.845,1.563,31.362-6.931   L312.2,216.486c-17.058-7.241-33.313-17.723-47.482-31.911c-14.192-14.186-24.643-30.459-31.872-47.485L63.093,343.347   c-7.552,7.551-9.743,18.001-7.685,27.713c-0.637,0.388-1.349,0.564-1.941,1.041c-3.244,2.665-31.584,26.771-30.177,55.762   c0.504,10.193,4.947,24.908,23.352,37.229l3.629,1.773c11.803,3.939,22.803,5.656,33.141,5.656   c40.335,0,70.424-26.294,97.626-50.077c26.934-23.546,52.386-45.784,86.294-45.784c78.159,0,138.659,83.751,139.279,84.577   c4.826,6.902,14.338,8.438,21.119,3.589c6.842-4.831,8.438-14.281,3.612-21.114C428.527,439.74,361.274,346.338,267.331,346.338z" data-original="#000000" class="active-path" fill="#000000"/>
</g></g> </svg>
