# 3ds Max Wavefront OBJ Exporter v0.97b - (c)2007 guruware
# File Created: 09.09.2017 15:09:13

mtllib Picture frame.mtl

#
# object Box001
#

v  520905.0625 781620.0000 -842155.5000
v  530690.1875 781620.0000 -856130.0625
v  934686.9375 781620.0000 -573248.5000
v  924901.8125 781620.0000 -559273.9375
v  520905.0625 1440650.5000 -842155.5000
v  924901.8125 1440650.5000 -559273.9375
v  934686.9375 1440650.5000 -573248.5000
v  530690.1875 1440650.5000 -856130.0625
v  899247.8750 808278.4375 -569113.9375
v  538925.8125 808278.4375 -821414.1250
v  528007.1250 794949.2500 -829059.5000
v  910166.5000 794949.2500 -561468.6250
v  899247.8750 1413992.0000 -569113.9375
v  910166.5000 1427321.2500 -561468.6250
v  538925.8125 1413992.0000 -821414.1250
v  528007.1250 1427321.2500 -829059.5000
v  563446.1875 821607.6875 -833194.0625
v  901930.9375 821607.6875 -596184.5000
v  563446.1875 1400662.7500 -833194.0625
v  901930.9375 1400662.7500 -596184.5000
v  553661.0625 821607.6875 -819219.5000
v  892145.8125 821607.6875 -582209.9375
v  892145.8125 1400662.7500 -582209.9375
v  553661.0625 1400662.7500 -819219.5000
v  542742.4375 808278.4375 -826864.8125
v  903064.4375 808278.4375 -574564.6250
v  913983.1250 794949.2500 -566919.2500
v  531823.7500 794949.2500 -834510.1250
v  903064.4375 1413992.0000 -574564.6250
v  913983.1250 1427321.2500 -566919.2500
v  542742.4375 1413992.0000 -826864.8125
v  531823.7500 1427321.2500 -834510.1250
# 32 vertices

vn 0.0000 -1.0000 -0.0000
vn 0.0000 1.0000 -0.0000
vn 0.8192 0.0000 0.5736
vn -0.8192 0.0000 -0.5736
vn -0.5736 0.0000 0.8192
vn 0.5736 0.0000 -0.8192
vn -0.0000 1.0000 0.0000
vn -0.0000 -1.0000 0.0000
# 8 vertex normals

vt 1.0000 0.0000 0.0000
vt 1.0000 1.0000 0.0000
vt 0.0000 1.0000 0.0000
vt 0.0000 0.0000 0.0000
# 4 texture coords

g Box001
usemtl _crayfishdiffuse
s off
f -32/-4/-8 -31/-3/-8 -30/-2/-8 -29/-1/-8 
f -28/-1/-7 -27/-4/-7 -26/-3/-7 -25/-2/-7 
f -29/-1/-6 -30/-4/-6 -26/-3/-6 -27/-2/-6 
f -31/-1/-5 -32/-4/-5 -28/-3/-5 -25/-2/-5 
usemtl 02___Default
f -24/-4/-4 -23/-1/-4 -22/-1/-4 -21/-4/-4 
f -20/-3/-4 -24/-4/-4 -21/-4/-4 -19/-3/-4 
f -18/-2/-4 -20/-3/-4 -19/-3/-4 -17/-2/-4 
f -23/-1/-4 -18/-2/-4 -17/-2/-4 -22/-1/-4 
usemtl _crayfishdiffuse
f -30/-1/-3 -31/-4/-3 -16/-4/-3 -15/-1/-3 
f -31/-4/-3 -25/-3/-3 -14/-3/-3 -16/-4/-3 
f -25/-3/-3 -26/-2/-3 -13/-2/-3 -14/-3/-3 
f -26/-2/-3 -30/-1/-3 -15/-1/-3 -13/-2/-3 
f -12/-1/-7 -11/-4/-7 -15/-1/-7 -16/-4/-7 
f -11/-4/-5 -10/-3/-5 -13/-2/-5 -15/-1/-5 
f -10/-3/-8 -9/-2/-8 -14/-3/-8 -13/-2/-8 
f -9/-2/-6 -12/-1/-6 -16/-4/-6 -14/-3/-6 
f -11/-4/-4 -12/-1/-4 -8/-1/-4 -7/-4/-4 
f -32/-1/-4 -29/-4/-4 -6/-4/-4 -5/-1/-4 
f -10/-3/-4 -11/-4/-4 -7/-4/-4 -4/-3/-4 
f -29/-4/-4 -27/-3/-4 -3/-3/-4 -6/-4/-4 
f -9/-2/-4 -10/-3/-4 -4/-3/-4 -2/-2/-4 
f -27/-3/-4 -28/-2/-4 -1/-2/-4 -3/-3/-4 
f -12/-1/-4 -9/-2/-4 -2/-2/-4 -8/-1/-4 
f -28/-2/-4 -32/-1/-4 -5/-1/-4 -1/-2/-4 
f -7/-4/-2 -8/-1/-2 -23/-1/-2 -24/-4/-2 
f -8/-1/-6 -2/-2/-6 -18/-2/-6 -23/-1/-6 
f -2/-2/-8 -4/-3/-8 -20/-3/-8 -18/-2/-8 
f -4/-3/-5 -7/-4/-5 -24/-4/-5 -20/-3/-5 
f -5/-1/-1 -6/-4/-1 -21/-4/-1 -22/-1/-1 
f -6/-4/-6 -3/-3/-6 -19/-3/-6 -21/-4/-6 
f -3/-3/-7 -1/-2/-7 -17/-2/-7 -19/-3/-7 
f -1/-2/-5 -5/-1/-5 -22/-1/-5 -17/-2/-5 
# 32 polygons

