<?xml version="1.0" encoding="utf-8"?>
<!-- Generator: Adobe Illustrator 23.0.2, SVG Export Plug-In . SVG Version: 6.00 Build 0)  -->
<svg version="1.1" id="Layer_1" xmlns="http://www.w3.org/2000/svg" xmlns:xlink="http://www.w3.org/1999/xlink" x="0px" y="0px"
	 viewBox="0 0 100 125" style="enable-background:new 0 0 100 125;" xml:space="preserve">
<style type="text/css">
	.st0{display:none;}
	.st1{display:inline;}
</style>
<g class="st0">
	<rect x="-507.9" y="-525.2" class="st1" width="1286.9" height="912.4"/>
</g>
<g>
	<path d="M90.1,23l-2.9,4.3c1.7,1.1,2.6,3,2.6,5c0,3.3-2.6,6-5.8,6c-3.2,0-5.8-2.7-5.8-6c0-2,1-3.9,2.6-5L78.1,23
		c-3.1,2.1-4.9,5.6-4.9,9.3c0,5.3,3.6,9.7,8.4,10.9v11.1c0,2.4-1.9,4.4-4.2,4.4H72v5.2h5.3c5.1,0,9.3-4.3,9.3-9.5V43.2
		C91.4,42,95,37.6,95,32.4C95,28.6,93.2,25.1,90.1,23z"/>
	<path d="M22.7,58.7c-2.3,0-4.2-2-4.2-4.4V43.2c4.8-1.2,8.4-5.6,8.4-10.9c0-3.8-1.8-7.3-4.9-9.3l-2.9,4.3c1.7,1.1,2.6,3,2.6,5
		c0,3.3-2.6,6-5.8,6c-3.2,0-5.8-2.7-5.8-6c0-2,1-3.9,2.6-5L9.9,23C6.8,25.1,5,28.6,5,32.4c0,5.3,3.6,9.7,8.4,10.9v11.1
		c0,5.2,4.2,9.5,9.3,9.5H28v-5.2H22.7z"/>
	<path d="M51.5,25.1h-3C37.2,25.1,28,34.4,28,45.7v13v5.2v12.4h18.6v7.9c1.1-0.4,2.2-0.5,3.4-0.5c1.2,0,2.3,0.2,3.4,0.5v-7.9H72
		V63.8v-5.2v-13C72,34.4,62.8,25.1,51.5,25.1z M50,34.3c6.8,0,12.3,5.5,12.3,12.3S56.8,58.9,50,58.9s-12.3-5.5-12.3-12.3
		S43.2,34.3,50,34.3z M41.4,69.3h-4.3v-4.5h4.3V69.3z M44.3,64.8h4.3v4.5h-4.3V64.8z M55.7,69.3h-4.3v-4.5h4.3V69.3z M62.8,69.3
		h-4.3v-4.5h4.3V69.3z"/>
	<path d="M41.6,94.6c0,4.6,3.8,8.4,8.4,8.4s8.4-3.8,8.4-8.4c0-4.6-3.8-8.4-8.4-8.4S41.6,89.9,41.6,94.6z M50,92.1
		c1.4,0,2.5,1.1,2.5,2.5c0,1.4-1.1,2.5-2.5,2.5c-1.4,0-2.5-1.1-2.5-2.5C47.5,93.2,48.6,92.1,50,92.1z"/>
	<path d="M50,38.2c-4.6,0-8.4,3.8-8.4,8.4S45.4,55,50,55s8.4-3.8,8.4-8.4C58.4,42,54.6,38.2,50,38.2z M50,49.1
		c-1.4,0-2.5-1.1-2.5-2.5c0-1.4,1.1-2.5,2.5-2.5c1.4,0,2.5,1.1,2.5,2.5S51.4,49.1,50,49.1z"/>
</g>
</svg>
