# This file uses centimeters as units for non-parametric coordinates.

mtllib Star_01.mtl
g default
v 0.133552 48.492889 69.471939
v 0.133552 29.970245 126.478729
v 0.133552 -29.970245 126.478733
v 0.133552 -48.492859 69.471947
v 0.133552 0.000000 34.239815
v -24.423835 0.000000 85.228233
v 24.690938 0.000000 85.228233
v 0.133552 101.756348 118.290871
v 0.133552 0.000000 192.221130
v 0.133552 -101.756271 118.290848
v 0.133552 -62.888824 -1.330833
v 0.133552 62.888885 -1.330864
vt 0.548284 0.007647
vt 0.373591 0.064409
vt 0.373591 0.248091
vt 0.548284 0.304853
vt 0.656250 0.156250
vt 0.375000 0.500470
vt 0.425000 0.500470
vt 0.475000 0.500470
vt 0.525000 0.500470
vt 0.575000 0.500470
vt 0.625000 0.500470
vt 0.548284 0.695147
vt 0.373591 0.751909
vt 0.373591 0.935591
vt 0.548284 0.992353
vt 0.656250 0.843750
vt 0.500000 0.150000
vt 0.500000 0.837500
vt 0.400000 0.500470
vt 0.450000 0.500470
vt 0.500000 0.500470
vt 0.550000 0.500470
vt 0.600000 0.500470
vn 0.900951 0.255053 0.351050
vn 0.900951 0.255053 0.351050
vn 0.874983 0.054866 0.481035
vn 0.874983 0.440537 0.200829
vn 0.900951 -0.412684 -0.134089
vn 0.900951 -0.412684 -0.134089
vn 0.874983 -0.327133 -0.356916
vn 0.900951 -0.000000 -0.433922
vn 0.900951 -0.000000 -0.433922
vn 0.874983 0.238357 -0.421415
vn 0.900951 0.412684 -0.134089
vn 0.900951 0.412684 -0.134089
vn 0.874983 0.474446 0.096467
vn -0.900951 0.255053 0.351050
vn -0.874983 0.054866 0.481035
vn -0.900951 0.255053 0.351050
vn -0.900951 -0.255053 0.351050
vn -0.874983 -0.440537 0.200829
vn -0.900951 -0.255053 0.351050
vn -0.874983 -0.054867 0.481035
vn -0.900951 -0.000000 -0.433922
vn -0.874983 0.238357 -0.421415
vn -0.900951 -0.000000 -0.433922
vn -0.874983 -0.238357 -0.421415
vn 0.900951 -0.255053 0.351050
vn 0.900951 -0.255053 0.351050
vn 0.874983 -0.440537 0.200829
vn 0.874983 -0.054867 0.481035
vn 0.874983 0.327133 -0.356916
vn 0.874983 -0.238357 -0.421415
vn 0.874983 -0.474446 0.096467
vn -0.874983 0.440537 0.200829
vn -0.900951 -0.412684 -0.134089
vn -0.874983 -0.327133 -0.356916
vn -0.900951 -0.412684 -0.134089
vn -0.874983 -0.474446 0.096467
vn -0.900951 0.412684 -0.134089
vn -0.874983 0.474446 0.096467
vn -0.900951 0.412684 -0.134089
vn -0.874983 0.327133 -0.356916
s 1
g pCylinder3
usemtl blinn2SG
f 2/14/1 7/18/2 8/19/3
f 9/20/4 7/18/2 2/7/1
s 2
f 4/12/5 7/18/6 10/21/7
s 3
f 5/16/8 7/18/9 11/22/10
s 4
f 1/15/11 7/18/12 12/23/13
s 5
f 2/7/14 8/19/15 6/17/16
s 6
f 3/8/17 9/20/18 6/17/19
f 6/17/19 10/21/20 3/3/17
s 7
f 5/10/21 11/22/22 6/17/23
f 6/17/23 12/23/24 5/5/21
s 8
f 3/13/25 7/18/26 9/20/27
f 7/18/26 3/8/25 10/21/28
s 4
f 7/18/12 1/6/11 8/19/29
s 3
f 7/18/9 5/10/8 12/23/30
s 2
f 7/18/6 4/9/5 11/22/31
s 5
f 9/20/32 2/2/14 6/17/16
s 9
f 4/9/33 10/21/34 6/17/35
f 11/22/36 4/4/33 6/17/35
s 10
f 1/11/37 12/23/38 6/17/39
f 8/19/40 1/1/37 6/17/39
