<svg width="24.474mm" height="24.474mm" version="1.1" viewBox="0 0 24.474 24.474" xmlns="http://www.w3.org/2000/svg">
 <g transform="translate(-76.966 -84.436)">
  <g transform="translate(28.726 -25.706)" fill="#fff">
   <g transform="matrix(.26458 0 0 .26458 47.247 109.15)" fill="#fff">
    <path d="m50 3.75c-25.502 0-46.25 20.748-46.25 46.25s20.748 46.25 46.25 46.25 46.25-20.748 46.25-46.25-20.748-46.25-46.25-46.25zm25.636 36.827-29.538 29.538c-0.899 0.899-2.145 1.415-3.416 1.415v2l-0.043-2c-1.288-0.011-2.539-0.549-3.433-1.476l-14.902-15.446c-1.85-1.917-1.795-4.98 0.122-6.83 0.905-0.874 2.096-1.354 3.353-1.354 1.323 0 2.558 0.524 3.477 1.476l11.488 11.907 26.062-26.061c0.912-0.912 2.125-1.415 3.416-1.415 1.29 0 2.503 0.502 3.415 1.414 1.882 1.884 1.882 4.949-1e-3 6.832z" fill="#fff"/>
   </g>
  </g>
 </g>
</svg>
