<svg width="21.167mm" height="21.167mm" version="1.1" viewBox="0 0 21.167 21.167" xmlns="http://www.w3.org/2000/svg">
 <g transform="translate(-101.1 -111.46)">
  <g transform="matrix(.26458 0 0 .26458 98.455 108.82)">
   <g transform="translate(0 -952.36)">
    <path d="m50 962.36c-22.109 0-40 17.881-40 40 0 22.108 17.892 40 40 40 22.119 0 40-17.891 40-40 0-22.12-17.88-40-40-40zm-15.25 23a2.0002 2.0002 0 0 1 0.21875 0 2.0002 2.0002 0 0 1 1.4375 0.59375l13.594 13.562 13.562-13.562a2.0002 2.0002 0 0 1 1.375-0.59375 2.0002 2.0002 0 0 1 1.4688 3.4375l-13.594 13.594 13.594 13.562a2.0109 2.0109 0 1 1-2.8438 2.8438l-13.562-13.594-13.594 13.594a2.0109 2.0109 0 0 1-2.8438-2.8438l13.562-13.562-13.562-13.594a2.0002 2.0002 0 0 1 1.1875-3.4375z" color="#000000" fill-rule="evenodd" overflow="visible" style="text-indent:0;text-transform:none"/>
   </g>
   <text y="115" fill="#000000" font-family="'Helvetica Neue', Helvetica, Arial-Unicode, Arial, Sans-serif" font-size="5px" font-weight="bold">Created by andriwidodo</text>
   <text y="120" fill="#000000" font-family="'Helvetica Neue', Helvetica, Arial-Unicode, Arial, Sans-serif" font-size="5px" font-weight="bold">from the Noun Project</text>
  </g>
 </g>
</svg>
