<svg width="23.283mm" height="23.283mm" version="1.1" viewBox="0 0 23.283 23.283" xmlns="http://www.w3.org/2000/svg">
 <g transform="translate(-104.81 -76.16)">
  <g transform="matrix(.26458 0 0 .26458 103.22 74.573)">
   <g transform="translate(0 -952.36)" fill-rule="evenodd">
    <path d="m50 958.36c-24.271 0-44 19.719-44 44 0 24.272 19.728 44 44 44 24.281 0 44-19.729 44-44 0-24.281-19.72-44-44-44zm0 4c22.12 0 40 17.88 40 40 0 22.109-17.881 40-40 40-22.108 0-40-17.892-40-40 0-22.119 17.891-40 40-40z" color="#000000" overflow="visible" style="text-indent:0;text-transform:none"/>
    <path d="m34.765 985.35a2.0002 2.0002 0 0 0-1.1875 3.4375l13.562 13.594-13.562 13.562a2.0109 2.0109 0 0 0 2.8438 2.8438l13.594-13.594 13.562 13.594a2.0109 2.0109 0 0 0 2.8438-2.8438l-13.594-13.562 13.594-13.594a2.0002 2.0002 0 0 0-1.4688-3.4375 2.0002 2.0002 0 0 0-1.375 0.5938l-13.562 13.562-13.594-13.562a2.0002 2.0002 0 0 0-1.4375-0.5938 2.0002 2.0002 0 0 0-0.21875 0z" color="#000000" overflow="visible" style="text-indent:0;text-transform:none"/>
   </g>
   <text y="115" fill="#000000" font-family="'Helvetica Neue', Helvetica, Arial-Unicode, Arial, Sans-serif" font-size="5px" font-weight="bold">Created by andriwidodo</text>
   <text y="120" fill="#000000" font-family="'Helvetica Neue', Helvetica, Arial-Unicode, Arial, Sans-serif" font-size="5px" font-weight="bold">from the Noun Project</text>
  </g>
 </g>
</svg>
