<?xml version="1.0" encoding="utf-8"?>
<!-- Generator: Adobe Illustrator 22.0.0, SVG Export Plug-In . SVG Version: 6.00 Build 0)  -->
<svg version="1.1" id="Layer_1" xmlns="http://www.w3.org/2000/svg" xmlns:xlink="http://www.w3.org/1999/xlink" x="0px" y="0px"
	 viewBox="0 0 50 50" style="enable-background:new 0 0 50 50;" xml:space="preserve">
<style type="text/css">
	.st0{fill:#FFFFFF;stroke:#FFFFFF;stroke-miterlimit:10;}
</style>
<g>
	<g>
		<path class="st0" d="M39.3,21.1c-0.2,0-0.4-0.2-0.4-0.4v-2.8C38.3,9.2,31.5,5.3,25.5,5.3c0,0,0,0-0.1,0c-4.6,0-8.5,1.4-11,3.8
			c-2.2,2.2-3.3,5.1-3.3,8.8v2.8c0,0.2-0.2,0.4-0.4,0.4s-0.4-0.2-0.4-0.4v-2.8c0-3.9,1.2-7.1,3.5-9.4c2.7-2.6,6.8-4.1,11.6-4.1
			c0,0,0,0,0.1,0c6.4,0,13.7,4.2,14.3,13.5v2.8C39.8,20.9,39.6,21.1,39.3,21.1z"/>
	</g>
	<g>
		<g>
			<g>
				<path class="st0" d="M39.8,30H39c-1.1,0-2-0.9-2-2v-5.7c0-1.1,0.9-2,2-2h0.7c1.1,0,2,0.9,2,2V28C41.8,29.1,40.9,30,39.8,30z
					 M39,21.1c-0.6,0-1.2,0.5-1.2,1.1V28c0,0.6,0.5,1.1,1.2,1.1h0.7c0.6,0,1.2-0.5,1.2-1.1v-5.7c0-0.6-0.5-1.1-1.2-1.1L39,21.1
					L39,21.1z"/>
			</g>
		</g>
		<g>
			<g>
				<path class="st0" d="M11,30h-0.7c-1.1,0-2-0.9-2-2v-5.7c0-1.1,0.9-2,2-2H11c1.1,0,2,0.9,2,2V28C13,29.1,12.1,30,11,30z
					 M10.2,21.1c-0.6,0-1.2,0.5-1.2,1.1V28c0,0.6,0.5,1.1,1.2,1.1H11c0.6,0,1.2-0.5,1.2-1.1v-5.7c0-0.6-0.5-1.1-1.2-1.1L10.2,21.1
					L10.2,21.1z"/>
			</g>
		</g>
	</g>
	<g>
		<path class="st0" d="M25,37.1c-1.7,0-3.4-0.7-4.9-2.1c-3.1-2.8-5.4-8-5.4-12.4c0-6.1,4.6-11,10.3-11s10.3,5,10.3,11
			c0,4.4-2.3,9.6-5.4,12.4C28.4,36.4,26.7,37.1,25,37.1z M25,12.4c-5.2,0-9.4,4.6-9.4,10.2c0,4.1,2.2,9.1,5.1,11.8
			c1.4,1.2,2.9,1.9,4.3,1.9c1.5,0,2.9-0.6,4.3-1.9c2.9-2.6,5.1-7.7,5.1-11.8C34.4,17,30.2,12.4,25,12.4z"/>
	</g>
	<g>
		<path class="st0" d="M37.9,45.8H12.1c-0.1,0-0.3-0.1-0.3-0.2c-0.1-0.1-0.1-0.2-0.1-0.4l0.8-4.2c0.7-3.8,4.1-6.6,7.9-6.7l0,0
			c0.2,0,0.4,0.2,0.4,0.4s-0.2,0.4-0.4,0.4c-3.5,0.1-6.4,2.6-7.1,6l-0.7,3.7h24.7l-0.7-3.7c-0.6-3.4-3.6-5.9-7.1-6
			c-0.2,0-0.4-0.2-0.4-0.4s0.2-0.4,0.4-0.4l0,0c3.9,0.1,7.2,2.9,7.9,6.7l0.8,4.2c0,0.1,0,0.3-0.1,0.4C38.2,45.8,38,45.8,37.9,45.8z"
			/>
	</g>
	<g>
		<path class="st0" d="M22.9,32.3H11c-0.2,0-0.4-0.2-0.4-0.4v-2.4c0-0.2,0.2-0.4,0.4-0.4s0.4,0.2,0.4,0.4v1.9h11.5
			c0.2,0,0.4,0.2,0.4,0.4C23.4,32.1,23.2,32.3,22.9,32.3z"/>
	</g>
</g>
</svg>
