<?xml version="1.0" encoding="utf-8"?>
<!-- Generator: Adobe Illustrator 22.0.1, SVG Export Plug-In . SVG Version: 6.00 Build 0)  -->
<svg version="1.1" id="Layer_1" xmlns="http://www.w3.org/2000/svg" xmlns:xlink="http://www.w3.org/1999/xlink" x="0px" y="0px"
	 viewBox="0 0 50 50" style="enable-background:new 0 0 50 50;" xml:space="preserve">
<style type="text/css">
	.st0{fill:#FFFFFF;}
</style>
<g>
	<path class="st0" d="M14.2,35.5c0.1,0.7,0.1,1.4,0.2,2.1H19c0-0.7,0-1.3,0-2.1H14.2z"/>
	<path class="st0" d="M20.7,18.1c0-0.1,0-0.2,0-0.2c-0.7-1-1.3-1.9-2.2-3c-0.7-0.8-1.3-1-2.2-0.9c-0.4,0-1.2,0-1.6,0
		c-1.1,0-2.4,0.9-3,1.7c-1.3,1.6-2.6,3.1-3.9,4.7c-0.2,0.3-0.4,0.7-0.4,1.1c0.1,2.3,0.3,4.5,0.5,6.8c0,0.3,0.1,0.6,0.3,0.7h2.3
		c0.2-0.2,0.3-0.5,0.3-0.9c-0.1-1.8-0.2-3.5-0.3-5.3c0-0.3,0-0.6,0.1-0.7c0.8-0.9,1.6-1.8,2.5-2.8c0.1,2,0.1,3.9,0.2,5.8
		c0,0.4,0,0.8,0.2,1.3c0.1,1,0.2,1.3,0.3,2.1c0,0.1,0,0.3,0,0.4h5.4c0-2,0.1-3.4,0.1-3.6c0-1.3,0-2.5,0-3.8c0-0.2,0-0.4,0-0.7
		c0.1,0.1,0.1,0.1,0.2,0.2C19.4,19.9,19.9,18.9,20.7,18.1z"/>
	<path class="st0" d="M13.8,30.2c0.1,1,0.2,2.5,0.4,4.2H19c0-1.4,0-2.9,0.1-4.2H13.8z"/>
	<path class="st0" d="M18.9,40.4c0-0.3,0-0.7,0-1.1h-4.5c0,0.3,0.1,0.8,0.1,1.1H18.9z"/>
	<path class="st0" d="M18.9,9.4c0,1.5-1.3,2.7-3,2.7l0,0c-1.6,0-3-1.2-3-2.7V7.7c0-1.5,1.3-2.7,3-2.7l0,0c1.6,0,3,1.2,3,2.7V9.4z"/>
</g>
<path class="st0" d="M28.5,35.6c0.1,0.7,0.1,1.5,0.2,2.2h4.5c0-0.7,0-1.4,0-2.2H28.5z"/>
<path class="st0" d="M43.7,21.2c-0.3-0.1-0.6-0.2-0.9-0.3c-1.3-0.3-2.6-0.6-3.8-0.8c-1.8-0.4-2.6-0.9-3.4-2.1
	c-1-1.4-1.7-2.6-2.8-3.9c-0.7-0.8-1.3-1.1-2.2-1c-0.4,0-1.2,0-1.6,0c-1.1,0-2.4,1-3,1.8c-1.3,1.6-2.6,3.3-3.9,4.9
	c-0.2,0.3-0.4,0.8-0.4,1.1c0.1,2.4,0.3,4.7,0.5,7.1c0,0.3,0.1,0.6,0.3,0.7h2.3c0.2-0.2,0.3-0.5,0.3-0.9c-0.1-1.9-0.2-3.7-0.3-5.6
	c0-0.3,0-0.6,0.1-0.8c0.8-1,1.6-1.9,2.5-2.9c0.1,2.1,0.1,4.1,0.2,6.1c0,0.5,0,0.9,0.2,1.4c0.1,1.1,0.2,1.4,0.3,2.2
	c0,0.1,0,0.3,0,0.4h5.4c0-2.1,0.1-3.6,0.1-3.7c0-1.3,0-2.6,0-4c0-0.2,0-0.4,0-0.7c0.4,0.4,0.7,0.6,1,0.9c0.8,0.6,1.5,1.1,2.5,1.3
	c1.6,0.3,3.2,0.7,4.7,1c0.5,0.1,1,0.1,1.5,0.1c0.6,0,1-0.3,1.2-0.9C44.5,22.1,44.2,21.5,43.7,21.2z"/>
<path class="st0" d="M28,30c0.1,1,0.2,2.6,0.4,4.4h4.8c0-1.5,0-3,0.1-4.4H28z"/>
<path class="st0" d="M33.3,40.7c0-0.3,0-0.7,0-1.2h-4.5c0,0.3,0.1,0.8,0.1,1.2H33.3z"/>
<path class="st0" d="M33,9c0,1.6-1.3,2.8-3,2.8l0,0c-1.6,0-3-1.3-3-2.8V7.3c0-1.6,1.3-2.8,3-2.8l0,0c1.6,0,3,1.3,3,2.8V9z"/>
<path class="st0" d="M35,38C35,38,35,38,35,38l0,1.6c0,0.1,0,0.2,0,0.2c0,0.1,0,0.2,0,0.3c0.8,0.4,1.2,0.7,1.2,0.9
	c0,0.2-0.8,1-3.3,1.6c-2.5,0.6-5.8,1-9.4,1s-6.9-0.4-9.4-1c-2.4-0.6-3.3-1.4-3.3-1.6c0-0.2,0.6-0.7,2.1-1.2v-0.3c0-0.1,0-0.1,0-0.2
	v-1c0-0.1-0.1-0.2-0.1-0.3c-2,0.6-4.2,1.8-4,3c0.3,3,7.6,4.4,14.7,4.4S38.2,44,38.2,41C38.2,40.1,36.5,38.7,35,38z"/>
<path class="st0" d="M26.9,36.1c-1,0-2-0.1-3-0.1c-1,0-2,0-3,0.1v1.3c1,0,2-0.1,3-0.1c1,0,2,0,3,0.1V36.1z"/>
</svg>
