<svg xmlns="http://www.w3.org/2000/svg" data-name="Layer 1" viewBox="0 0 128 160" x="0px" y="0px"><title>Miscellaneous 36 final</title><path d="M29.21,30.7a2.38,2.38,0,0,1,1.58.54,6.57,6.57,0,0,0,7.48,0,2.6,2.6,0,0,1,3.16,0,6.57,6.57,0,0,0,7.48,0,2.6,2.6,0,0,1,3.16,0,6.57,6.57,0,0,0,7.48,0,2.61,2.61,0,0,1,3.17,0,6.58,6.58,0,0,0,7.48,0,2.39,2.39,0,0,1,1.59-.54,2,2,0,0,0,0-4,6.26,6.26,0,0,0-3.74,1.17,2.61,2.61,0,0,1-3.17,0,6.58,6.58,0,0,0-7.48,0,2.6,2.6,0,0,1-3.17,0,6.57,6.57,0,0,0-7.48,0,2.6,2.6,0,0,1-3.17,0,6.57,6.57,0,0,0-7.48,0,2.6,2.6,0,0,1-3.16,0,6.26,6.26,0,0,0-3.74-1.17,2,2,0,0,0,0,4Z"/><path d="M29.21,43.23a2.38,2.38,0,0,1,1.58.54,6.57,6.57,0,0,0,7.48,0,2.6,2.6,0,0,1,3.16,0,6.57,6.57,0,0,0,7.48,0,2.6,2.6,0,0,1,3.16,0,6.57,6.57,0,0,0,7.48,0,2.61,2.61,0,0,1,3.17,0,6.58,6.58,0,0,0,7.48,0,2.39,2.39,0,0,1,1.59-.54,2,2,0,0,0,0-4,6.26,6.26,0,0,0-3.74,1.17,2.61,2.61,0,0,1-3.17,0,6.58,6.58,0,0,0-7.48,0,2.6,2.6,0,0,1-3.17,0,6.57,6.57,0,0,0-7.48,0,2.6,2.6,0,0,1-3.17,0,6.57,6.57,0,0,0-7.48,0,2.6,2.6,0,0,1-3.16,0,6.26,6.26,0,0,0-3.74-1.17,2,2,0,0,0,0,4Z"/><path d="M29.21,55.75a2.38,2.38,0,0,1,1.58.54,6.57,6.57,0,0,0,7.48,0,2.6,2.6,0,0,1,3.16,0,6.57,6.57,0,0,0,7.48,0,2.6,2.6,0,0,1,3.16,0,6.57,6.57,0,0,0,7.48,0,2.61,2.61,0,0,1,3.17,0,6.58,6.58,0,0,0,7.48,0,2.39,2.39,0,0,1,1.59-.54,2,2,0,0,0,0-4,6.26,6.26,0,0,0-3.74,1.17,2.61,2.61,0,0,1-3.17,0,6.58,6.58,0,0,0-7.48,0,2.6,2.6,0,0,1-3.17,0,6.57,6.57,0,0,0-7.48,0,2.6,2.6,0,0,1-3.17,0,6.57,6.57,0,0,0-7.48,0,2.6,2.6,0,0,1-3.16,0,6.26,6.26,0,0,0-3.74-1.17,2,2,0,0,0,0,4Z"/><path d="M86.25,74l-6,10.9-9.4-22.21a2,2,0,0,0-3.77.26L56.35,103.16,41.75,76.54a2,2,0,0,0-1.75-1h0a2,2,0,0,0-1.75,1.07L32.79,87H21a2,2,0,0,0,0,4H34a2,2,0,0,0,1.77-1.07L40,81.74l15.2,27.72a2,2,0,0,0,1.75,1h.24A2,2,0,0,0,58.93,109l10.5-39.37,8.73,20.63a2,2,0,0,0,3.59.19L89.18,77h15.08a8,8,0,1,0,0-4H88A2,2,0,0,0,86.25,74ZM112,71a4,4,0,1,1-4,4A4,4,0,0,1,112,71Z"/><path d="M36,96a6.8,6.8,0,0,0-5,2.15L29,100.32l-2.07-2.17a6.8,6.8,0,0,0-9.93,0,7.44,7.44,0,0,0,0,10.15l10.54,11.08a2,2,0,0,0,2.9,0L41,108.3a7.44,7.44,0,0,0,0-10.15A6.8,6.8,0,0,0,36,96Zm2.07,4.91a3.4,3.4,0,0,1,0,4.63L29,115.1l-9.1-9.56a3.4,3.4,0,0,1,0-4.63,2.8,2.8,0,0,1,4.13,0l3.51,3.69a2.06,2.06,0,0,0,2.9,0L34,100.91A2.84,2.84,0,0,1,36,100h0a2.84,2.84,0,0,1,2.06.91Z"/><path d="M12,128H90a4,4,0,0,0,4-4V81H91.54L90,83.79V124H12V12H25.5v4a4,4,0,0,0,4,4h42a4,4,0,0,0,4-4V12H90V69h4V12a4,4,0,0,0-4-4H75.5V4a4,4,0,0,0-4-4h-42a4,4,0,0,0-4,4V8H12a4,4,0,0,0-4,4V124A4,4,0,0,0,12,128ZM37,4H64V8H37ZM29.5,4H33v6a2,2,0,0,0,2,2H66a2,2,0,0,0,2-2V4h3.5V16h-42Z"/><text x="0" y="143" fill="#000000" font-size="5px" font-weight="bold" font-family="'Helvetica Neue', Helvetica, Arial-Unicode, Arial, Sans-serif">Created by priyanka</text><text x="0" y="148" fill="#000000" font-size="5px" font-weight="bold" font-family="'Helvetica Neue', Helvetica, Arial-Unicode, Arial, Sans-serif">from the Noun Project</text></svg>