<?xml version="1.0" encoding="utf-8"?>
<!-- Generator: Adobe Illustrator 21.1.0, SVG Export Plug-In . SVG Version: 6.00 Build 0)  -->
<svg version="1.1" id="Layer_1" xmlns="http://www.w3.org/2000/svg" xmlns:xlink="http://www.w3.org/1999/xlink" x="0px" y="0px"
	 viewBox="0 0 50 50" style="enable-background:new 0 0 50 50;" xml:space="preserve">
<style type="text/css">
	.st0{fill:#FFFFFF;}
</style>
<path class="st0" d="M12,24.2c-0.4-1-0.6-2-0.4-3c0.2-1.5,1-2.7,2.3-3.5c1.1-0.6,2.3-1,3.4-1.5c0.1-0.9,0.1-1.9,0.4-2.9
	c0.3-1.4,1.1-2.6,2.3-3.5c2.5-2,5.4-2.7,8.6-2.2c0.1,0,0.2,0,0.3,0.1c0,0,0.1,0,0,0c-0.5,0.7-1.2,1.4-1.6,2.2
	c-0.8,1.5-0.5,3,0.6,4.2c1.1,1.2,2.6,1.8,4.1,2.3c1,0.3,2.1,0.7,3,1.2c2.3,1.3,3.1,3.7,2.2,6.3c0,0.1-0.1,0.2-0.1,0.4
	c0.2,0.1,0.4,0.3,0.7,0.4c4.1,2.4,4.1,8.5,0,11c-1.8,1.1-3.9,1.7-5.9,1.9c-5.2,0.7-10.4,0.7-15.6-0.2c-1.6-0.3-3.2-0.8-4.6-1.6
	c-4.4-2.4-4.3-8.8-0.1-11.2C11.6,24.4,11.8,24.3,12,24.2z M36.1,23.7c0-2.4-1.9-4.3-4.3-4.4c-2.4,0-4.4,1.9-4.4,4.3
	c0,2.4,2,4.4,4.4,4.4C34.2,28,36.1,26.1,36.1,23.7z M17.2,19.3c-2.4,0-4.4,1.9-4.4,4.3c0,2.4,1.9,4.3,4.3,4.4c2.4,0,4.4-1.9,4.4-4.3
	C21.5,21.3,19.6,19.3,17.2,19.3z M27.4,31.1c0-1.6-1.3-2.9-3-2.9c-1.6,0-3,1.3-2.9,3c0,1.6,1.3,2.9,2.9,2.9
	C26.1,34.1,27.4,32.7,27.4,31.1z"/>
<path class="st0" d="M33.9,23.7c0,1.2-1,2.2-2.1,2.1c-1.4,0-2.2-1.2-2.1-2.2c0.1-1.2,0.9-2.1,2.1-2.1C33,21.5,33.9,22.4,33.9,23.7z"
	/>
<path class="st0" d="M19.3,23.7c0,1.2-0.9,2.1-2.1,2.1c-1.2,0-2.1-0.9-2.1-2.2c0-1.2,0.9-2.2,2.2-2.2C18.4,21.5,19.3,22.4,19.3,23.7
	z"/>
</svg>
