<?xml version="1.0" standalone="no"?>
<!DOCTYPE svg PUBLIC "-//W3C//DTD SVG 20010904//EN"
 "http://www.w3.org/TR/2001/REC-SVG-20010904/DTD/svg10.dtd">
<svg version="1.0" xmlns="http://www.w3.org/2000/svg"
 width="1018.000000pt" height="1280.000000pt" viewBox="0 0 1018.000000 1280.000000"
 preserveAspectRatio="xMidYMid meet">
<g transform="translate(0.000000,1280.000000) scale(0.100000,-0.100000)"
fill="#009688" stroke="none">
<path d="M3850 12793 c-30 -2 -125 -15 -210 -29 -671 -112 -1238 -534 -1457
-1084 -45 -112 -59 -162 -81 -295 -25 -146 -26 -173 -20 -310 10 -206 53 -373
148 -571 262 -547 863 -955 1550 -1050 383 -53 714 -24 1065 93 537 179 949
543 1132 1003 45 112 59 162 81 295 25 145 26 174 20 305 -30 598 -434 1146
-1058 1435 -356 164 -746 234 -1170 208z"/>
<path d="M7858 12250 c-164 -20 -339 -104 -449 -217 -121 -124 -171 -267 -148
-417 14 -90 72 -202 143 -274 103 -107 301 -201 454 -217 40 -4 74 -10 76 -14
6 -11 -12 -463 -24 -576 -27 -259 -77 -528 -137 -729 -387 -1311 -1419 -1676
-3033 -1073 -311 117 -296 109 -385 196 -105 103 -209 172 -323 215 -83 32
-105 36 -185 36 -179 0 -304 -60 -452 -216 l-80 -85 -1650 -165 c-907 -90
-1653 -168 -1658 -173 -5 -5 -7 -16 -5 -24 1 -8 331 -360 731 -782 l728 -766
-54 -59 c-67 -72 -118 -154 -148 -240 -34 -96 -34 -274 0 -379 109 -331 491
-517 836 -407 178 57 313 171 389 329 89 184 89 350 0 534 -75 157 -209 270
-389 330 -70 23 -96 27 -205 26 -140 0 -215 -17 -317 -73 l-57 -30 -22 22
c-208 216 -1394 1471 -1392 1473 7 7 3159 317 3164 312 3 -3 -12 -36 -35 -74
-138 -232 -252 -649 -302 -1103 -31 -282 -31 -803 0 -1110 101 -991 383 -1844
788 -2378 56 -75 88 -124 80 -127 -6 -2 -68 -18 -137 -35 -316 -79 -777 -241
-1070 -378 -838 -390 -1332 -899 -1470 -1514 -17 -75 -44 -341 -37 -370 1 -5
-28 -27 -65 -48 -219 -126 -473 -400 -611 -660 -237 -447 -191 -811 107 -836
291 -25 740 329 975 768 110 206 161 398 147 562 -19 221 -178 321 -410 256
-43 -12 -79 -20 -80 -18 -1 2 1 58 5 126 33 511 342 983 888 1356 411 280
1008 534 1656 702 l170 44 50 -49 c132 -127 309 -213 467 -225 78 -6 96 -4
175 20 117 37 218 107 318 223 l77 88 101 -23 c189 -44 620 -165 841 -236 936
-299 1651 -676 2095 -1104 72 -69 160 -161 195 -203 200 -240 336 -518 382
-784 17 -94 25 -329 12 -342 -4 -4 -49 -12 -100 -17 -131 -13 -232 -54 -293
-119 -53 -56 -62 -76 -70 -156 -24 -225 256 -546 675 -773 437 -238 928 -328
1194 -218 115 47 170 110 186 213 10 63 9 74 -16 149 -92 278 -468 590 -932
772 -155 61 -377 119 -499 129 l-82 7 6 62 c8 84 -13 285 -42 403 -133 547
-575 1038 -1310 1456 -540 307 -1316 595 -2162 804 l-153 38 39 65 c54 90 133
291 180 462 316 1127 95 2847 -496 3862 -42 72 -100 162 -129 201 -29 38 -52
71 -51 72 2 1 92 -32 202 -74 706 -266 1344 -347 1833 -232 751 177 1223 805
1381 1839 30 196 40 315 51 584 5 132 12 241 14 243 2 2 48 10 102 17 321 43
560 233 607 482 21 109 4 206 -52 307 -136 245 -452 377 -803 337z"/>
</g>
</svg>
