<svg id="Layer_1" data-name="Layer 1" xmlns="http://www.w3.org/2000/svg" viewBox="0 0 661.2 353.11"><defs><style>.cls-1{fill:#fff;}.cls-2{font-size:72px;font-family:InkFree, Ink Free;}</style></defs><title>hifi-dance</title><path class="cls-1" d="M-87.3.7H573.9v348H-87.3ZM246.09,157.35c-4.08,3.45-5.73,4-9.86,2.93l5.68-1.64-.15-.9-60.65,2.09v1.47l53,2.23.06-1-1.64-.68.11-.61,3.8.28c-.15,1.42-.25,2.42-.35,3.43l.1-.15c-1.94.56-3.91,1.68-5.82,1.58-18.5-.93-37-2.07-55.48-3.17a12.57,12.57,0,0,1-2.24-.53l.08-.45,33.55,2.16,0-.48-43.46-4.15c2.77-1,6.84-1.39,9.58-3.52,6.92-5.36,14.6-9.77,20.23-16.9,2.37-3,.64-2.78-.66-3.82-.77,1.86-1.42,3.41-2.07,5-.51-5.81-1.2-6.74-4.75-6.26l4.16,5.05c-6.28-1.61-5.29,1.88-4.91,4.91l-12.73-3.64c-1,2.09-.31,5.82-4,3.72-2.54-1.47-3.61-.51-4.32,2.14-1.79-4.56-1.79-4.56,4.25-6.56a2.4,2.4,0,0,0-1.48-.14c-3.55,1.36-7.07,2.81-10.63,4.14a9.92,9.92,0,0,1-3.21.69,21.74,21.74,0,0,1-3.53-.49c.7,1.9,1.16,3.17,1.83,5,3.64.44,4.47-7.08,9.8-5.3.5,1.91,1,3.88,1.56,5.87-2.51.27-4.75.61-7,.75s-4.44.52-6.46,0c-5.22-1.34-10.38-.56-15.35.48-5.16,1.08-10.12,3.25-15.11,5.11a10.75,10.75,0,0,0-6.46,12.73c1.63,7,7,10.06,12.85,12.57a2.54,2.54,0,0,0,2.2-.9c1.49-2.05,2.77-4.26,4.11-6.42,1.82-2.95,6.36-5.36,7.65-3.85a39.09,39.09,0,0,1,5.76,8.19c2.45,5.16,4.32,10.61,6.67,16.53,12.57-9.06,26.84-13.38,41.32-18.53.4,7,1.78,13.76.9,20.17-1.48,10.76.37,20.64,4.6,30.33.73,1.69,1.86,3,3.8,1.34-.61-1.83-1.15-3.48-1.74-5.24,5.3-.45,5.43-.48,6.12,2a72.55,72.55,0,0,0,5.11,12.64c2.23,4.58,5.08,7.63,9.42,9.26,5.93,2.22,12.09,3.84,18.47,5.82l-3.36,1.8c1.25,2,2.46,3.8,3.59,5.67s2.3,4,3.48,6a3,3,0,0,0,1.08,1.21c3.15,1.47,12.08,1.09,15.44-.31,8.4-3.52,16.82-7,25.35-10.23a21.69,21.69,0,0,0,6.48-3.3A15.94,15.94,0,0,0,294.36,232c-.14-.22,0-.62,0-1.59,9.3,1,18.45,2.18,27.63,3,11.12,1,22.27,1.64,33.41,2.51,2.74.21,5.47.66,8.2,1l8.69,1.15.18-1,2.32,3.31c5.63-7.31,4.55-19.33-4.64-21.65.06.78.1,1.47.18,2.63-3.13-1-5.9-2.35-8.75-2.58a58.05,58.05,0,0,1-10.17-1.26c-13.3-3.41-26.53-6.89-39.27-12.17-3.17-1.31-7.15-.76-10.76-.87-1.66-.05-3.37.66-5,.48a89.19,89.19,0,0,1-10.12-1.75c-1.74-.4-3.33-1.42-5.06-2a8,8,0,0,0-3.33-.34c-3.95.53-7.92,1.93-11.81,1.72-11.57-.64-21-7-31-12.2,1.37-1.7,2.86-3-.36-3.85-1.55-.42-2.76-2-4.23-2.84-1.85-1.09-3.82-2-5.73-2.95l.32-.62,3.06,1.45c.1-.6.19-1.11.24-1.4,5.42,0,9-3.6,13.15-6.33a6.78,6.78,0,0,0-3.94-.51q-7.77,1.75-15.48,3.8c-.78.2-1.35,1.16-2,1.77l0,2.28c-3.25.71-6.07-.49-9.07-1.6-6.38-2.37-12.88-4.46-19.42-6.36-7.56-2.19-15.23-4-22.83-6.08a28.53,28.53,0,0,1-3.46-1.41l.27-.83,2.64-.18c-1.93-2.92-6.8,3.58-8-2.58a10.67,10.67,0,0,1-2.74.17c-3.68-.67-7.31-1.61-11-2.21-6.22-1-12.47-1.84-19.5-2.86a20.54,20.54,0,0,1,12.42.34,31.06,31.06,0,0,0,5,1.11c5.21.84,10.54-1,15.8,1.72,3.93,2,8.72,2.37,13,3.72,11.21,3.48,22.32,7.53,34.23,7.63,9.56.09,19.12-.2,28.67-.64,5.47-.25,10.75-1.49,15.17-5.19a13.78,13.78,0,0,1,3.42-1.52l.59.84c-7,5-14.09,9.9-15.37,18.83l5.74.63c1.2-1.06,3.45-2.41,4.78-4.39,2.31-3.41,6.28-3.86,8.91-.52.92,1.17,1.52,2.15-.16,3.46s-2.75,3-4.41,4.92c1.34,1,2.36,2.37,3.65,2.72,4.5,1.22,9.09,2.1,14.34,3.26-2.15-3.19-4.11-5.85-5.79-8.68a33.35,33.35,0,0,1-2.8-6.21c-1.94-5.7-.94-11.56-.9-17.4,0-3.71,1.5-4.67,4.83-5,17.07-1.71,34.11-3.61,51.16-5.44,1.84-.19,3.68-.44,5.52-.46,6-.06,11.95,0,18.19,0,.47-1.81,1.06-4,1.51-5.73,1.79-.71,4.08-1,4.24-1.79.69-3.38,2.66-2.14,4.71-2,5.37.44,10.76.64,16.15.78.69,0,1.4-.91,2.11-1.39-.7-.55-1.38-1.14-2.11-1.64a3.82,3.82,0,0,0-1.08-.36l.11-.89c1.48.18,3,.29,4.44.54.74.13,1.44.68,2.16.66.25,0,.85-1.4.65-1.65a3.5,3.5,0,0,0-2.09-1.34c-2.1-.18-4.22-.06-6.34-.06l-.1-.67,15.51-4.82c-2.79-4.29-12-4.54-18.24-.3,4.81,1.34,9.06-.78,13.26-.16a17.77,17.77,0,0,1-4.63,1.38c-5.25.88-10.52,1.64-15.75,2.61-.95.17-1.72,1.15-2.65,1.61a13.92,13.92,0,0,1-4.16,1.71c-.49.07-1.29-1.5-1.83-2.4-.41-.69-.51-1.58-1-2.21a7.4,7.4,0,0,0-1.73-1.3,6.9,6.9,0,0,0-.79,1.93,20.58,20.58,0,0,0,.15,3.17l-2.73.47a9.46,9.46,0,0,0,0-1.43c0-.3-.24-.58-.14-.36l-5.2,5.85c.2-2.83.33-4.65.5-7.16-2.17,1.46-3.76,2.37-5.16,3.51-2.28,1.87-4.41,2.27-6.79.15-.79-.7-1.92-1-3.77-2l2.63,4h-5.31l.28,1.16a13.16,13.16,0,0,1-2.7,1.14c-1,.2-2.11-.17-3.08.06a53.07,53.07,0,0,1-20.93.62c-.78-.13-1.81.57-2.57,1.1-2.3,1.62-4.52,3.34-6.76,5l-.62-.71c3.87-2.21,7.11-4.89,8.22-10.27-3.14,3.8-6.55,5-10.62,4.5-1.74-.19-3.86-.69-5.22,0-4.46,2.4-8.62,5.33-12.95,8a9.41,9.41,0,0,1-2.43.73l-.12-.55,15.11-11-3-.14,3.57-4.2-.52-.75c-1.72,1.15-3.46,2.26-5.16,3.44-5.24,3.65-4.72,3.72-11.14-.19a22.8,22.8,0,0,1-3.64-3.46l.75-.76,5.4,4.06,4.45-4.06-.16-1.1c-5.14,4.87-8.82-.79-13.11-1,1.06,6.34,6.13,8.26,11.61,10.68L257.48,145v3.23c-1.63-1.19-2.84-1.94-3.88-2.87a14.34,14.34,0,0,0-10.2-3.54c-7.48,0-15-.33-22.42-.55-.08,0-.14-.28-.46-.93,2.8,0,5.45.48,7.81-.14,2-.53,3.78-2.3,5.65-3.52-2.07-2.1.38-2.1,1.29-2.48,4.11-1.75,8.28-3.35,12.85-5.17l-8.51-1.86,12.74-5-7.72-4.77c.24-.58.47-1.17.71-1.76l6.65,1.52c1.73-5.93,1.68-6-4.22-5.11a28.22,28.22,0,0,1-3.73,0l1.63-3.92c-1.41.11-3.36.48-3.43.25-.9-2.86-2.82-1.11-4.29-1.06a13,13,0,0,0-2.4.54v-2.75c-2.19.28-4.75,1.34-6.79.71-3.12-1-3-1.47-5.14,1.23l1.12.52-4.74,2.9c3.2,2.42,3.06,3.12,0,4.47-.31-.74-.6-1.47-.9-2.19a12.51,12.51,0,0,0-1.61,1.37c-1,1.12-1.63,2.55-2.75,3.43-1.91,1.49-4.09,2.62-6.12,4-3.07,2-4,4.7-2.86,8a2.49,2.49,0,0,1,0,1.66c-1.05,2.25-1.31,4.21,1.39,5.5,1.94.93,3.85,1.91,5.78,2.86l-.32.67L202.68,136a4.57,4.57,0,0,0,1.1,3.7c11.07,9.75,24.06,10.88,38,8.45l-3.31,2,.28,1c3.18-.64,6.43-2,9.54-1.78,8.73.73,8.7,1,9.24,2.21-5.86,0-11.95.1-18,0-5.64-.12-11.29-.26-16.89-.82-4.59-.46-9.1-1.9-13.69-2.26-3.35-.26-7.22-1.68-9.81,2.61-.71,1.18-3.5,1.14-5.35,1.59-.64.16-1.85,0-1.91.24-1,3.5-3.79,1.87-5.69,1.89a23.57,23.57,0,0,0-11.52,3.13l.26,1.3,29.56-3.88-2.65,2.29c3,0,4.86,0,6.76,0,8.77-.25,17.52.33,26.2-2.35,3.24-1,7.33.74,11,1.28.13,0,.18.61.27.94Zm-20.45,96c-3.61.72-6.95,1.49-10.32,2-2.16.35-3.47,1.34-3.45,3.56a15.62,15.62,0,0,0,.51,5.14c3.65,9.85,7.27,19.73,11.36,29.4a32.84,32.84,0,0,0,6.52,9.28c1,1.07,3.6,1.1,5.34.8.67-.11,1.2-2.41,1.36-3.76.25-2.05-.36-4.3.24-6.2,2.14-6.84.33-13.34-2-19.5C232.52,266.85,228.77,260,225.64,253.34Zm175-56.67-2.84,2c-.62-1.24-1.07-2.13-1.52-3a14.92,14.92,0,0,0-2,2.15c-2,3.2-3.86,6.46-5.93,9.95h2.3c.51,1.55,1,2.75,1.29,4a3.59,3.59,0,0,1,0,1.87c-1.55,4.68-3.44,9.27-4.66,14-1.26,4.94-1.9,10-2.86,15.39,1.13.44,3.23,1.1,5.2,2.05,2.64,1.28,4.46.53,5.69-2a17.7,17.7,0,0,0,1.54-3.85c1.73-7.79,3.61-15.57,5-23.43C402.93,209.54,403,203.18,400.66,196.67Zm-96.33-63c.21,2.83.41,5.39.64,8.47l9-1.56C308.31,141.84,308,135.17,304.33,133.68ZM232.82,98c-5-1.37-10.19.11-11.6,3.11C225.54,102.39,229,100.78,232.82,98Zm27.89,100.2.38-1.05c-3.18-4-7.73-5.65-11.84-3.71Zm12.65-65.05c-4.41.06-6.28,2.52-8.33,4.7l.62.91Z" transform="translate(87.3 4.41)"/><path d="M220.09,179c.67-.61,1.24-1.57,2-1.77q7.69-2.06,15.48-3.8a6.78,6.78,0,0,1,3.94.51c-4.14,2.73-7.73,6.32-13.15,6.33,0,.29-.14.8-.24,1.4l-3.06-1.45-.32.62c1.91,1,3.88,1.86,5.73,2.95,1.47.86,2.68,2.42,4.23,2.84,3.22.88,1.73,2.15.36,3.85,10,5.18,19.41,11.56,31,12.2,3.89.21,7.86-1.19,11.81-1.72a8,8,0,0,1,3.33.34c1.73.54,3.32,1.56,5.06,2A89.19,89.19,0,0,0,296.38,205c1.62.18,3.33-.53,5-.48,3.61.11,7.59-.44,10.76.87,12.74,5.28,26,8.76,39.27,12.17a58.05,58.05,0,0,0,10.17,1.26c2.85.23,5.62,1.61,8.75,2.58-.08-1.16-.12-1.85-.18-2.63,9.19,2.32,10.27,14.34,4.64,21.65l-2.32-3.31-.18,1L363.59,237c-2.73-.36-5.46-.81-8.2-1-11.14-.87-22.29-1.53-33.41-2.51-9.18-.81-18.33-2-27.63-3,0,1-.13,1.37,0,1.59a15.94,15.94,0,0,1-3.47,21.39,21.69,21.69,0,0,1-6.48,3.3c-8.53,3.19-17,6.71-25.35,10.23-3.36,1.4-12.29,1.78-15.44.31a3,3,0,0,1-1.08-1.21c-1.18-2-2.29-4-3.48-6s-2.34-3.7-3.59-5.67l3.36-1.8c-6.38-2-12.54-3.6-18.47-5.82-4.34-1.63-7.19-4.68-9.42-9.26a72.55,72.55,0,0,1-5.11-12.64c-.69-2.48-.82-2.45-6.12-2,.59,1.76,1.13,3.41,1.74,5.24-1.94,1.65-3.07.35-3.8-1.34-4.23-9.69-6.08-19.57-4.6-30.33.88-6.41-.5-13.13-.9-20.17-14.48,5.15-28.75,9.47-41.32,18.53-2.35-5.92-4.22-11.37-6.67-16.53a39.09,39.09,0,0,0-5.76-8.19c-1.29-1.51-5.83.9-7.65,3.85-1.34,2.16-2.62,4.37-4.11,6.42a2.54,2.54,0,0,1-2.2.9c-5.89-2.51-11.22-5.61-12.85-12.57a10.75,10.75,0,0,1,6.46-12.73c5-1.86,10-4,15.11-5.11,5-1,10.13-1.82,15.35-.48,2,.52,4.3.13,6.46,0s4.49-.48,7-.75c-.53-2-1.06-4-1.56-5.87-5.33-1.78-6.16,5.74-9.8,5.3-.67-1.83-1.13-3.1-1.83-5a21.74,21.74,0,0,0,3.53.49,9.92,9.92,0,0,0,3.21-.69c3.56-1.33,7.08-2.78,10.63-4.14a2.4,2.4,0,0,1,1.48.14c-6,2-6,2-4.25,6.56.71-2.65,1.78-3.61,4.32-2.14,3.64,2.1,3-1.63,4-3.72l12.73,3.64c-.38-3-1.37-6.52,4.91-4.91l-4.16-5.05c3.55-.48,4.24.45,4.75,6.26.65-1.56,1.3-3.11,2.07-5,1.3,1,3,.82.66,3.82-5.63,7.13-13.31,11.54-20.23,16.9-2.74,2.13-6.81,2.56-9.58,3.52l43.46,4.15,0,.48-33.55-2.16-.08.45a12.57,12.57,0,0,0,2.24.53c18.49,1.1,37,2.24,55.48,3.17,1.91.1,3.88-1,5.83-1.58,4.88,1.45,9-1.2,13.32-2.68L236,164.92c.1-1,.2-2,.35-3.43l-3.8-.28-.11.61,1.64.68-.06,1-53-2.23v-1.47l60.65-2.09.15.9-5.68,1.64c4.13,1.06,5.78.52,9.86-2.93,2.4,1.58,7.07.64,10-2l-.27-.94-9.8,3.06c-.09-.33-.14-.92-.27-.94-3.69-.54-7.78-2.28-11-1.28-8.68,2.68-17.43,2.1-26.2,2.35-1.9.05-3.81,0-6.76,0l2.65-2.29-29.56,3.88-.26-1.3a23.57,23.57,0,0,1,11.52-3.13c1.9,0,4.73,1.61,5.69-1.89.06-.23,1.27-.08,1.91-.24,1.85-.45,4.64-.41,5.35-1.59,2.59-4.29,6.46-2.87,9.81-2.61,4.59.36,9.1,1.8,13.69,2.26,5.6.56,11.25.7,16.89.82,6.08.13,12.17,0,18,0-.54-1.21-.51-1.48-9.24-2.21-3.11-.26-6.36,1.14-9.54,1.78l-.28-1,3.31-2c-13.92,2.43-26.91,1.3-38-8.45a4.57,4.57,0,0,1-1.1-3.7l9.89,4.27.32-.67c-1.93-1-3.84-1.93-5.78-2.86-2.7-1.29-2.44-3.25-1.39-5.5a2.49,2.49,0,0,0,0-1.66c-1.1-3.34-.21-6,2.86-8,2-1.35,4.21-2.48,6.12-4,1.12-.88,1.8-2.31,2.75-3.43a12.51,12.51,0,0,1,1.61-1.37c.3.72.59,1.45.9,2.19,3.09-1.35,3.23-2,0-4.47l4.74-2.9-1.12-.52c2.18-2.7,2-2.21,5.14-1.23,2,.63,4.6-.43,6.79-.71v2.75a13,13,0,0,1,2.4-.54c1.47,0,3.39-1.8,4.29,1.06.07.23,2-.14,3.43-.25L244,112.06a28.22,28.22,0,0,0,3.73,0c5.9-.86,5.95-.82,4.22,5.11l-6.65-1.52c-.24.59-.47,1.18-.71,1.76l7.72,4.77-12.74,5,8.51,1.86c-4.57,1.82-8.74,3.42-12.85,5.17-.91.38-3.36.38-1.29,2.48-1.87,1.22-3.6,3-5.65,3.52-2.36.62-5,.14-7.81.14.32.65.38.93.46.93,7.47.22,14.94.57,22.42.55a14.34,14.34,0,0,1,10.2,3.54c1,.93,2.25,1.68,3.88,2.87V145l6.69-2.73c-5.48-2.42-10.55-4.34-11.61-10.68,4.29.21,8,5.87,13.11,1l.16,1.1-4.45,4.06-5.4-4.06-.75.76a22.8,22.8,0,0,0,3.64,3.46c6.42,3.91,5.9,3.84,11.14.19,1.7-1.18,3.44-2.29,5.16-3.44l.52.75-3.57,4.2,3,.14-15.11,11,.12.55a9.41,9.41,0,0,0,2.43-.73c4.33-2.66,8.49-5.59,12.95-8,1.36-.73,3.48-.23,5.22,0,4.07.45,7.48-.7,10.62-4.5-1.11,5.38-4.35,8.06-8.22,10.27l.62.71c2.24-1.68,4.46-3.4,6.76-5,.76-.53,1.79-1.23,2.57-1.1a53.07,53.07,0,0,0,20.93-.62c1-.23,2.08.14,3.08-.06a13.16,13.16,0,0,0,2.7-1.14l-.28-1.16h5.31l-2.63-4c1.85.94,3,1.26,3.77,2,2.38,2.12,4.51,1.72,6.79-.15,1.4-1.14,3-2.05,5.16-3.51-.17,2.51-.3,4.33-.5,7.16l5.2-5.85c-.1-.22.1.06.14.36a9.46,9.46,0,0,1,0,1.43l2.73-.47a20.58,20.58,0,0,1-.15-3.17,6.9,6.9,0,0,1,.79-1.93,7.4,7.4,0,0,1,1.73,1.3c.47.63.57,1.52,1,2.21.54.9,1.34,2.47,1.83,2.4a13.92,13.92,0,0,0,4.16-1.71c.93-.46,1.7-1.44,2.65-1.61,5.23-1,10.5-1.73,15.75-2.61a17.77,17.77,0,0,0,4.63-1.38c-4.2-.62-8.45,1.5-13.26.16,6.21-4.24,15.45-4,18.24.3l-15.51,4.82.1.67c2.12,0,4.24-.12,6.34.06a3.5,3.5,0,0,1,2.09,1.34c.2.25-.4,1.65-.65,1.65-.72,0-1.42-.53-2.16-.66-1.47-.25-3-.36-4.44-.54l-.11.89a3.82,3.82,0,0,1,1.08.36c.73.5,1.41,1.09,2.11,1.64-.71.48-1.42,1.41-2.11,1.39-5.39-.14-10.78-.34-16.15-.78-2.05-.16-4-1.4-4.71,2-.16.76-2.45,1.08-4.24,1.79-.45,1.71-1,3.92-1.51,5.73-6.24,0-12.22,0-18.19,0-1.84,0-3.68.27-5.52.46-17,1.83-34.09,3.73-51.16,5.44-3.33.34-4.81,1.3-4.83,5,0,5.84-1,11.7.9,17.4a33.35,33.35,0,0,0,2.8,6.21c1.68,2.83,3.64,5.49,5.79,8.68-5.25-1.16-9.84-2-14.34-3.26-1.29-.35-2.31-1.69-3.65-2.72,1.66-1.9,2.82-3.68,4.41-4.92s1.08-2.29.16-3.46c-2.63-3.34-6.6-2.89-8.91.52-1.33,2-3.58,3.33-4.78,4.39l-5.74-.63c1.28-8.93,8.4-13.82,15.37-18.83l-.59-.84a13.78,13.78,0,0,0-3.42,1.52c-4.42,3.7-9.7,4.94-15.17,5.19-9.55.44-19.11.73-28.67.64-11.91-.1-23-4.15-34.23-7.63-4.32-1.35-9.11-1.68-13-3.72-5.26-2.72-10.59-.88-15.8-1.72a31.06,31.06,0,0,1-5-1.11,20.54,20.54,0,0,0-12.42-.34c7,1,13.28,1.85,19.5,2.86,3.69.6,7.32,1.54,11,2.21a10.67,10.67,0,0,0,2.74-.17c1.17,6.16,6-.34,8,2.58l-2.64.18-.27.83a28.53,28.53,0,0,0,3.46,1.41c7.6,2,15.27,3.89,22.83,6.08,6.54,1.9,13,4,19.42,6.36,3,1.11,5.82,2.31,9.07,1.6.79,3.08,1.89,3.42,4.77,1.47C224,180.53,223,178.62,220.09,179ZM138,163.86l-.13-1.11L125.2,164l.11,1.08Zm109.17-17.25c0-.57.08-1.14.11-1.7l-8.16-.54-.12,1.22Z" transform="translate(87.3 4.41)"/><path d="M225.64,253.34c3.13,6.67,6.88,13.51,9.59,20.75,2.3,6.16,4.11,12.66,2,19.5-.6,1.9,0,4.15-.24,6.2-.16,1.35-.69,3.65-1.36,3.76-1.74.3-4.34.27-5.34-.8a32.84,32.84,0,0,1-6.52-9.28c-4.09-9.67-7.71-19.55-11.36-29.4a15.62,15.62,0,0,1-.51-5.14c0-2.22,1.29-3.21,3.45-3.56C218.69,254.83,222,254.06,225.64,253.34Z" transform="translate(87.3 4.41)"/><path d="M400.66,196.67c2.37,6.51,2.27,12.87,1.18,19.15-1.36,7.86-3.24,15.64-5,23.43a17.7,17.7,0,0,1-1.54,3.85c-1.23,2.49-3.05,3.24-5.69,2-2-.95-4.07-1.61-5.2-2.05,1-5.35,1.6-10.45,2.86-15.39,1.22-4.76,3.11-9.35,4.66-14a3.59,3.59,0,0,0,0-1.87c-.31-1.24-.78-2.44-1.29-4h-2.3c2.07-3.49,3.95-6.75,5.93-9.95a14.92,14.92,0,0,1,2-2.15c.45.88.9,1.77,1.52,3Z" transform="translate(87.3 4.41)"/><path d="M304.33,133.68c3.71,1.49,4,8.16,9.67,6.91l-9,1.56C304.74,139.07,304.54,136.51,304.33,133.68Z" transform="translate(87.3 4.41)"/><path d="M232.82,98c-3.78,2.74-7.28,4.35-11.6,3.11C222.63,98.15,227.82,96.67,232.82,98Z" transform="translate(87.3 4.41)"/><path d="M260.71,198.24l-11.46-4.76c4.11-1.94,8.66-.31,11.84,3.71Z" transform="translate(87.3 4.41)"/><path class="cls-1" d="M220.09,179c2.89-.41,3.95,1.5,4.74,3.75-2.88,1.95-4,1.61-4.77-1.47Z" transform="translate(87.3 4.41)"/><path class="cls-1" d="M236,164.92l13.43-2.83c-4.33,1.48-8.44,4.13-13.32,2.68Z" transform="translate(87.3 4.41)"/><path d="M273.36,133.19l-7.71,5.61-.62-.91C267.08,135.71,269,133.25,273.36,133.19Z" transform="translate(87.3 4.41)"/><path class="cls-1" d="M246,157.44l9.8-3.06.27.94c-3,2.67-7.62,3.61-10,2Z" transform="translate(87.3 4.41)"/><path class="cls-1" d="M138,163.86l-12.66,1.25L125.2,164l12.64-1.28Z" transform="translate(87.3 4.41)"/><path class="cls-1" d="M247.14,146.61l-8.17-1,.12-1.22,8.16.54C247.22,145.47,247.18,146,247.14,146.61Z" transform="translate(87.3 4.41)"/><text class="cls-2" transform="translate(189.3 65.41)">Hifi Dance</text></svg>