<?xml version="1.0" encoding="utf-8"?>
<!-- Generator: Adobe Illustrator 23.0.1, SVG Export Plug-In . SVG Version: 6.00 Build 0)  -->
<svg version="1.1" id="Layer_1" xmlns="http://www.w3.org/2000/svg" xmlns:xlink="http://www.w3.org/1999/xlink" x="0px" y="0px"
	 viewBox="0 0 100 125" style="enable-background:new 0 0 100 125;" xml:space="preserve">
<style type="text/css">
	.st0{fill:#FFFFFF;}
</style>
<ellipse class="st0" cx="50" cy="37.9" rx="16.4" ry="19.6"/>
<path class="st0" d="M89.3,78.8c0-12.6-9.7-23.1-22.7-25.6c-3.9,5.6-9.9,9.2-16.6,9.2c-6.7,0-12.7-3.6-16.6-9.2
	c-12.9,2.5-22.7,13-22.7,25.6c0,0.6,0.1,1.2,0.1,1.8c0,0.3-0.1,0.6-0.1,1V99c0,5.1,4.3,9.3,9.7,9.3h59.1c5.4,0,9.7-4.1,9.7-9.3V81.5
	c0-0.3-0.1-0.6-0.1-1C89.2,80,89.3,79.4,89.3,78.8z M76.2,82.1H59.1v-7.9h17.1V82.1z"/>
</svg>
