<svg enable-background="new 0 0 24 24" version="1.1" viewBox="0 0 23.732 22.154" xml:space="preserve" xmlns="http://www.w3.org/2000/svg"><g transform="translate(-.134 -.764)" fill="#fff"><path d="m9.544 19.319h-7.167c-1.237 0-2.243-1.007-2.243-2.243v-14.069c0-1.237 1.006-2.243 2.243-2.243h7.167c1.237 0 2.243 1.006 2.243 2.243v14.069c0 1.237-1.006 2.243-2.243 2.243zm-7.167-17.255c-0.52 0-0.943 0.423-0.943 0.943v14.069c0 0.52 0.423 0.942 0.943 0.942h7.167c0.52 0 0.943-0.423 0.943-0.942v-14.069c0-0.52-0.423-0.943-0.943-0.943z"/><path d="m11.137 5.515h-10.353c-0.359 0-0.65-0.291-0.65-0.65s0.291-0.65 0.65-0.65h10.353c0.359 0 0.65 0.291 0.65 0.65s-0.291 0.65-0.65 0.65z"/><path d="m11.137 15.735h-10.353c-0.359 0-0.65-0.291-0.65-0.65s0.291-0.65 0.65-0.65h10.353c0.359 0 0.65 0.291 0.65 0.65s-0.291 0.65-0.65 0.65z"/><path d="m21.623 22.918h-14.069c-1.237 0-2.243-1.007-2.243-2.243v-2.006c0-0.359 0.291-0.65 0.65-0.65s0.65 0.291 0.65 0.65v2.006c0 0.52 0.423 0.942 0.943 0.942h14.069c0.52 0 0.942-0.423 0.942-0.942v-7.167c0-0.52-0.423-0.942-0.942-0.942h-10.485c-0.359 0-0.65-0.292-0.65-0.65s0.291-0.65 0.65-0.65h10.485c1.236 0 2.243 1.006 2.243 2.243v7.167c0 1.235-1.007 2.242-2.243 2.242z"/><path d="m19.765 22.918c-0.359 0-0.65-0.291-0.65-0.65v-10.353c0-0.359 0.291-0.65 0.65-0.65s0.65 0.291 0.65 0.65v10.353c0 0.359-0.291 0.65-0.65 0.65z"/><path d="m9.545 22.54c-0.359 0-0.65-0.291-0.65-0.65v-3.221c0-0.359 0.291-0.65 0.65-0.65s0.65 0.291 0.65 0.65v3.221c0 0.359-0.291 0.65-0.65 0.65z"/></g><text x="-0.134" y="38.236" fill="#000000" font-family="'Helvetica Neue', Helvetica, Arial-Unicode, Arial, Sans-serif" font-size="5px" font-weight="bold">Created by Atif Arshad</text>
<text x="-0.134" y="43.236" fill="#000000" font-family="'Helvetica Neue', Helvetica, Arial-Unicode, Arial, Sans-serif" font-size="5px" font-weight="bold">from the Noun Project</text>
</svg>
