<svg version="1.1" viewBox="0 0 73.497 73.571" xmlns="http://www.w3.org/2000/svg">
 <title>rotate-cam-3</title>
 <desc>Created with Sketch.</desc>
 <g transform="translate(-13,-13)" fill="#fff" fill-rule="evenodd">
  <path d="m54.548 48.979c0-2.654-2.158-4.813-4.812-4.813s-4.814 2.159-4.814 4.813c0 2.653 2.16 4.812 4.814 4.812s4.812-2.159 4.812-4.812zm4 0c0 4.859-3.953 8.813-8.812 8.813-4.86 0-8.814-3.954-8.814-8.813s3.954-8.813 8.814-8.813c4.859 0 8.812 3.954 8.812 8.813zm6.762-5.951c0-1.639-1.333-2.972-2.971-2.972h-2.418c-1.733 0-3.262-0.853-4.142-2.283l-1.101-1.78h-9.885l-1.105 1.785c-0.876 1.425-2.405 2.278-4.085 2.278h-2.47c-1.639 0-2.972 1.333-2.972 2.972v13.779c0 1.639 1.333 2.972 2.972 2.972h25.206c1.638 0 2.971-1.333 2.971-2.972zm4 0v13.779c0 3.844-3.127 6.972-6.971 6.972h-25.206c-3.844 0-6.972-3.128-6.972-6.972v-13.779c0-3.844 3.128-6.972 6.972-6.972h2.417c0.333 0 0.588-0.141 0.733-0.379l1.696-2.737c0.364-0.589 1.007-0.947 1.7-0.947h12.113c0.693 0 1.336 0.358 1.7 0.947l1.692 2.732c0.149 0.243 0.404 0.384 0.684 0.384h2.471c3.844 0 6.971 3.128 6.971 6.972zm9.049-16.349c-7.008-8.694-17.433-13.679-28.605-13.679h-0.018c-3.411 0-6.802 0.475-10.081 1.411-1.062 0.302-1.677 1.409-1.374 2.471 0.302 1.062 1.407 1.679 2.472 1.374 2.921-0.833 5.943-1.256 8.984-1.256h0.016c9.956 0 19.247 4.443 25.492 12.189 5.487 6.806 7.994 15.341 7.061 24.034-0.774 7.207-3.841 13.802-8.743 18.975l1e-3 -5.235c0-1.104-0.896-2-2-2-1.105 0-2 0.896-2 2l-2e-3 9.805c0 0.028 7e-3 0.055 7e-3 0.082 3e-3 0.07 0.012 0.139 0.022 0.208 9e-3 0.064 0.02 0.126 0.034 0.187 0.015 0.061 0.035 0.121 0.056 0.181 0.023 0.066 0.047 0.13 0.077 0.193 0.024 0.051 0.053 0.101 0.082 0.151 0.038 0.066 0.079 0.13 0.124 0.19 0.016 0.021 0.025 0.043 0.041 0.063 0.018 0.021 0.039 0.036 0.057 0.057 0.063 0.072 0.132 0.138 0.205 0.201 0.038 0.033 0.076 0.066 0.116 0.096 0.076 0.056 0.157 0.103 0.241 0.148 0.04 0.021 0.078 0.046 0.119 0.064 0.099 0.045 0.202 0.077 0.309 0.106 0.029 8e-3 0.058 0.02 0.088 0.027 0.136 0.028 0.276 0.046 0.421 0.046l9.799 3e-3h1e-3c1.105 0 2-0.896 2-1.999 0-1.105-0.894-2.001-1.999-2.001l-4.724-1e-3c5.406-5.778 8.786-13.113 9.645-21.12 1.047-9.756-1.767-19.334-7.924-26.971zm-17.167 55.995c0.303 1.063-0.312 2.169-1.373 2.473-3.354 0.959-6.763 1.424-10.133 1.424-10.93 0-21.476-4.888-28.572-13.693-11.6-14.39-10.532-34.945 1.733-48.089l-4.738-1e-3c-1.105 0-1.999-0.897-1.999-2.001s0.895-1.999 2-1.999l9.805 3e-3c0.033 0 0.067 7e-3 0.1 9e-3 0.069 4e-3 0.137 0.01 0.206 0.021 0.06 0.01 0.119 0.021 0.179 0.037 0.066 0.016 0.13 0.035 0.195 0.059 0.057 0.021 0.112 0.043 0.168 0.07 0.061 0.029 0.121 0.06 0.181 0.096 0.053 0.033 0.105 0.068 0.156 0.105 0.052 0.039 0.103 0.081 0.153 0.126 0.024 0.022 0.053 0.039 0.076 0.062 0.027 0.027 0.046 0.059 0.071 0.086 0.023 0.026 0.049 0.046 0.071 0.073 0.018 0.023 0.03 0.049 0.048 0.073 0.042 0.057 0.079 0.115 0.114 0.176 0.033 0.055 0.063 0.112 0.091 0.17 0.027 0.058 0.049 0.117 0.07 0.177 0.023 0.064 0.043 0.128 0.059 0.194 0.014 0.059 0.024 0.12 0.033 0.18 0.01 0.069 0.017 0.135 0.019 0.203 2e-3 0.028 9e-3 0.055 9e-3 0.084l-5e-3 9.804c-1e-3 1.105-0.895 1.999-2 1.999h-1e-3c-1.104-1e-3 -2-0.896-1.999-2.001l3e-3 -5.223c-11.058 11.706-12.063 30.121-1.683 42.998 8.274 10.264 21.813 14.555 34.49 10.932 1.063-0.305 2.17 0.312 2.473 1.373z" fill="#fff"/>
 </g>
 <text x="-13" y="102" fill="#000000" font-family="'Helvetica Neue', Helvetica, Arial-Unicode, Arial, Sans-serif" font-size="5px" font-weight="bold">Created by Diego Naive</text>
 <text x="-13" y="107" fill="#000000" font-family="'Helvetica Neue', Helvetica, Arial-Unicode, Arial, Sans-serif" font-size="5px" font-weight="bold">from the Noun Project</text>
</svg>
