<?xml version="1.0" encoding="utf-8"?>
<!-- Generator: Adobe Illustrator 22.0.1, SVG Export Plug-In . SVG Version: 6.00 Build 0)  -->
<svg version="1.1" id="Layer_1" xmlns="http://www.w3.org/2000/svg" xmlns:xlink="http://www.w3.org/1999/xlink" x="0px" y="0px"
	 viewBox="0 0 50 50" style="enable-background:new 0 0 50 50;" xml:space="preserve">
<style type="text/css">
	.st0{fill:#FFFFFF;}
</style>
<path class="st0" d="M44.1,46.3c-1,0-1.9,0-2.8,0c-0.9,0-1.8-0.1-2.8-0.2c-0.4,1.1-0.4,1.1-1.8,1.1c-4.2,0-8.4,0-12.6,0
	C14.5,47.2,6,39.7,5.1,30c-0.4-4.2-0.6-8.5,0.2-12.7C6.9,8.5,15.6,2.4,24.4,3.9c7.2,1.2,13,7.2,13.8,14.6c0.3,2.5,0.1,5,0.2,7.6
	c0,0.6,0.2,0.8,0.7,1c2.9,1.1,4.8,3.1,4.9,6.2C44.3,37.5,44.1,41.9,44.1,46.3z M7.9,23.2c0,1.7,0,3.4,0,5c0.3,8.8,7.3,15.7,16.1,16
	c3.2,0.1,6.4,0,9.6,0c0.1,0,0.3-0.1,0.4-0.1c-0.9-0.9-1.8-1.7-2.5-2.7c-2.5-3.1-2.7-6.8-2.4-10.5c0.2-2.1,1.8-3.8,3.9-4.2
	c0.8-0.2,1.6-0.2,2.4-0.2c0-1.2,0-2.3,0-3.5c-0.1,0.1-0.2,0.1-0.2,0.2c-1.9,2.7-4.5,3.9-7.7,3.7c-1.9-0.1-3.5,0.3-4.7,1.9
	c-0.6,0.8-1.5,0.7-2.3,0c-0.4-0.4-0.8-0.8-1.2-1.2c-0.4-0.5-0.9-0.7-1.6-0.7c-1.1,0-2.3,0.1-3.4,0C11.6,26.5,9.5,25.3,7.9,23.2z
	 M21.6,25.7c1.2-1.6,2.8-2,4.5-1.9c0.8,0,1.5,0,2.3,0c2.1-0.1,4.2-1.6,4.9-3.7c0.7-2,0-4.2-1.7-5.6c-1.8-1.4-4.1-1.6-6-0.4
	c-1.4,0.9-2.2,2.2-2.5,3.8c-0.2,0.9-0.7,1.4-1.5,1.4c-0.8,0-1.4-0.6-1.5-1.4c0-0.1,0-0.2,0-0.2c-0.5-2.5-2.6-4.3-5.2-4.3
	c-2.2-0.1-4.4,1.7-5,3.9c-0.6,2.4,0.5,4.8,2.8,6c1.3,0.7,2.7,0.6,4.1,0.5C18.6,23.8,20.3,24,21.6,25.7z M41.1,43.3
	c0-0.1,0.1-0.2,0.1-0.3c0-3.1,0-6.2,0-9.3c0-2.1-1.8-3.9-3.8-4.1c-1-0.1-2.1-0.1-3.2-0.1c-1.4,0.1-2.1,0.9-2.1,2.3
	c0,0.8,0,1.6,0,2.4c0,1.8,0.5,3.4,1.4,4.8C35.2,41.8,37.8,43.2,41.1,43.3z M11.8,11c4-1.3,7.2-0.3,9.8,2.8c2.7-3.2,6-4.1,10-2.7
	C26.4,5.2,17,5.2,11.8,11z"/>
<path class="st0" d="M28.3,20.9c-1.3,0-2.3-1.1-2.3-2.3c0-1.2,1.1-2.3,2.3-2.3c1.3,0,2.4,1,2.4,2.3C30.7,19.8,29.6,20.9,28.3,20.9z"
	/>
<path class="st0" d="M17.5,18.6c0,1.3-1,2.3-2.3,2.3c-1.3,0-2.3-1-2.3-2.3c0-1.3,1-2.4,2.3-2.4C16.5,16.3,17.5,17.3,17.5,18.6z"/>
</svg>
