<?xml version="1.0" encoding="utf-8"?>
<!-- Generator: Adobe Illustrator 21.1.0, SVG Export Plug-In . SVG Version: 6.00 Build 0)  -->
<svg version="1.1" id="Layer_1" xmlns="http://www.w3.org/2000/svg" xmlns:xlink="http://www.w3.org/1999/xlink" x="0px" y="0px"
	 viewBox="0 0 50 50" style="enable-background:new 0 0 50 50;" xml:space="preserve">
<style type="text/css">
	.st0{fill:#FFFFFF;}
</style>
<path class="st0" d="M32.3,25.6c0-1.3,1.1-2.3,2.3-2.3l0,0c1.3,0,2.3,1.1,2.3,2.3l0,0c0,1.3-1.1,2.3-2.3,2.3l0,0
	C33.4,28,32.3,26.9,32.3,25.6z"/>
<path class="st0" d="M26.9,32.5c0-1.3,1.1-2.3,2.3-2.3l0,0c1.3,0,2.3,1.1,2.3,2.3l0,0c0,1.3-1.1,2.3-2.3,2.3l0,0
	C27.9,34.8,26.9,33.8,26.9,32.5z"/>
<path class="st0" d="M20.6,34.3c0-1.3,1.1-2.3,2.3-2.3l0,0c1.3,0,2.3,1.1,2.3,2.3l0,0c0,1.3-1.1,2.3-2.3,2.3l0,0
	C21.7,36.6,20.6,35.6,20.6,34.3z"/>
<path class="st0" d="M15.9,28.2c0-1.3,1.1-2.3,2.3-2.3l0,0c1.3,0,2.3,1.1,2.3,2.3l0,0c0,1.3-1.1,2.3-2.3,2.3l0,0
	C17,30.6,15.9,29.5,15.9,28.2z"/>
<path class="st0" d="M24.2,42.2c-0.5-0.4-0.8-0.9-0.9-1.5c-0.1-0.6,0.1-1.2,0.4-1.7c0.4-0.5,0.9-0.8,1.5-0.9
	c0.6-0.1,1.2,0.1,1.7,0.4c0.5,0.4,0.8,0.9,0.9,1.5c0.1,0.6-0.1,1.2-0.4,1.7c-0.4,0.5-0.9,0.8-1.5,0.9C25.3,42.7,24.7,42.6,24.2,42.2
	z"/>
<path class="st0" d="M5.6,21.9c0-1.3,1.1-2.3,2.3-2.3l0,0c1.3,0,2.3,1.1,2.3,2.3l0,0c0,1.3-1.1,2.3-2.3,2.3l0,0
	C6.7,24.2,5.6,23.2,5.6,21.9z"/>
<path class="st0" d="M16.8,17.2c0-1.3,1.1-2.3,2.3-2.3l0,0c1.3,0,2.3,1.1,2.3,2.3l0,0c0,1.3-1.1,2.3-2.3,2.3l0,0
	C17.9,19.5,16.8,18.4,16.8,17.2z"/>
<path class="st0" d="M24.1,26.7c0-1.3,1.1-2.3,2.3-2.3l0,0c1.3,0,2.3,1.1,2.3,2.3l0,0c0,1.3-1.1,2.3-2.3,2.3l0,0
	C25.1,29.1,24.1,28,24.1,26.7z"/>
<path class="st0" d="M40.5,21.5c0-1.3,1.1-2.3,2.3-2.3l0,0c1.3,0,2.3,1.1,2.3,2.3l0,0c0,1.3-1.1,2.3-2.3,2.3l0,0
	C41.6,23.8,40.5,22.8,40.5,21.5z"/>
<path class="st0" d="M29.3,17.6c0-1.3,1.1-2.3,2.3-2.3l0,0c1.3,0,2.3,1.1,2.3,2.3l0,0c0,1.3-1.1,2.3-2.3,2.3l0,0
	C30.4,19.9,29.3,18.9,29.3,17.6z"/>
<path class="st0" d="M12.1,8.5c0-1.3,1.1-2.3,2.3-2.3l0,0c1.3,0,2.3,1.1,2.3,2.3l0,0c0,1.3-1.1,2.3-2.3,2.3l0,0
	C13.2,10.8,12.1,9.8,12.1,8.5z"/>
<path class="st0" d="M35.8,10.8c0-1.3,1.1-2.3,2.3-2.3l0,0c1.3,0,2.3,1.1,2.3,2.3l0,0c0,1.3-1.1,2.3-2.3,2.3l0,0
	C36.9,13.2,35.8,12.1,35.8,10.8z"/>
</svg>
